<mxfile host="app.diagrams.net" modified="2022-04-18T05:13:58.240Z" agent="5.0 (Windows NT 10.0; Win64; x64) AppleWebKit/537.36 (KHTML, like Gecko) Chrome/100.0.4896.127 Safari/537.36" etag="kZqe4YhkrsKwgXuWADe6" version="17.4.5" type="github" pages="5">
  <diagram id="1yqpTpFjtBY46qvEx8Rs" name="model">
    <mxGraphModel dx="1333" dy="747" grid="1" gridSize="10" guides="1" tooltips="1" connect="1" arrows="1" fold="1" page="1" pageScale="1" pageWidth="1100" pageHeight="850" math="0" shadow="0">
      <root>
        <mxCell id="x18zJ_VZjueD5NWy3okX-0" />
        <mxCell id="x18zJ_VZjueD5NWy3okX-1" parent="x18zJ_VZjueD5NWy3okX-0" />
        <mxCell id="D23xmBbHzTduev8_v_9T-2" value="" style="ellipse;shape=cloud;whiteSpace=wrap;html=1;" parent="x18zJ_VZjueD5NWy3okX-1" vertex="1">
          <mxGeometry x="290" y="30" width="450" height="220" as="geometry" />
        </mxCell>
        <mxCell id="D23xmBbHzTduev8_v_9T-13" style="edgeStyle=orthogonalEdgeStyle;rounded=0;orthogonalLoop=1;jettySize=auto;html=1;entryX=0;entryY=0.5;entryDx=0;entryDy=0;entryPerimeter=0;endArrow=none;endFill=0;" parent="x18zJ_VZjueD5NWy3okX-1" source="D23xmBbHzTduev8_v_9T-0" target="D23xmBbHzTduev8_v_9T-1" edge="1">
          <mxGeometry relative="1" as="geometry" />
        </mxCell>
        <mxCell id="D23xmBbHzTduev8_v_9T-14" style="rounded=0;orthogonalLoop=1;jettySize=auto;html=1;exitX=0.5;exitY=1;exitDx=0;exitDy=0;exitPerimeter=0;entryX=0.5;entryY=0;entryDx=0;entryDy=0;entryPerimeter=0;endArrow=none;endFill=0;" parent="x18zJ_VZjueD5NWy3okX-1" source="D23xmBbHzTduev8_v_9T-0" target="D23xmBbHzTduev8_v_9T-4" edge="1">
          <mxGeometry relative="1" as="geometry" />
        </mxCell>
        <mxCell id="D23xmBbHzTduev8_v_9T-1" value="&lt;br&gt;&lt;br&gt;" style="points=[[0.015,0.015,0],[0.985,0.015,0],[0.985,0.985,0],[0.015,0.985,0],[0.25,0,0],[0.5,0,0],[0.75,0,0],[1,0.25,0],[1,0.5,0],[1,0.75,0],[0.75,1,0],[0.5,1,0],[0.25,1,0],[0,0.75,0],[0,0.5,0],[0,0.25,0]];verticalLabelPosition=middle;html=1;verticalAlign=middle;aspect=fixed;align=center;pointerEvents=1;shape=mxgraph.cisco19.rect;prIcon=l3_modular;fillColor=#FAFAFA;strokeColor=#005073;labelPosition=center;labelBackgroundColor=#B0B0B0;" parent="x18zJ_VZjueD5NWy3okX-1" vertex="1">
          <mxGeometry x="570" y="103.5" width="50" height="73" as="geometry" />
        </mxCell>
        <mxCell id="D23xmBbHzTduev8_v_9T-3" value="&lt;br&gt;&lt;br&gt;" style="points=[[0.015,0.015,0],[0.985,0.015,0],[0.985,0.985,0],[0.015,0.985,0],[0.25,0,0],[0.5,0,0],[0.75,0,0],[1,0.25,0],[1,0.5,0],[1,0.75,0],[0.75,1,0],[0.5,1,0],[0.25,1,0],[0,0.75,0],[0,0.5,0],[0,0.25,0]];verticalLabelPosition=middle;html=1;verticalAlign=middle;aspect=fixed;align=center;pointerEvents=1;shape=mxgraph.cisco19.rect;prIcon=l3_modular;fillColor=#FAFAFA;strokeColor=#005073;labelPosition=center;labelBackgroundColor=#B0B0B0;" parent="x18zJ_VZjueD5NWy3okX-1" vertex="1">
          <mxGeometry x="330" y="280" width="50" height="73" as="geometry" />
        </mxCell>
        <mxCell id="D23xmBbHzTduev8_v_9T-4" value="" style="points=[[0.015,0.015,0],[0.985,0.015,0],[0.985,0.985,0],[0.015,0.985,0],[0.25,0,0],[0.5,0,0],[0.75,0,0],[1,0.25,0],[1,0.5,0],[1,0.75,0],[0.75,1,0],[0.5,1,0],[0.25,1,0],[0,0.75,0],[0,0.5,0],[0,0.25,0]];verticalLabelPosition=middle;html=1;verticalAlign=middle;aspect=fixed;align=center;pointerEvents=1;shape=mxgraph.cisco19.rect;prIcon=l3_modular;fillColor=#FAFAFA;strokeColor=#005073;labelPosition=center;labelBackgroundColor=#B0B0B0;" parent="x18zJ_VZjueD5NWy3okX-1" vertex="1">
          <mxGeometry x="240" y="280" width="50" height="73" as="geometry" />
        </mxCell>
        <mxCell id="D23xmBbHzTduev8_v_9T-6" value="" style="endArrow=none;dashed=1;html=1;dashPattern=1 3;strokeWidth=2;rounded=0;" parent="x18zJ_VZjueD5NWy3okX-1" edge="1">
          <mxGeometry width="50" height="50" relative="1" as="geometry">
            <mxPoint x="800" y="40" as="sourcePoint" />
            <mxPoint x="240" y="40" as="targetPoint" />
          </mxGeometry>
        </mxCell>
        <mxCell id="D23xmBbHzTduev8_v_9T-7" value="" style="endArrow=none;dashed=1;html=1;dashPattern=1 3;strokeWidth=2;rounded=0;" parent="x18zJ_VZjueD5NWy3okX-1" edge="1">
          <mxGeometry width="50" height="50" relative="1" as="geometry">
            <mxPoint x="795" y="250" as="sourcePoint" />
            <mxPoint x="235" y="250" as="targetPoint" />
          </mxGeometry>
        </mxCell>
        <mxCell id="D23xmBbHzTduev8_v_9T-8" value="Core Layer" style="text;html=1;align=center;verticalAlign=middle;resizable=0;points=[];autosize=1;strokeColor=none;fillColor=none;" parent="x18zJ_VZjueD5NWy3okX-1" vertex="1">
          <mxGeometry x="810" y="120" width="70" height="20" as="geometry" />
        </mxCell>
        <mxCell id="D23xmBbHzTduev8_v_9T-9" value="&lt;br&gt;&lt;br&gt;" style="points=[[0.015,0.015,0],[0.985,0.015,0],[0.985,0.985,0],[0.015,0.985,0],[0.25,0,0],[0.5,0,0],[0.75,0,0],[1,0.25,0],[1,0.5,0],[1,0.75,0],[0.75,1,0],[0.5,1,0],[0.25,1,0],[0,0.75,0],[0,0.5,0],[0,0.25,0]];verticalLabelPosition=middle;html=1;verticalAlign=middle;aspect=fixed;align=center;pointerEvents=1;shape=mxgraph.cisco19.rect;prIcon=l3_modular;fillColor=#FAFAFA;strokeColor=#005073;labelPosition=center;labelBackgroundColor=#B0B0B0;" parent="x18zJ_VZjueD5NWy3okX-1" vertex="1">
          <mxGeometry x="540" y="280" width="50" height="73" as="geometry" />
        </mxCell>
        <mxCell id="D23xmBbHzTduev8_v_9T-10" value="" style="points=[[0.015,0.015,0],[0.985,0.015,0],[0.985,0.985,0],[0.015,0.985,0],[0.25,0,0],[0.5,0,0],[0.75,0,0],[1,0.25,0],[1,0.5,0],[1,0.75,0],[0.75,1,0],[0.5,1,0],[0.25,1,0],[0,0.75,0],[0,0.5,0],[0,0.25,0]];verticalLabelPosition=middle;html=1;verticalAlign=middle;aspect=fixed;align=center;pointerEvents=1;shape=mxgraph.cisco19.rect;prIcon=l3_modular;fillColor=#FAFAFA;strokeColor=#005073;labelPosition=center;labelBackgroundColor=#B0B0B0;" parent="x18zJ_VZjueD5NWy3okX-1" vertex="1">
          <mxGeometry x="450" y="280" width="50" height="73" as="geometry" />
        </mxCell>
        <mxCell id="D23xmBbHzTduev8_v_9T-11" value="&lt;br&gt;&lt;br&gt;" style="points=[[0.015,0.015,0],[0.985,0.015,0],[0.985,0.985,0],[0.015,0.985,0],[0.25,0,0],[0.5,0,0],[0.75,0,0],[1,0.25,0],[1,0.5,0],[1,0.75,0],[0.75,1,0],[0.5,1,0],[0.25,1,0],[0,0.75,0],[0,0.5,0],[0,0.25,0]];verticalLabelPosition=middle;html=1;verticalAlign=middle;aspect=fixed;align=center;pointerEvents=1;shape=mxgraph.cisco19.rect;prIcon=l3_modular;fillColor=#FAFAFA;strokeColor=#005073;labelPosition=center;labelBackgroundColor=#B0B0B0;" parent="x18zJ_VZjueD5NWy3okX-1" vertex="1">
          <mxGeometry x="750" y="280" width="50" height="73" as="geometry" />
        </mxCell>
        <mxCell id="D23xmBbHzTduev8_v_9T-12" value="" style="points=[[0.015,0.015,0],[0.985,0.015,0],[0.985,0.985,0],[0.015,0.985,0],[0.25,0,0],[0.5,0,0],[0.75,0,0],[1,0.25,0],[1,0.5,0],[1,0.75,0],[0.75,1,0],[0.5,1,0],[0.25,1,0],[0,0.75,0],[0,0.5,0],[0,0.25,0]];verticalLabelPosition=middle;html=1;verticalAlign=middle;aspect=fixed;align=center;pointerEvents=1;shape=mxgraph.cisco19.rect;prIcon=l3_modular;fillColor=#FAFAFA;strokeColor=#005073;labelPosition=center;labelBackgroundColor=#B0B0B0;" parent="x18zJ_VZjueD5NWy3okX-1" vertex="1">
          <mxGeometry x="660" y="280" width="50" height="73" as="geometry" />
        </mxCell>
        <mxCell id="D23xmBbHzTduev8_v_9T-15" style="rounded=0;orthogonalLoop=1;jettySize=auto;html=1;exitX=0.5;exitY=1;exitDx=0;exitDy=0;exitPerimeter=0;entryX=0.5;entryY=0;entryDx=0;entryDy=0;entryPerimeter=0;endArrow=none;endFill=0;" parent="x18zJ_VZjueD5NWy3okX-1" source="D23xmBbHzTduev8_v_9T-1" target="D23xmBbHzTduev8_v_9T-4" edge="1">
          <mxGeometry relative="1" as="geometry">
            <mxPoint x="455" y="186.5" as="sourcePoint" />
            <mxPoint x="275" y="290" as="targetPoint" />
          </mxGeometry>
        </mxCell>
        <mxCell id="D23xmBbHzTduev8_v_9T-16" style="rounded=0;orthogonalLoop=1;jettySize=auto;html=1;exitX=0.5;exitY=1;exitDx=0;exitDy=0;exitPerimeter=0;endArrow=none;endFill=0;" parent="x18zJ_VZjueD5NWy3okX-1" source="D23xmBbHzTduev8_v_9T-0" edge="1">
          <mxGeometry relative="1" as="geometry">
            <mxPoint x="605" y="186.5" as="sourcePoint" />
            <mxPoint x="355" y="280" as="targetPoint" />
          </mxGeometry>
        </mxCell>
        <mxCell id="D23xmBbHzTduev8_v_9T-17" style="rounded=0;orthogonalLoop=1;jettySize=auto;html=1;exitX=0.5;exitY=1;exitDx=0;exitDy=0;exitPerimeter=0;entryX=0.5;entryY=0;entryDx=0;entryDy=0;entryPerimeter=0;endArrow=none;endFill=0;" parent="x18zJ_VZjueD5NWy3okX-1" source="D23xmBbHzTduev8_v_9T-1" target="D23xmBbHzTduev8_v_9T-3" edge="1">
          <mxGeometry relative="1" as="geometry">
            <mxPoint x="615" y="196.5" as="sourcePoint" />
            <mxPoint x="285" y="300" as="targetPoint" />
          </mxGeometry>
        </mxCell>
        <mxCell id="D23xmBbHzTduev8_v_9T-18" style="rounded=0;orthogonalLoop=1;jettySize=auto;html=1;exitX=0.5;exitY=1;exitDx=0;exitDy=0;exitPerimeter=0;entryX=0.5;entryY=0;entryDx=0;entryDy=0;entryPerimeter=0;endArrow=none;endFill=0;" parent="x18zJ_VZjueD5NWy3okX-1" source="D23xmBbHzTduev8_v_9T-0" target="D23xmBbHzTduev8_v_9T-10" edge="1">
          <mxGeometry relative="1" as="geometry">
            <mxPoint x="625" y="206.5" as="sourcePoint" />
            <mxPoint x="295" y="310" as="targetPoint" />
          </mxGeometry>
        </mxCell>
        <mxCell id="D23xmBbHzTduev8_v_9T-19" style="rounded=0;orthogonalLoop=1;jettySize=auto;html=1;exitX=0.5;exitY=1;exitDx=0;exitDy=0;exitPerimeter=0;endArrow=none;endFill=0;entryX=0.5;entryY=0;entryDx=0;entryDy=0;entryPerimeter=0;" parent="x18zJ_VZjueD5NWy3okX-1" source="D23xmBbHzTduev8_v_9T-1" target="D23xmBbHzTduev8_v_9T-10" edge="1">
          <mxGeometry relative="1" as="geometry">
            <mxPoint x="635" y="216.5" as="sourcePoint" />
            <mxPoint x="480" y="280" as="targetPoint" />
          </mxGeometry>
        </mxCell>
        <mxCell id="D23xmBbHzTduev8_v_9T-20" style="rounded=0;orthogonalLoop=1;jettySize=auto;html=1;exitX=0.499;exitY=0.988;exitDx=0;exitDy=0;exitPerimeter=0;entryX=0.5;entryY=0;entryDx=0;entryDy=0;entryPerimeter=0;endArrow=none;endFill=0;" parent="x18zJ_VZjueD5NWy3okX-1" source="D23xmBbHzTduev8_v_9T-0" target="D23xmBbHzTduev8_v_9T-9" edge="1">
          <mxGeometry relative="1" as="geometry">
            <mxPoint x="645" y="226.5" as="sourcePoint" />
            <mxPoint x="315" y="330" as="targetPoint" />
          </mxGeometry>
        </mxCell>
        <mxCell id="D23xmBbHzTduev8_v_9T-21" style="rounded=0;orthogonalLoop=1;jettySize=auto;html=1;exitX=0.5;exitY=1;exitDx=0;exitDy=0;exitPerimeter=0;entryX=0.5;entryY=0;entryDx=0;entryDy=0;entryPerimeter=0;endArrow=none;endFill=0;" parent="x18zJ_VZjueD5NWy3okX-1" source="D23xmBbHzTduev8_v_9T-0" target="D23xmBbHzTduev8_v_9T-12" edge="1">
          <mxGeometry relative="1" as="geometry">
            <mxPoint x="655" y="236.5" as="sourcePoint" />
            <mxPoint x="325" y="340" as="targetPoint" />
          </mxGeometry>
        </mxCell>
        <mxCell id="D23xmBbHzTduev8_v_9T-22" style="rounded=0;orthogonalLoop=1;jettySize=auto;html=1;exitX=0.5;exitY=1;exitDx=0;exitDy=0;exitPerimeter=0;entryX=0.5;entryY=0;entryDx=0;entryDy=0;entryPerimeter=0;endArrow=none;endFill=0;" parent="x18zJ_VZjueD5NWy3okX-1" source="D23xmBbHzTduev8_v_9T-1" target="D23xmBbHzTduev8_v_9T-9" edge="1">
          <mxGeometry relative="1" as="geometry">
            <mxPoint x="665" y="246.5" as="sourcePoint" />
            <mxPoint x="335" y="350" as="targetPoint" />
          </mxGeometry>
        </mxCell>
        <mxCell id="D23xmBbHzTduev8_v_9T-23" style="rounded=0;orthogonalLoop=1;jettySize=auto;html=1;exitX=0.5;exitY=1;exitDx=0;exitDy=0;exitPerimeter=0;entryX=0.547;entryY=-0.009;entryDx=0;entryDy=0;entryPerimeter=0;endArrow=none;endFill=0;" parent="x18zJ_VZjueD5NWy3okX-1" source="D23xmBbHzTduev8_v_9T-1" target="D23xmBbHzTduev8_v_9T-12" edge="1">
          <mxGeometry relative="1" as="geometry">
            <mxPoint x="675" y="256.5" as="sourcePoint" />
            <mxPoint x="345" y="360" as="targetPoint" />
          </mxGeometry>
        </mxCell>
        <mxCell id="D23xmBbHzTduev8_v_9T-24" style="rounded=0;orthogonalLoop=1;jettySize=auto;html=1;exitX=0.01;exitY=0.55;exitDx=0;exitDy=0;exitPerimeter=0;entryX=0.99;entryY=0.549;entryDx=0;entryDy=0;entryPerimeter=0;endArrow=none;endFill=0;" parent="x18zJ_VZjueD5NWy3okX-1" source="D23xmBbHzTduev8_v_9T-3" target="D23xmBbHzTduev8_v_9T-4" edge="1">
          <mxGeometry relative="1" as="geometry">
            <mxPoint x="685" y="266.5" as="sourcePoint" />
            <mxPoint x="355" y="370" as="targetPoint" />
          </mxGeometry>
        </mxCell>
        <mxCell id="D23xmBbHzTduev8_v_9T-25" style="rounded=0;orthogonalLoop=1;jettySize=auto;html=1;exitX=-0.019;exitY=0.561;exitDx=0;exitDy=0;exitPerimeter=0;entryX=1.028;entryY=0.559;entryDx=0;entryDy=0;entryPerimeter=0;endArrow=none;endFill=0;" parent="x18zJ_VZjueD5NWy3okX-1" source="D23xmBbHzTduev8_v_9T-9" target="D23xmBbHzTduev8_v_9T-10" edge="1">
          <mxGeometry relative="1" as="geometry">
            <mxPoint x="695" y="276.5" as="sourcePoint" />
            <mxPoint x="365" y="380" as="targetPoint" />
          </mxGeometry>
        </mxCell>
        <mxCell id="D23xmBbHzTduev8_v_9T-0" value="" style="points=[[0.015,0.015,0],[0.985,0.015,0],[0.985,0.985,0],[0.015,0.985,0],[0.25,0,0],[0.5,0,0],[0.75,0,0],[1,0.25,0],[1,0.5,0],[1,0.75,0],[0.75,1,0],[0.5,1,0],[0.25,1,0],[0,0.75,0],[0,0.5,0],[0,0.25,0]];verticalLabelPosition=middle;html=1;verticalAlign=middle;aspect=fixed;align=center;pointerEvents=1;shape=mxgraph.cisco19.rect;prIcon=l3_modular;fillColor=#FAFAFA;strokeColor=#005073;labelPosition=center;labelBackgroundColor=#B0B0B0;" parent="x18zJ_VZjueD5NWy3okX-1" vertex="1">
          <mxGeometry x="420" y="103.5" width="50" height="73" as="geometry" />
        </mxCell>
        <mxCell id="D23xmBbHzTduev8_v_9T-26" style="rounded=0;orthogonalLoop=1;jettySize=auto;html=1;exitX=0.014;exitY=0.543;exitDx=0;exitDy=0;exitPerimeter=0;endArrow=none;endFill=0;entryX=0.99;entryY=0.543;entryDx=0;entryDy=0;entryPerimeter=0;" parent="x18zJ_VZjueD5NWy3okX-1" source="D23xmBbHzTduev8_v_9T-11" target="D23xmBbHzTduev8_v_9T-12" edge="1">
          <mxGeometry relative="1" as="geometry">
            <mxPoint x="747.65" y="320.14300000000003" as="sourcePoint" />
            <mxPoint x="730" y="320" as="targetPoint" />
          </mxGeometry>
        </mxCell>
        <mxCell id="D23xmBbHzTduev8_v_9T-27" style="rounded=0;orthogonalLoop=1;jettySize=auto;html=1;exitX=0.5;exitY=1;exitDx=0;exitDy=0;exitPerimeter=0;entryX=0.496;entryY=0.01;entryDx=0;entryDy=0;entryPerimeter=0;endArrow=none;endFill=0;" parent="x18zJ_VZjueD5NWy3okX-1" source="D23xmBbHzTduev8_v_9T-0" target="D23xmBbHzTduev8_v_9T-11" edge="1">
          <mxGeometry relative="1" as="geometry">
            <mxPoint x="657.65" y="140" as="sourcePoint" />
            <mxPoint x="750.0000000000001" y="242.84299999999996" as="targetPoint" />
          </mxGeometry>
        </mxCell>
        <mxCell id="D23xmBbHzTduev8_v_9T-28" style="rounded=0;orthogonalLoop=1;jettySize=auto;html=1;exitX=0.5;exitY=1;exitDx=0;exitDy=0;exitPerimeter=0;entryX=0.501;entryY=0.007;entryDx=0;entryDy=0;entryPerimeter=0;endArrow=none;endFill=0;" parent="x18zJ_VZjueD5NWy3okX-1" source="D23xmBbHzTduev8_v_9T-1" target="D23xmBbHzTduev8_v_9T-11" edge="1">
          <mxGeometry relative="1" as="geometry">
            <mxPoint x="720" y="130" as="sourcePoint" />
            <mxPoint x="812.3500000000001" y="232.84299999999996" as="targetPoint" />
          </mxGeometry>
        </mxCell>
        <mxCell id="D23xmBbHzTduev8_v_9T-29" value="" style="endArrow=none;dashed=1;html=1;dashPattern=1 3;strokeWidth=2;rounded=0;" parent="x18zJ_VZjueD5NWy3okX-1" edge="1">
          <mxGeometry width="50" height="50" relative="1" as="geometry">
            <mxPoint x="800" y="360" as="sourcePoint" />
            <mxPoint x="240" y="360" as="targetPoint" />
          </mxGeometry>
        </mxCell>
        <mxCell id="D23xmBbHzTduev8_v_9T-30" value="Distribution Layer" style="text;html=1;align=left;verticalAlign=middle;resizable=0;points=[];autosize=1;strokeColor=none;fillColor=none;" parent="x18zJ_VZjueD5NWy3okX-1" vertex="1">
          <mxGeometry x="810" y="300" width="110" height="20" as="geometry" />
        </mxCell>
        <mxCell id="D23xmBbHzTduev8_v_9T-31" value="Access Layer" style="text;html=1;align=left;verticalAlign=middle;resizable=0;points=[];autosize=1;strokeColor=none;fillColor=none;" parent="x18zJ_VZjueD5NWy3okX-1" vertex="1">
          <mxGeometry x="810" y="415" width="90" height="20" as="geometry" />
        </mxCell>
        <mxCell id="S9mi0oa5xU0_oj3R4kqS-6" style="edgeStyle=none;rounded=0;orthogonalLoop=1;jettySize=auto;html=1;endArrow=none;endFill=0;entryX=0.5;entryY=1;entryDx=0;entryDy=0;entryPerimeter=0;" parent="x18zJ_VZjueD5NWy3okX-1" source="S9mi0oa5xU0_oj3R4kqS-0" target="D23xmBbHzTduev8_v_9T-4" edge="1">
          <mxGeometry relative="1" as="geometry">
            <mxPoint x="265" y="370" as="targetPoint" />
          </mxGeometry>
        </mxCell>
        <mxCell id="S9mi0oa5xU0_oj3R4kqS-0" value="" style="points=[[0.5,0,0],[1,0.5,0],[0.5,1,0],[0,0.5,0],[0.145,0.145,0],[0.8555,0.145,0],[0.855,0.8555,0],[0.145,0.855,0]];verticalLabelPosition=middle;html=1;verticalAlign=middle;aspect=fixed;align=right;pointerEvents=1;shape=mxgraph.cisco19.rect;prIcon=router;fillColor=#FAFAFA;strokeColor=#005073;labelBackgroundColor=#ffffff;fontSize=11;labelPosition=left;" parent="x18zJ_VZjueD5NWy3okX-1" vertex="1">
          <mxGeometry x="250" y="385" width="30" height="30" as="geometry" />
        </mxCell>
        <mxCell id="S9mi0oa5xU0_oj3R4kqS-7" style="edgeStyle=none;rounded=0;orthogonalLoop=1;jettySize=auto;html=1;exitX=0.5;exitY=0;exitDx=0;exitDy=0;exitPerimeter=0;entryX=0.5;entryY=1;entryDx=0;entryDy=0;entryPerimeter=0;endArrow=none;endFill=0;" parent="x18zJ_VZjueD5NWy3okX-1" source="S9mi0oa5xU0_oj3R4kqS-5" target="D23xmBbHzTduev8_v_9T-3" edge="1">
          <mxGeometry relative="1" as="geometry" />
        </mxCell>
        <mxCell id="S9mi0oa5xU0_oj3R4kqS-5" value="" style="points=[[0.5,0,0],[1,0.5,0],[0.5,1,0],[0,0.5,0],[0.145,0.145,0],[0.8555,0.145,0],[0.855,0.8555,0],[0.145,0.855,0]];verticalLabelPosition=middle;html=1;verticalAlign=middle;aspect=fixed;align=right;pointerEvents=1;shape=mxgraph.cisco19.rect;prIcon=router;fillColor=#FAFAFA;strokeColor=#005073;labelBackgroundColor=#ffffff;fontSize=11;labelPosition=left;" parent="x18zJ_VZjueD5NWy3okX-1" vertex="1">
          <mxGeometry x="340" y="385" width="30" height="30" as="geometry" />
        </mxCell>
        <mxCell id="S9mi0oa5xU0_oj3R4kqS-8" style="edgeStyle=none;rounded=0;orthogonalLoop=1;jettySize=auto;html=1;endArrow=none;endFill=0;entryX=0.005;entryY=0.852;entryDx=0;entryDy=0;entryPerimeter=0;exitX=0.5;exitY=0;exitDx=0;exitDy=0;exitPerimeter=0;" parent="x18zJ_VZjueD5NWy3okX-1" source="S9mi0oa5xU0_oj3R4kqS-0" target="D23xmBbHzTduev8_v_9T-3" edge="1">
          <mxGeometry relative="1" as="geometry">
            <mxPoint x="275" y="395" as="sourcePoint" />
            <mxPoint x="275" y="363" as="targetPoint" />
          </mxGeometry>
        </mxCell>
        <mxCell id="S9mi0oa5xU0_oj3R4kqS-9" style="edgeStyle=none;rounded=0;orthogonalLoop=1;jettySize=auto;html=1;exitX=0.5;exitY=0;exitDx=0;exitDy=0;exitPerimeter=0;entryX=0.995;entryY=0.852;entryDx=0;entryDy=0;entryPerimeter=0;endArrow=none;endFill=0;" parent="x18zJ_VZjueD5NWy3okX-1" source="S9mi0oa5xU0_oj3R4kqS-5" target="D23xmBbHzTduev8_v_9T-4" edge="1">
          <mxGeometry relative="1" as="geometry">
            <mxPoint x="365" y="395" as="sourcePoint" />
            <mxPoint x="365" y="363" as="targetPoint" />
          </mxGeometry>
        </mxCell>
        <mxCell id="S9mi0oa5xU0_oj3R4kqS-10" value="WAN" style="ellipse;shape=cloud;whiteSpace=wrap;html=1;align=center;" parent="x18zJ_VZjueD5NWy3okX-1" vertex="1">
          <mxGeometry x="230" y="435" width="160" height="80" as="geometry" />
        </mxCell>
        <mxCell id="S9mi0oa5xU0_oj3R4kqS-11" style="edgeStyle=none;rounded=0;orthogonalLoop=1;jettySize=auto;html=1;endArrow=none;endFill=0;exitX=0.219;exitY=0.273;exitDx=0;exitDy=0;exitPerimeter=0;entryX=0.5;entryY=1;entryDx=0;entryDy=0;entryPerimeter=0;" parent="x18zJ_VZjueD5NWy3okX-1" source="S9mi0oa5xU0_oj3R4kqS-10" target="S9mi0oa5xU0_oj3R4kqS-0" edge="1">
          <mxGeometry relative="1" as="geometry">
            <mxPoint x="264.8" y="447" as="sourcePoint" />
            <mxPoint x="265" y="430" as="targetPoint" />
          </mxGeometry>
        </mxCell>
        <mxCell id="S9mi0oa5xU0_oj3R4kqS-12" style="edgeStyle=none;rounded=0;orthogonalLoop=1;jettySize=auto;html=1;endArrow=none;endFill=0;entryX=0.5;entryY=1;entryDx=0;entryDy=0;entryPerimeter=0;exitX=0.781;exitY=0.188;exitDx=0;exitDy=0;exitPerimeter=0;" parent="x18zJ_VZjueD5NWy3okX-1" source="S9mi0oa5xU0_oj3R4kqS-10" target="S9mi0oa5xU0_oj3R4kqS-5" edge="1">
          <mxGeometry relative="1" as="geometry">
            <mxPoint x="355" y="449" as="sourcePoint" />
            <mxPoint x="354.8" y="425" as="targetPoint" />
          </mxGeometry>
        </mxCell>
        <mxCell id="sdz9tkhJuqu5VGt_nIdk-7" style="edgeStyle=none;rounded=0;orthogonalLoop=1;jettySize=auto;html=1;exitX=0.5;exitY=0;exitDx=0;exitDy=0;exitPerimeter=0;entryX=0.5;entryY=1;entryDx=0;entryDy=0;entryPerimeter=0;endArrow=none;endFill=0;strokeColor=#3333FF;" parent="x18zJ_VZjueD5NWy3okX-1" source="sdz9tkhJuqu5VGt_nIdk-0" target="D23xmBbHzTduev8_v_9T-10" edge="1">
          <mxGeometry relative="1" as="geometry" />
        </mxCell>
        <mxCell id="sdz9tkhJuqu5VGt_nIdk-0" value="" style="points=[[0.015,0.015,0],[0.985,0.015,0],[0.985,0.985,0],[0.015,0.985,0],[0.25,0,0],[0.5,0,0],[0.75,0,0],[1,0.25,0],[1,0.5,0],[1,0.75,0],[0.75,1,0],[0.5,1,0],[0.25,1,0],[0,0.75,0],[0,0.5,0],[0,0.25,0]];verticalLabelPosition=bottom;html=1;verticalAlign=top;aspect=fixed;align=center;pointerEvents=1;shape=mxgraph.cisco19.rect;prIcon=l2_switch;fillColor=#FAFAFA;strokeColor=#005073;labelBackgroundColor=#ffffff;fontSize=11;" parent="x18zJ_VZjueD5NWy3okX-1" vertex="1">
          <mxGeometry x="420" y="410" width="30" height="30" as="geometry" />
        </mxCell>
        <mxCell id="sdz9tkhJuqu5VGt_nIdk-4" value="" style="points=[[0.015,0.015,0],[0.985,0.015,0],[0.985,0.985,0],[0.015,0.985,0],[0.25,0,0],[0.5,0,0],[0.75,0,0],[1,0.25,0],[1,0.5,0],[1,0.75,0],[0.75,1,0],[0.5,1,0],[0.25,1,0],[0,0.75,0],[0,0.5,0],[0,0.25,0]];verticalLabelPosition=bottom;html=1;verticalAlign=top;aspect=fixed;align=center;pointerEvents=1;shape=mxgraph.cisco19.rect;prIcon=l2_switch;fillColor=#FAFAFA;strokeColor=#005073;labelBackgroundColor=#ffffff;fontSize=11;" parent="x18zJ_VZjueD5NWy3okX-1" vertex="1">
          <mxGeometry x="470" y="410" width="30" height="30" as="geometry" />
        </mxCell>
        <mxCell id="sdz9tkhJuqu5VGt_nIdk-5" value="" style="points=[[0.015,0.015,0],[0.985,0.015,0],[0.985,0.985,0],[0.015,0.985,0],[0.25,0,0],[0.5,0,0],[0.75,0,0],[1,0.25,0],[1,0.5,0],[1,0.75,0],[0.75,1,0],[0.5,1,0],[0.25,1,0],[0,0.75,0],[0,0.5,0],[0,0.25,0]];verticalLabelPosition=bottom;html=1;verticalAlign=top;aspect=fixed;align=center;pointerEvents=1;shape=mxgraph.cisco19.rect;prIcon=l2_switch;fillColor=#FAFAFA;strokeColor=#005073;labelBackgroundColor=#ffffff;fontSize=11;" parent="x18zJ_VZjueD5NWy3okX-1" vertex="1">
          <mxGeometry x="520" y="410" width="30" height="30" as="geometry" />
        </mxCell>
        <mxCell id="sdz9tkhJuqu5VGt_nIdk-6" value="" style="points=[[0.015,0.015,0],[0.985,0.015,0],[0.985,0.985,0],[0.015,0.985,0],[0.25,0,0],[0.5,0,0],[0.75,0,0],[1,0.25,0],[1,0.5,0],[1,0.75,0],[0.75,1,0],[0.5,1,0],[0.25,1,0],[0,0.75,0],[0,0.5,0],[0,0.25,0]];verticalLabelPosition=bottom;html=1;verticalAlign=top;aspect=fixed;align=center;pointerEvents=1;shape=mxgraph.cisco19.rect;prIcon=l2_switch;fillColor=#FAFAFA;strokeColor=#005073;labelBackgroundColor=#ffffff;fontSize=11;" parent="x18zJ_VZjueD5NWy3okX-1" vertex="1">
          <mxGeometry x="570" y="410" width="30" height="30" as="geometry" />
        </mxCell>
        <mxCell id="sdz9tkhJuqu5VGt_nIdk-8" value="" style="endArrow=none;html=1;rounded=0;entryX=0.5;entryY=1;entryDx=0;entryDy=0;entryPerimeter=0;exitX=0.5;exitY=0;exitDx=0;exitDy=0;exitPerimeter=0;strokeColor=#3333FF;" parent="x18zJ_VZjueD5NWy3okX-1" source="sdz9tkhJuqu5VGt_nIdk-0" target="D23xmBbHzTduev8_v_9T-9" edge="1">
          <mxGeometry width="50" height="50" relative="1" as="geometry">
            <mxPoint x="510" y="410" as="sourcePoint" />
            <mxPoint x="560" y="360" as="targetPoint" />
          </mxGeometry>
        </mxCell>
        <mxCell id="sdz9tkhJuqu5VGt_nIdk-9" value="" style="endArrow=none;html=1;rounded=0;exitX=0.453;exitY=0.028;exitDx=0;exitDy=0;exitPerimeter=0;entryX=0.5;entryY=1;entryDx=0;entryDy=0;entryPerimeter=0;strokeColor=#3333FF;" parent="x18zJ_VZjueD5NWy3okX-1" source="sdz9tkhJuqu5VGt_nIdk-4" target="D23xmBbHzTduev8_v_9T-10" edge="1">
          <mxGeometry width="50" height="50" relative="1" as="geometry">
            <mxPoint x="460" y="400" as="sourcePoint" />
            <mxPoint x="510" y="350" as="targetPoint" />
          </mxGeometry>
        </mxCell>
        <mxCell id="sdz9tkhJuqu5VGt_nIdk-10" value="" style="endArrow=none;html=1;rounded=0;exitX=0.5;exitY=0;exitDx=0;exitDy=0;exitPerimeter=0;entryX=0.5;entryY=1;entryDx=0;entryDy=0;entryPerimeter=0;strokeColor=#3333FF;" parent="x18zJ_VZjueD5NWy3okX-1" source="sdz9tkhJuqu5VGt_nIdk-4" target="D23xmBbHzTduev8_v_9T-9" edge="1">
          <mxGeometry width="50" height="50" relative="1" as="geometry">
            <mxPoint x="460" y="400" as="sourcePoint" />
            <mxPoint x="510" y="350" as="targetPoint" />
          </mxGeometry>
        </mxCell>
        <mxCell id="sdz9tkhJuqu5VGt_nIdk-11" value="" style="endArrow=none;html=1;rounded=0;entryX=0.5;entryY=1;entryDx=0;entryDy=0;entryPerimeter=0;exitX=0.446;exitY=0.012;exitDx=0;exitDy=0;exitPerimeter=0;strokeColor=#3333FF;" parent="x18zJ_VZjueD5NWy3okX-1" source="sdz9tkhJuqu5VGt_nIdk-5" target="D23xmBbHzTduev8_v_9T-10" edge="1">
          <mxGeometry width="50" height="50" relative="1" as="geometry">
            <mxPoint x="460" y="400" as="sourcePoint" />
            <mxPoint x="510" y="350" as="targetPoint" />
          </mxGeometry>
        </mxCell>
        <mxCell id="sdz9tkhJuqu5VGt_nIdk-12" value="" style="endArrow=none;html=1;rounded=0;entryX=0.5;entryY=1;entryDx=0;entryDy=0;entryPerimeter=0;exitX=0.5;exitY=0;exitDx=0;exitDy=0;exitPerimeter=0;strokeColor=#3333FF;" parent="x18zJ_VZjueD5NWy3okX-1" source="sdz9tkhJuqu5VGt_nIdk-5" target="D23xmBbHzTduev8_v_9T-9" edge="1">
          <mxGeometry width="50" height="50" relative="1" as="geometry">
            <mxPoint x="460" y="400" as="sourcePoint" />
            <mxPoint x="510" y="350" as="targetPoint" />
          </mxGeometry>
        </mxCell>
        <mxCell id="sdz9tkhJuqu5VGt_nIdk-13" value="" style="endArrow=none;html=1;rounded=0;exitX=0.453;exitY=0.005;exitDx=0;exitDy=0;exitPerimeter=0;entryX=0.5;entryY=1;entryDx=0;entryDy=0;entryPerimeter=0;strokeColor=#3333FF;" parent="x18zJ_VZjueD5NWy3okX-1" source="sdz9tkhJuqu5VGt_nIdk-6" target="D23xmBbHzTduev8_v_9T-10" edge="1">
          <mxGeometry width="50" height="50" relative="1" as="geometry">
            <mxPoint x="570" y="403" as="sourcePoint" />
            <mxPoint x="620" y="353" as="targetPoint" />
          </mxGeometry>
        </mxCell>
        <mxCell id="sdz9tkhJuqu5VGt_nIdk-14" value="" style="endArrow=none;html=1;rounded=0;exitX=0.422;exitY=-0.011;exitDx=0;exitDy=0;exitPerimeter=0;entryX=0.5;entryY=1;entryDx=0;entryDy=0;entryPerimeter=0;strokeColor=#3333FF;" parent="x18zJ_VZjueD5NWy3okX-1" source="sdz9tkhJuqu5VGt_nIdk-6" target="D23xmBbHzTduev8_v_9T-9" edge="1">
          <mxGeometry width="50" height="50" relative="1" as="geometry">
            <mxPoint x="560" y="415" as="sourcePoint" />
            <mxPoint x="610" y="365" as="targetPoint" />
          </mxGeometry>
        </mxCell>
        <mxCell id="sdz9tkhJuqu5VGt_nIdk-15" value="Data Center" style="text;html=1;align=left;verticalAlign=middle;resizable=0;points=[];autosize=1;strokeColor=none;fillColor=none;" parent="x18zJ_VZjueD5NWy3okX-1" vertex="1">
          <mxGeometry x="480" y="460" width="80" height="20" as="geometry" />
        </mxCell>
        <mxCell id="sdz9tkhJuqu5VGt_nIdk-16" value="" style="sketch=0;aspect=fixed;pointerEvents=1;shadow=0;dashed=0;html=1;strokeColor=none;labelPosition=center;verticalLabelPosition=bottom;verticalAlign=top;align=center;fillColor=#00188D;shape=mxgraph.mscae.enterprise.firewall" parent="x18zJ_VZjueD5NWy3okX-1" vertex="1">
          <mxGeometry x="668.53" y="381" width="32.95" height="29" as="geometry" />
        </mxCell>
        <mxCell id="sdz9tkhJuqu5VGt_nIdk-17" value="" style="sketch=0;aspect=fixed;pointerEvents=1;shadow=0;dashed=0;html=1;strokeColor=none;labelPosition=center;verticalLabelPosition=bottom;verticalAlign=top;align=center;fillColor=#00188D;shape=mxgraph.mscae.enterprise.firewall" parent="x18zJ_VZjueD5NWy3okX-1" vertex="1">
          <mxGeometry x="758.53" y="381" width="32.95" height="29" as="geometry" />
        </mxCell>
        <mxCell id="sdz9tkhJuqu5VGt_nIdk-18" value="" style="endArrow=none;html=1;rounded=0;exitX=0.5;exitY=0;exitDx=0;exitDy=0;exitPerimeter=0;" parent="x18zJ_VZjueD5NWy3okX-1" source="sdz9tkhJuqu5VGt_nIdk-16" target="D23xmBbHzTduev8_v_9T-12" edge="1">
          <mxGeometry width="50" height="50" relative="1" as="geometry">
            <mxPoint x="670" y="400" as="sourcePoint" />
            <mxPoint x="720" y="350" as="targetPoint" />
          </mxGeometry>
        </mxCell>
        <mxCell id="sdz9tkhJuqu5VGt_nIdk-19" value="" style="endArrow=none;html=1;rounded=0;entryX=0.5;entryY=1;entryDx=0;entryDy=0;entryPerimeter=0;exitX=0.5;exitY=0;exitDx=0;exitDy=0;exitPerimeter=0;" parent="x18zJ_VZjueD5NWy3okX-1" source="sdz9tkhJuqu5VGt_nIdk-17" target="D23xmBbHzTduev8_v_9T-11" edge="1">
          <mxGeometry width="50" height="50" relative="1" as="geometry">
            <mxPoint x="775" y="380" as="sourcePoint" />
            <mxPoint x="774.8928294573643" y="363" as="targetPoint" />
          </mxGeometry>
        </mxCell>
        <mxCell id="sdz9tkhJuqu5VGt_nIdk-20" value="" style="endArrow=none;html=1;rounded=0;exitX=0.5;exitY=0;exitDx=0;exitDy=0;exitPerimeter=0;entryX=0.015;entryY=0.985;entryDx=0;entryDy=0;entryPerimeter=0;" parent="x18zJ_VZjueD5NWy3okX-1" source="sdz9tkhJuqu5VGt_nIdk-16" target="D23xmBbHzTduev8_v_9T-11" edge="1">
          <mxGeometry width="50" height="50" relative="1" as="geometry">
            <mxPoint x="670" y="400" as="sourcePoint" />
            <mxPoint x="720" y="350" as="targetPoint" />
          </mxGeometry>
        </mxCell>
        <mxCell id="sdz9tkhJuqu5VGt_nIdk-21" value="" style="endArrow=none;html=1;rounded=0;entryX=0.985;entryY=0.985;entryDx=0;entryDy=0;entryPerimeter=0;exitX=0.5;exitY=0;exitDx=0;exitDy=0;exitPerimeter=0;" parent="x18zJ_VZjueD5NWy3okX-1" source="sdz9tkhJuqu5VGt_nIdk-17" target="D23xmBbHzTduev8_v_9T-12" edge="1">
          <mxGeometry width="50" height="50" relative="1" as="geometry">
            <mxPoint x="670" y="400" as="sourcePoint" />
            <mxPoint x="720" y="350" as="targetPoint" />
          </mxGeometry>
        </mxCell>
        <mxCell id="sdz9tkhJuqu5VGt_nIdk-22" value="" style="points=[[0.5,0,0],[1,0.5,0],[0.5,1,0],[0,0.5,0],[0.145,0.145,0],[0.8555,0.145,0],[0.855,0.8555,0],[0.145,0.855,0]];verticalLabelPosition=middle;html=1;verticalAlign=middle;aspect=fixed;align=right;pointerEvents=1;shape=mxgraph.cisco19.rect;prIcon=router;fillColor=#FAFAFA;strokeColor=#005073;labelBackgroundColor=#ffffff;fontSize=11;labelPosition=left;" parent="x18zJ_VZjueD5NWy3okX-1" vertex="1">
          <mxGeometry x="670" y="425" width="30" height="30" as="geometry" />
        </mxCell>
        <mxCell id="sdz9tkhJuqu5VGt_nIdk-23" value="" style="points=[[0.5,0,0],[1,0.5,0],[0.5,1,0],[0,0.5,0],[0.145,0.145,0],[0.8555,0.145,0],[0.855,0.8555,0],[0.145,0.855,0]];verticalLabelPosition=middle;html=1;verticalAlign=middle;aspect=fixed;align=right;pointerEvents=1;shape=mxgraph.cisco19.rect;prIcon=router;fillColor=#FAFAFA;strokeColor=#005073;labelBackgroundColor=#ffffff;fontSize=11;labelPosition=left;" parent="x18zJ_VZjueD5NWy3okX-1" vertex="1">
          <mxGeometry x="760" y="425" width="30" height="30" as="geometry" />
        </mxCell>
        <mxCell id="sdz9tkhJuqu5VGt_nIdk-24" value="Internet" style="ellipse;shape=cloud;whiteSpace=wrap;html=1;align=center;" parent="x18zJ_VZjueD5NWy3okX-1" vertex="1">
          <mxGeometry x="650" y="450" width="160" height="80" as="geometry" />
        </mxCell>
        <mxCell id="sdz9tkhJuqu5VGt_nIdk-25" style="edgeStyle=none;rounded=0;orthogonalLoop=1;jettySize=auto;html=1;endArrow=none;endFill=0;exitX=0.219;exitY=0.273;exitDx=0;exitDy=0;exitPerimeter=0;entryX=0.5;entryY=1;entryDx=0;entryDy=0;entryPerimeter=0;" parent="x18zJ_VZjueD5NWy3okX-1" source="sdz9tkhJuqu5VGt_nIdk-24" target="sdz9tkhJuqu5VGt_nIdk-22" edge="1">
          <mxGeometry relative="1" as="geometry">
            <mxPoint x="684.8" y="487" as="sourcePoint" />
            <mxPoint x="685" y="470" as="targetPoint" />
          </mxGeometry>
        </mxCell>
        <mxCell id="sdz9tkhJuqu5VGt_nIdk-26" style="edgeStyle=none;rounded=0;orthogonalLoop=1;jettySize=auto;html=1;endArrow=none;endFill=0;entryX=0.5;entryY=1;entryDx=0;entryDy=0;entryPerimeter=0;exitX=0.781;exitY=0.188;exitDx=0;exitDy=0;exitPerimeter=0;" parent="x18zJ_VZjueD5NWy3okX-1" source="sdz9tkhJuqu5VGt_nIdk-24" target="sdz9tkhJuqu5VGt_nIdk-23" edge="1">
          <mxGeometry relative="1" as="geometry">
            <mxPoint x="775" y="489" as="sourcePoint" />
            <mxPoint x="774.8" y="465" as="targetPoint" />
          </mxGeometry>
        </mxCell>
        <mxCell id="sdz9tkhJuqu5VGt_nIdk-27" value="" style="endArrow=none;html=1;rounded=0;entryX=0.5;entryY=1;entryDx=0;entryDy=0;entryPerimeter=0;exitX=0.5;exitY=0;exitDx=0;exitDy=0;exitPerimeter=0;" parent="x18zJ_VZjueD5NWy3okX-1" source="sdz9tkhJuqu5VGt_nIdk-22" target="sdz9tkhJuqu5VGt_nIdk-16" edge="1">
          <mxGeometry width="50" height="50" relative="1" as="geometry">
            <mxPoint x="650" y="510" as="sourcePoint" />
            <mxPoint x="700" y="460" as="targetPoint" />
          </mxGeometry>
        </mxCell>
        <mxCell id="sdz9tkhJuqu5VGt_nIdk-28" value="" style="endArrow=none;html=1;rounded=0;exitX=0.5;exitY=0;exitDx=0;exitDy=0;exitPerimeter=0;entryX=0.5;entryY=1;entryDx=0;entryDy=0;entryPerimeter=0;" parent="x18zJ_VZjueD5NWy3okX-1" source="sdz9tkhJuqu5VGt_nIdk-23" target="sdz9tkhJuqu5VGt_nIdk-17" edge="1">
          <mxGeometry width="50" height="50" relative="1" as="geometry">
            <mxPoint x="650" y="510" as="sourcePoint" />
            <mxPoint x="700" y="460" as="targetPoint" />
          </mxGeometry>
        </mxCell>
        <mxCell id="_zGCr0RM0d6npQUuKAai-2" value="" style="endArrow=none;html=1;rounded=0;entryX=0.5;entryY=1;entryDx=0;entryDy=0;entryPerimeter=0;strokeColor=#3333FF;" parent="x18zJ_VZjueD5NWy3okX-1" edge="1">
          <mxGeometry width="50" height="50" relative="1" as="geometry">
            <mxPoint x="900" y="489.66" as="sourcePoint" />
            <mxPoint x="846.1700000000001" y="489.6599999999999" as="targetPoint" />
          </mxGeometry>
        </mxCell>
        <mxCell id="_zGCr0RM0d6npQUuKAai-3" value="" style="endArrow=none;html=1;rounded=0;entryX=0.5;entryY=1;entryDx=0;entryDy=0;entryPerimeter=0;strokeColor=#000000;" parent="x18zJ_VZjueD5NWy3okX-1" edge="1">
          <mxGeometry width="50" height="50" relative="1" as="geometry">
            <mxPoint x="900" y="460.0000000000001" as="sourcePoint" />
            <mxPoint x="846.1700000000001" y="459.9999999999999" as="targetPoint" />
          </mxGeometry>
        </mxCell>
        <mxCell id="_zGCr0RM0d6npQUuKAai-4" value="Layer 3 Link" style="text;html=1;align=left;verticalAlign=middle;resizable=0;points=[];autosize=1;strokeColor=none;fillColor=none;" parent="x18zJ_VZjueD5NWy3okX-1" vertex="1">
          <mxGeometry x="910" y="450" width="80" height="20" as="geometry" />
        </mxCell>
        <mxCell id="_zGCr0RM0d6npQUuKAai-5" value="Layer 2 Link" style="text;html=1;align=left;verticalAlign=middle;resizable=0;points=[];autosize=1;strokeColor=none;fillColor=none;" parent="x18zJ_VZjueD5NWy3okX-1" vertex="1">
          <mxGeometry x="910" y="480" width="80" height="20" as="geometry" />
        </mxCell>
      </root>
    </mxGraphModel>
  </diagram>
  <diagram id="1OIcNsjnEkgpFIswPeiG" name="HLD">
    <mxGraphModel dx="1333" dy="747" grid="1" gridSize="10" guides="1" tooltips="1" connect="1" arrows="1" fold="1" page="1" pageScale="1" pageWidth="1100" pageHeight="850" math="0" shadow="0">
      <root>
        <mxCell id="xHltKHDQQMA4LhJhDFyi-0" />
        <mxCell id="xHltKHDQQMA4LhJhDFyi-1" parent="xHltKHDQQMA4LhJhDFyi-0" />
        <mxCell id="ciRMRofvkb1VKixp0p3v-61" value="Internet/Extranet Block" style="rounded=0;whiteSpace=wrap;html=1;align=left;verticalAlign=top;strokeColor=#B0B0B0;strokeWidth=4;" parent="xHltKHDQQMA4LhJhDFyi-1" vertex="1">
          <mxGeometry x="60" y="60" width="190" height="350" as="geometry" />
        </mxCell>
        <mxCell id="xHltKHDQQMA4LhJhDFyi-7" value="User Access Block" style="rounded=0;whiteSpace=wrap;html=1;align=right;verticalAlign=top;strokeColor=#B0B0B0;strokeWidth=4;" parent="xHltKHDQQMA4LhJhDFyi-1" vertex="1">
          <mxGeometry x="320" y="440" width="350" height="240" as="geometry" />
        </mxCell>
        <mxCell id="xHltKHDQQMA4LhJhDFyi-6" value="Core Block" style="rounded=0;whiteSpace=wrap;html=1;align=right;verticalAlign=top;strokeWidth=4;strokeColor=#B0B0B0;" parent="xHltKHDQQMA4LhJhDFyi-1" vertex="1">
          <mxGeometry x="320" y="260" width="350" height="140" as="geometry" />
        </mxCell>
        <mxCell id="xHltKHDQQMA4LhJhDFyi-15" value="WAN Block" style="rounded=0;whiteSpace=wrap;html=1;align=left;verticalAlign=top;strokeColor=#B0B0B0;strokeWidth=4;" parent="xHltKHDQQMA4LhJhDFyi-1" vertex="1">
          <mxGeometry x="60" y="440" width="190" height="240" as="geometry" />
        </mxCell>
        <mxCell id="xHltKHDQQMA4LhJhDFyi-18" value="" style="edgeStyle=none;rounded=0;orthogonalLoop=1;jettySize=auto;html=1;endArrow=none;endFill=0;" parent="xHltKHDQQMA4LhJhDFyi-1" source="xHltKHDQQMA4LhJhDFyi-17" target="xHltKHDQQMA4LhJhDFyi-16" edge="1">
          <mxGeometry relative="1" as="geometry" />
        </mxCell>
        <mxCell id="ciRMRofvkb1VKixp0p3v-12" style="edgeStyle=none;rounded=0;orthogonalLoop=1;jettySize=auto;html=1;entryX=0.5;entryY=0;entryDx=0;entryDy=0;entryPerimeter=0;endArrow=none;endFill=0;" parent="xHltKHDQQMA4LhJhDFyi-1" source="xHltKHDQQMA4LhJhDFyi-19" target="ciRMRofvkb1VKixp0p3v-10" edge="1">
          <mxGeometry relative="1" as="geometry" />
        </mxCell>
        <mxCell id="ciRMRofvkb1VKixp0p3v-14" style="edgeStyle=none;rounded=0;orthogonalLoop=1;jettySize=auto;html=1;entryX=0.5;entryY=0;entryDx=0;entryDy=0;entryPerimeter=0;endArrow=none;endFill=0;exitX=0.5;exitY=1;exitDx=0;exitDy=0;exitPerimeter=0;" parent="xHltKHDQQMA4LhJhDFyi-1" source="xHltKHDQQMA4LhJhDFyi-19" target="ciRMRofvkb1VKixp0p3v-9" edge="1">
          <mxGeometry relative="1" as="geometry" />
        </mxCell>
        <mxCell id="xHltKHDQQMA4LhJhDFyi-20" value="" style="rounded=0;orthogonalLoop=1;jettySize=auto;html=1;endArrow=none;endFill=0;exitX=0.98;exitY=0.65;exitDx=0;exitDy=0;exitPerimeter=0;entryX=0.01;entryY=0.658;entryDx=0;entryDy=0;entryPerimeter=0;" parent="xHltKHDQQMA4LhJhDFyi-1" source="xHltKHDQQMA4LhJhDFyi-21" target="xHltKHDQQMA4LhJhDFyi-19" edge="1">
          <mxGeometry relative="1" as="geometry" />
        </mxCell>
        <mxCell id="ciRMRofvkb1VKixp0p3v-11" style="edgeStyle=none;rounded=0;orthogonalLoop=1;jettySize=auto;html=1;entryX=0.5;entryY=0;entryDx=0;entryDy=0;entryPerimeter=0;endArrow=none;endFill=0;" parent="xHltKHDQQMA4LhJhDFyi-1" source="xHltKHDQQMA4LhJhDFyi-21" target="ciRMRofvkb1VKixp0p3v-9" edge="1">
          <mxGeometry relative="1" as="geometry" />
        </mxCell>
        <mxCell id="ciRMRofvkb1VKixp0p3v-13" style="edgeStyle=none;rounded=0;orthogonalLoop=1;jettySize=auto;html=1;entryX=0.5;entryY=0;entryDx=0;entryDy=0;entryPerimeter=0;endArrow=none;endFill=0;exitX=0.5;exitY=1;exitDx=0;exitDy=0;exitPerimeter=0;" parent="xHltKHDQQMA4LhJhDFyi-1" source="xHltKHDQQMA4LhJhDFyi-21" target="ciRMRofvkb1VKixp0p3v-10" edge="1">
          <mxGeometry relative="1" as="geometry" />
        </mxCell>
        <mxCell id="xHltKHDQQMA4LhJhDFyi-21" value="DC Wan S1" style="points=[[0.015,0.015,0],[0.985,0.015,0],[0.985,0.985,0],[0.015,0.985,0],[0.25,0,0],[0.5,0,0],[0.75,0,0],[1,0.25,0],[1,0.5,0],[1,0.75,0],[0.75,1,0],[0.5,1,0],[0.25,1,0],[0,0.75,0],[0,0.5,0],[0,0.25,0]];verticalLabelPosition=middle;html=1;verticalAlign=middle;aspect=fixed;align=center;pointerEvents=1;shape=mxgraph.cisco19.rect;prIcon=l3_modular;fillColor=#FAFAFA;strokeColor=#005073;labelPosition=center;labelBackgroundColor=#B0B0B0;" parent="xHltKHDQQMA4LhJhDFyi-1" vertex="1">
          <mxGeometry x="95" y="473.5" width="50" height="73" as="geometry" />
        </mxCell>
        <mxCell id="xHltKHDQQMA4LhJhDFyi-28" value="" style="edgeStyle=none;rounded=0;orthogonalLoop=1;jettySize=auto;html=1;endArrow=none;endFill=0;" parent="xHltKHDQQMA4LhJhDFyi-1" source="xHltKHDQQMA4LhJhDFyi-26" target="xHltKHDQQMA4LhJhDFyi-17" edge="1">
          <mxGeometry relative="1" as="geometry" />
        </mxCell>
        <mxCell id="ciRMRofvkb1VKixp0p3v-2" style="edgeStyle=none;rounded=0;orthogonalLoop=1;jettySize=auto;html=1;entryX=0.5;entryY=0;entryDx=0;entryDy=0;entryPerimeter=0;endArrow=none;endFill=0;exitX=0.5;exitY=1;exitDx=0;exitDy=0;exitPerimeter=0;fillColor=#0050ef;strokeColor=#001DBC;" parent="xHltKHDQQMA4LhJhDFyi-1" source="xHltKHDQQMA4LhJhDFyi-26" target="xHltKHDQQMA4LhJhDFyi-33" edge="1">
          <mxGeometry relative="1" as="geometry" />
        </mxCell>
        <mxCell id="ciRMRofvkb1VKixp0p3v-4" style="edgeStyle=none;rounded=0;orthogonalLoop=1;jettySize=auto;html=1;entryX=0.5;entryY=0;entryDx=0;entryDy=0;entryPerimeter=0;endArrow=none;endFill=0;exitX=0.5;exitY=1;exitDx=0;exitDy=0;exitPerimeter=0;fillColor=#0050ef;strokeColor=#001DBC;" parent="xHltKHDQQMA4LhJhDFyi-1" source="xHltKHDQQMA4LhJhDFyi-26" target="xHltKHDQQMA4LhJhDFyi-34" edge="1">
          <mxGeometry relative="1" as="geometry" />
        </mxCell>
        <mxCell id="xHltKHDQQMA4LhJhDFyi-29" value="" style="edgeStyle=none;rounded=0;orthogonalLoop=1;jettySize=auto;html=1;endArrow=none;endFill=0;" parent="xHltKHDQQMA4LhJhDFyi-1" source="xHltKHDQQMA4LhJhDFyi-27" target="xHltKHDQQMA4LhJhDFyi-16" edge="1">
          <mxGeometry relative="1" as="geometry" />
        </mxCell>
        <mxCell id="xHltKHDQQMA4LhJhDFyi-30" value="" style="endArrow=none;html=1;entryX=0.5;entryY=1;entryDx=0;entryDy=0;entryPerimeter=0;exitX=0.5;exitY=0;exitDx=0;exitDy=0;exitPerimeter=0;" parent="xHltKHDQQMA4LhJhDFyi-1" source="xHltKHDQQMA4LhJhDFyi-27" target="xHltKHDQQMA4LhJhDFyi-17" edge="1">
          <mxGeometry width="50" height="50" relative="1" as="geometry">
            <mxPoint x="330" y="440" as="sourcePoint" />
            <mxPoint x="380" y="390" as="targetPoint" />
          </mxGeometry>
        </mxCell>
        <mxCell id="ciRMRofvkb1VKixp0p3v-6" style="edgeStyle=none;rounded=0;orthogonalLoop=1;jettySize=auto;html=1;entryX=0.5;entryY=0;entryDx=0;entryDy=0;entryPerimeter=0;endArrow=none;endFill=0;exitX=0.5;exitY=1;exitDx=0;exitDy=0;exitPerimeter=0;fillColor=#0050ef;strokeColor=#001DBC;" parent="xHltKHDQQMA4LhJhDFyi-1" source="xHltKHDQQMA4LhJhDFyi-27" target="xHltKHDQQMA4LhJhDFyi-35" edge="1">
          <mxGeometry relative="1" as="geometry" />
        </mxCell>
        <mxCell id="xHltKHDQQMA4LhJhDFyi-17" value="DC Core 1" style="points=[[0.015,0.015,0],[0.985,0.015,0],[0.985,0.985,0],[0.015,0.985,0],[0.25,0,0],[0.5,0,0],[0.75,0,0],[1,0.25,0],[1,0.5,0],[1,0.75,0],[0.75,1,0],[0.5,1,0],[0.25,1,0],[0,0.75,0],[0,0.5,0],[0,0.25,0]];verticalLabelPosition=middle;html=1;verticalAlign=middle;aspect=fixed;align=center;pointerEvents=1;shape=mxgraph.cisco19.rect;prIcon=l3_modular;fillColor=#FAFAFA;strokeColor=#005073;labelPosition=center;labelBackgroundColor=#B0B0B0;" parent="xHltKHDQQMA4LhJhDFyi-1" vertex="1">
          <mxGeometry x="385" y="293.5" width="50" height="73" as="geometry" />
        </mxCell>
        <mxCell id="xHltKHDQQMA4LhJhDFyi-31" value="" style="endArrow=none;html=1;exitX=0.499;exitY=-0.004;exitDx=0;exitDy=0;exitPerimeter=0;entryX=0.5;entryY=1;entryDx=0;entryDy=0;entryPerimeter=0;" parent="xHltKHDQQMA4LhJhDFyi-1" source="xHltKHDQQMA4LhJhDFyi-26" target="xHltKHDQQMA4LhJhDFyi-16" edge="1">
          <mxGeometry width="50" height="50" relative="1" as="geometry">
            <mxPoint x="440" y="450" as="sourcePoint" />
            <mxPoint x="480" y="410" as="targetPoint" />
          </mxGeometry>
        </mxCell>
        <mxCell id="xHltKHDQQMA4LhJhDFyi-16" value="DC Core 2" style="points=[[0.015,0.015,0],[0.985,0.015,0],[0.985,0.985,0],[0.015,0.985,0],[0.25,0,0],[0.5,0,0],[0.75,0,0],[1,0.25,0],[1,0.5,0],[1,0.75,0],[0.75,1,0],[0.5,1,0],[0.25,1,0],[0,0.75,0],[0,0.5,0],[0,0.25,0]];verticalLabelPosition=middle;html=1;verticalAlign=middle;aspect=fixed;align=center;pointerEvents=1;shape=mxgraph.cisco19.rect;prIcon=l3_modular;fillColor=#FAFAFA;strokeColor=#005073;labelPosition=center;labelBackgroundColor=#B0B0B0;" parent="xHltKHDQQMA4LhJhDFyi-1" vertex="1">
          <mxGeometry x="510" y="293.5" width="50" height="73" as="geometry" />
        </mxCell>
        <mxCell id="ciRMRofvkb1VKixp0p3v-0" style="edgeStyle=none;rounded=0;orthogonalLoop=1;jettySize=auto;html=1;exitX=0.5;exitY=0;exitDx=0;exitDy=0;exitPerimeter=0;entryX=0.5;entryY=1;entryDx=0;entryDy=0;entryPerimeter=0;endArrow=none;endFill=0;fillColor=#0050ef;strokeColor=#001DBC;" parent="xHltKHDQQMA4LhJhDFyi-1" source="xHltKHDQQMA4LhJhDFyi-32" target="xHltKHDQQMA4LhJhDFyi-26" edge="1">
          <mxGeometry relative="1" as="geometry" />
        </mxCell>
        <mxCell id="ciRMRofvkb1VKixp0p3v-1" style="edgeStyle=none;rounded=0;orthogonalLoop=1;jettySize=auto;html=1;entryX=0.5;entryY=1;entryDx=0;entryDy=0;entryPerimeter=0;endArrow=none;endFill=0;exitX=0.5;exitY=0;exitDx=0;exitDy=0;exitPerimeter=0;fillColor=#0050ef;strokeColor=#001DBC;" parent="xHltKHDQQMA4LhJhDFyi-1" source="xHltKHDQQMA4LhJhDFyi-32" target="xHltKHDQQMA4LhJhDFyi-27" edge="1">
          <mxGeometry relative="1" as="geometry" />
        </mxCell>
        <mxCell id="ciRMRofvkb1VKixp0p3v-3" style="edgeStyle=none;rounded=0;orthogonalLoop=1;jettySize=auto;html=1;endArrow=none;endFill=0;entryX=0.491;entryY=1;entryDx=0;entryDy=0;entryPerimeter=0;exitX=0.5;exitY=0;exitDx=0;exitDy=0;exitPerimeter=0;fillColor=#0050ef;strokeColor=#001DBC;" parent="xHltKHDQQMA4LhJhDFyi-1" source="xHltKHDQQMA4LhJhDFyi-33" target="xHltKHDQQMA4LhJhDFyi-27" edge="1">
          <mxGeometry relative="1" as="geometry">
            <mxPoint x="530" y="550" as="targetPoint" />
          </mxGeometry>
        </mxCell>
        <mxCell id="ciRMRofvkb1VKixp0p3v-5" style="edgeStyle=none;rounded=0;orthogonalLoop=1;jettySize=auto;html=1;entryX=0.5;entryY=1;entryDx=0;entryDy=0;entryPerimeter=0;endArrow=none;endFill=0;exitX=0.5;exitY=0;exitDx=0;exitDy=0;exitPerimeter=0;fillColor=#0050ef;strokeColor=#001DBC;" parent="xHltKHDQQMA4LhJhDFyi-1" source="xHltKHDQQMA4LhJhDFyi-34" target="xHltKHDQQMA4LhJhDFyi-27" edge="1">
          <mxGeometry relative="1" as="geometry" />
        </mxCell>
        <mxCell id="ciRMRofvkb1VKixp0p3v-7" style="edgeStyle=none;rounded=0;orthogonalLoop=1;jettySize=auto;html=1;entryX=0.5;entryY=1;entryDx=0;entryDy=0;entryPerimeter=0;endArrow=none;endFill=0;exitX=0.5;exitY=0;exitDx=0;exitDy=0;exitPerimeter=0;fillColor=#0050ef;strokeColor=#001DBC;" parent="xHltKHDQQMA4LhJhDFyi-1" source="xHltKHDQQMA4LhJhDFyi-35" target="xHltKHDQQMA4LhJhDFyi-26" edge="1">
          <mxGeometry relative="1" as="geometry" />
        </mxCell>
        <mxCell id="xHltKHDQQMA4LhJhDFyi-27" value="DC Dist 2" style="points=[[0.015,0.015,0],[0.985,0.015,0],[0.985,0.985,0],[0.015,0.985,0],[0.25,0,0],[0.5,0,0],[0.75,0,0],[1,0.25,0],[1,0.5,0],[1,0.75,0],[0.75,1,0],[0.5,1,0],[0.25,1,0],[0,0.75,0],[0,0.5,0],[0,0.25,0]];verticalLabelPosition=middle;html=1;verticalAlign=middle;aspect=fixed;align=center;pointerEvents=1;shape=mxgraph.cisco19.rect;prIcon=l3_modular;fillColor=#FAFAFA;strokeColor=#005073;labelPosition=center;labelBackgroundColor=#B0B0B0;" parent="xHltKHDQQMA4LhJhDFyi-1" vertex="1">
          <mxGeometry x="510" y="473.5" width="50" height="73" as="geometry" />
        </mxCell>
        <mxCell id="xHltKHDQQMA4LhJhDFyi-35" value="" style="points=[[0.015,0.015,0],[0.985,0.015,0],[0.985,0.985,0],[0.015,0.985,0],[0.25,0,0],[0.5,0,0],[0.75,0,0],[1,0.25,0],[1,0.5,0],[1,0.75,0],[0.75,1,0],[0.5,1,0],[0.25,1,0],[0,0.75,0],[0,0.5,0],[0,0.25,0]];verticalLabelPosition=bottom;html=1;verticalAlign=top;aspect=fixed;align=center;pointerEvents=1;shape=mxgraph.cisco19.rect;prIcon=workgroup_switch;fillColor=#FAFAFA;strokeColor=#6696AB;labelBackgroundColor=#B0B0B0;" parent="xHltKHDQQMA4LhJhDFyi-1" vertex="1">
          <mxGeometry x="580" y="590" width="50" height="50" as="geometry" />
        </mxCell>
        <mxCell id="xHltKHDQQMA4LhJhDFyi-34" value="" style="points=[[0.015,0.015,0],[0.985,0.015,0],[0.985,0.985,0],[0.015,0.985,0],[0.25,0,0],[0.5,0,0],[0.75,0,0],[1,0.25,0],[1,0.5,0],[1,0.75,0],[0.75,1,0],[0.5,1,0],[0.25,1,0],[0,0.75,0],[0,0.5,0],[0,0.25,0]];verticalLabelPosition=bottom;html=1;verticalAlign=top;aspect=fixed;align=center;pointerEvents=1;shape=mxgraph.cisco19.rect;prIcon=workgroup_switch;fillColor=#FAFAFA;strokeColor=#6696AB;labelBackgroundColor=#B0B0B0;" parent="xHltKHDQQMA4LhJhDFyi-1" vertex="1">
          <mxGeometry x="497" y="590" width="50" height="50" as="geometry" />
        </mxCell>
        <mxCell id="xHltKHDQQMA4LhJhDFyi-33" value="" style="points=[[0.015,0.015,0],[0.985,0.015,0],[0.985,0.985,0],[0.015,0.985,0],[0.25,0,0],[0.5,0,0],[0.75,0,0],[1,0.25,0],[1,0.5,0],[1,0.75,0],[0.75,1,0],[0.5,1,0],[0.25,1,0],[0,0.75,0],[0,0.5,0],[0,0.25,0]];verticalLabelPosition=bottom;html=1;verticalAlign=top;aspect=fixed;align=center;pointerEvents=1;shape=mxgraph.cisco19.rect;prIcon=workgroup_switch;fillColor=#FAFAFA;strokeColor=#6696AB;labelBackgroundColor=#B0B0B0;" parent="xHltKHDQQMA4LhJhDFyi-1" vertex="1">
          <mxGeometry x="413" y="590" width="50" height="50" as="geometry" />
        </mxCell>
        <mxCell id="ciRMRofvkb1VKixp0p3v-8" style="edgeStyle=none;rounded=0;orthogonalLoop=1;jettySize=auto;html=1;entryX=0.007;entryY=0.675;entryDx=0;entryDy=0;entryPerimeter=0;endArrow=none;endFill=0;exitX=0.991;exitY=0.671;exitDx=0;exitDy=0;exitPerimeter=0;fillColor=#0050ef;strokeColor=#001DBC;" parent="xHltKHDQQMA4LhJhDFyi-1" source="xHltKHDQQMA4LhJhDFyi-26" target="xHltKHDQQMA4LhJhDFyi-27" edge="1">
          <mxGeometry relative="1" as="geometry" />
        </mxCell>
        <mxCell id="xHltKHDQQMA4LhJhDFyi-26" value="DC Dist 1" style="points=[[0.015,0.015,0],[0.985,0.015,0],[0.985,0.985,0],[0.015,0.985,0],[0.25,0,0],[0.5,0,0],[0.75,0,0],[1,0.25,0],[1,0.5,0],[1,0.75,0],[0.75,1,0],[0.5,1,0],[0.25,1,0],[0,0.75,0],[0,0.5,0],[0,0.25,0]];verticalLabelPosition=middle;html=1;verticalAlign=middle;aspect=fixed;align=center;pointerEvents=1;shape=mxgraph.cisco19.rect;prIcon=l3_modular;fillColor=#FAFAFA;strokeColor=#005073;labelPosition=center;labelBackgroundColor=#B0B0B0;" parent="xHltKHDQQMA4LhJhDFyi-1" vertex="1">
          <mxGeometry x="385" y="473.5" width="50" height="73" as="geometry" />
        </mxCell>
        <mxCell id="xHltKHDQQMA4LhJhDFyi-32" value="" style="points=[[0.015,0.015,0],[0.985,0.015,0],[0.985,0.985,0],[0.015,0.985,0],[0.25,0,0],[0.5,0,0],[0.75,0,0],[1,0.25,0],[1,0.5,0],[1,0.75,0],[0.75,1,0],[0.5,1,0],[0.25,1,0],[0,0.75,0],[0,0.5,0],[0,0.25,0]];verticalLabelPosition=bottom;html=1;verticalAlign=top;aspect=fixed;align=center;pointerEvents=1;shape=mxgraph.cisco19.rect;prIcon=workgroup_switch;fillColor=#FAFAFA;strokeColor=#6696AB;labelBackgroundColor=#B0B0B0;" parent="xHltKHDQQMA4LhJhDFyi-1" vertex="1">
          <mxGeometry x="330" y="590" width="50" height="50" as="geometry" />
        </mxCell>
        <mxCell id="ciRMRofvkb1VKixp0p3v-16" style="edgeStyle=none;rounded=0;orthogonalLoop=1;jettySize=auto;html=1;entryX=0.205;entryY=0.265;entryDx=0;entryDy=0;entryPerimeter=0;endArrow=none;endFill=0;" parent="xHltKHDQQMA4LhJhDFyi-1" source="ciRMRofvkb1VKixp0p3v-9" target="ciRMRofvkb1VKixp0p3v-15" edge="1">
          <mxGeometry relative="1" as="geometry" />
        </mxCell>
        <mxCell id="ciRMRofvkb1VKixp0p3v-9" value="" style="shape=mxgraph.cisco.routers.router;html=1;pointerEvents=1;dashed=0;fillColor=#036897;strokeColor=#ffffff;strokeWidth=2;verticalLabelPosition=bottom;verticalAlign=top;align=center;outlineConnect=0;labelBackgroundColor=#B0B0B0;" parent="xHltKHDQQMA4LhJhDFyi-1" vertex="1">
          <mxGeometry x="93" y="580" width="54" height="30" as="geometry" />
        </mxCell>
        <mxCell id="ciRMRofvkb1VKixp0p3v-17" style="edgeStyle=none;rounded=0;orthogonalLoop=1;jettySize=auto;html=1;entryX=0.88;entryY=0.25;entryDx=0;entryDy=0;entryPerimeter=0;endArrow=none;endFill=0;" parent="xHltKHDQQMA4LhJhDFyi-1" source="ciRMRofvkb1VKixp0p3v-10" target="ciRMRofvkb1VKixp0p3v-15" edge="1">
          <mxGeometry relative="1" as="geometry" />
        </mxCell>
        <mxCell id="ciRMRofvkb1VKixp0p3v-10" value="" style="shape=mxgraph.cisco.routers.router;html=1;pointerEvents=1;dashed=0;fillColor=#036897;strokeColor=#ffffff;strokeWidth=2;verticalLabelPosition=bottom;verticalAlign=top;align=center;outlineConnect=0;labelBackgroundColor=#B0B0B0;" parent="xHltKHDQQMA4LhJhDFyi-1" vertex="1">
          <mxGeometry x="173" y="580" width="54" height="30" as="geometry" />
        </mxCell>
        <mxCell id="ciRMRofvkb1VKixp0p3v-15" value="WAN" style="ellipse;shape=cloud;whiteSpace=wrap;html=1;labelBackgroundColor=#FFFFFF;strokeColor=#B0B0B0;strokeWidth=4;align=center;verticalAlign=top;" parent="xHltKHDQQMA4LhJhDFyi-1" vertex="1">
          <mxGeometry x="95" y="625" width="120" height="35" as="geometry" />
        </mxCell>
        <mxCell id="xHltKHDQQMA4LhJhDFyi-19" value="DC Wan S2" style="points=[[0.015,0.015,0],[0.985,0.015,0],[0.985,0.985,0],[0.015,0.985,0],[0.25,0,0],[0.5,0,0],[0.75,0,0],[1,0.25,0],[1,0.5,0],[1,0.75,0],[0.75,1,0],[0.5,1,0],[0.25,1,0],[0,0.75,0],[0,0.5,0],[0,0.25,0]];verticalLabelPosition=middle;html=1;verticalAlign=middle;aspect=fixed;align=center;pointerEvents=1;shape=mxgraph.cisco19.rect;prIcon=l3_modular;fillColor=#FAFAFA;strokeColor=#005073;labelPosition=center;labelBackgroundColor=#B0B0B0;" parent="xHltKHDQQMA4LhJhDFyi-1" vertex="1">
          <mxGeometry x="175" y="473.5" width="50" height="73" as="geometry" />
        </mxCell>
        <mxCell id="ciRMRofvkb1VKixp0p3v-20" style="edgeStyle=none;rounded=0;orthogonalLoop=1;jettySize=auto;html=1;entryX=0.5;entryY=0;entryDx=0;entryDy=0;entryPerimeter=0;endArrow=none;endFill=0;exitX=0.5;exitY=1;exitDx=0;exitDy=0;exitPerimeter=0;" parent="xHltKHDQQMA4LhJhDFyi-1" source="ciRMRofvkb1VKixp0p3v-30" target="ciRMRofvkb1VKixp0p3v-51" edge="1">
          <mxGeometry relative="1" as="geometry" />
        </mxCell>
        <mxCell id="ciRMRofvkb1VKixp0p3v-21" value="" style="rounded=0;orthogonalLoop=1;jettySize=auto;html=1;endArrow=none;endFill=0;exitX=0.98;exitY=0.65;exitDx=0;exitDy=0;exitPerimeter=0;entryX=0.01;entryY=0.658;entryDx=0;entryDy=0;entryPerimeter=0;" parent="xHltKHDQQMA4LhJhDFyi-1" source="ciRMRofvkb1VKixp0p3v-24" target="ciRMRofvkb1VKixp0p3v-30" edge="1">
          <mxGeometry relative="1" as="geometry" />
        </mxCell>
        <mxCell id="ciRMRofvkb1VKixp0p3v-22" style="edgeStyle=none;rounded=0;orthogonalLoop=1;jettySize=auto;html=1;entryX=0.5;entryY=0;entryDx=0;entryDy=0;entryPerimeter=0;endArrow=none;endFill=0;" parent="xHltKHDQQMA4LhJhDFyi-1" source="ciRMRofvkb1VKixp0p3v-24" target="ciRMRofvkb1VKixp0p3v-51" edge="1">
          <mxGeometry relative="1" as="geometry" />
        </mxCell>
        <mxCell id="ciRMRofvkb1VKixp0p3v-56" style="rounded=0;orthogonalLoop=1;jettySize=auto;html=1;entryX=0.5;entryY=0;entryDx=0;entryDy=0;entryPerimeter=0;endArrow=none;endFill=0;exitX=0.5;exitY=1;exitDx=0;exitDy=0;exitPerimeter=0;" parent="xHltKHDQQMA4LhJhDFyi-1" source="ciRMRofvkb1VKixp0p3v-24" target="ciRMRofvkb1VKixp0p3v-49" edge="1">
          <mxGeometry relative="1" as="geometry" />
        </mxCell>
        <mxCell id="ciRMRofvkb1VKixp0p3v-24" value="DC Inet S1" style="points=[[0.015,0.015,0],[0.985,0.015,0],[0.985,0.985,0],[0.015,0.985,0],[0.25,0,0],[0.5,0,0],[0.75,0,0],[1,0.25,0],[1,0.5,0],[1,0.75,0],[0.75,1,0],[0.5,1,0],[0.25,1,0],[0,0.75,0],[0,0.5,0],[0,0.25,0]];verticalLabelPosition=middle;html=1;verticalAlign=middle;aspect=fixed;align=center;pointerEvents=1;shape=mxgraph.cisco19.rect;prIcon=l3_modular;fillColor=#FAFAFA;strokeColor=#005073;labelPosition=center;labelBackgroundColor=#B0B0B0;" parent="xHltKHDQQMA4LhJhDFyi-1" vertex="1">
          <mxGeometry x="95" y="93.5" width="50" height="73" as="geometry" />
        </mxCell>
        <mxCell id="ciRMRofvkb1VKixp0p3v-57" value="" style="edgeStyle=none;rounded=0;orthogonalLoop=1;jettySize=auto;html=1;endArrow=none;endFill=0;" parent="xHltKHDQQMA4LhJhDFyi-1" source="ciRMRofvkb1VKixp0p3v-26" target="ciRMRofvkb1VKixp0p3v-51" edge="1">
          <mxGeometry relative="1" as="geometry" />
        </mxCell>
        <mxCell id="ciRMRofvkb1VKixp0p3v-59" value="" style="edgeStyle=none;rounded=0;orthogonalLoop=1;jettySize=auto;html=1;endArrow=none;endFill=0;" parent="xHltKHDQQMA4LhJhDFyi-1" source="ciRMRofvkb1VKixp0p3v-26" target="ciRMRofvkb1VKixp0p3v-29" edge="1">
          <mxGeometry relative="1" as="geometry" />
        </mxCell>
        <mxCell id="ciRMRofvkb1VKixp0p3v-26" value="" style="shape=mxgraph.cisco.routers.router;html=1;pointerEvents=1;dashed=0;fillColor=#036897;strokeColor=#ffffff;strokeWidth=2;verticalLabelPosition=bottom;verticalAlign=top;align=center;outlineConnect=0;labelBackgroundColor=#B0B0B0;" parent="xHltKHDQQMA4LhJhDFyi-1" vertex="1">
          <mxGeometry x="93" y="310" width="54" height="30" as="geometry" />
        </mxCell>
        <mxCell id="ciRMRofvkb1VKixp0p3v-58" value="" style="edgeStyle=none;rounded=0;orthogonalLoop=1;jettySize=auto;html=1;endArrow=none;endFill=0;" parent="xHltKHDQQMA4LhJhDFyi-1" source="ciRMRofvkb1VKixp0p3v-28" target="ciRMRofvkb1VKixp0p3v-49" edge="1">
          <mxGeometry relative="1" as="geometry" />
        </mxCell>
        <mxCell id="ciRMRofvkb1VKixp0p3v-60" value="" style="edgeStyle=none;rounded=0;orthogonalLoop=1;jettySize=auto;html=1;endArrow=none;endFill=0;" parent="xHltKHDQQMA4LhJhDFyi-1" source="ciRMRofvkb1VKixp0p3v-28" target="ciRMRofvkb1VKixp0p3v-29" edge="1">
          <mxGeometry relative="1" as="geometry" />
        </mxCell>
        <mxCell id="ciRMRofvkb1VKixp0p3v-28" value="" style="shape=mxgraph.cisco.routers.router;html=1;pointerEvents=1;dashed=0;fillColor=#036897;strokeColor=#ffffff;strokeWidth=2;verticalLabelPosition=bottom;verticalAlign=top;align=center;outlineConnect=0;labelBackgroundColor=#B0B0B0;" parent="xHltKHDQQMA4LhJhDFyi-1" vertex="1">
          <mxGeometry x="171" y="310" width="54" height="30" as="geometry" />
        </mxCell>
        <mxCell id="ciRMRofvkb1VKixp0p3v-29" value="Internet" style="ellipse;shape=cloud;whiteSpace=wrap;html=1;labelBackgroundColor=#FFFFFF;strokeColor=#B0B0B0;strokeWidth=4;align=center;verticalAlign=top;" parent="xHltKHDQQMA4LhJhDFyi-1" vertex="1">
          <mxGeometry x="103" y="357" width="120" height="35" as="geometry" />
        </mxCell>
        <mxCell id="ciRMRofvkb1VKixp0p3v-30" value="DC Inet S2" style="points=[[0.015,0.015,0],[0.985,0.015,0],[0.985,0.985,0],[0.015,0.985,0],[0.25,0,0],[0.5,0,0],[0.75,0,0],[1,0.25,0],[1,0.5,0],[1,0.75,0],[0.75,1,0],[0.5,1,0],[0.25,1,0],[0,0.75,0],[0,0.5,0],[0,0.25,0]];verticalLabelPosition=middle;html=1;verticalAlign=middle;aspect=fixed;align=center;pointerEvents=1;shape=mxgraph.cisco19.rect;prIcon=l3_modular;fillColor=#FAFAFA;strokeColor=#005073;labelPosition=center;labelBackgroundColor=#B0B0B0;" parent="xHltKHDQQMA4LhJhDFyi-1" vertex="1">
          <mxGeometry x="175" y="93.5" width="50" height="73" as="geometry" />
        </mxCell>
        <mxCell id="ciRMRofvkb1VKixp0p3v-33" value="Data Center Block" style="rounded=0;whiteSpace=wrap;html=1;align=right;verticalAlign=top;strokeColor=#B0B0B0;strokeWidth=4;" parent="xHltKHDQQMA4LhJhDFyi-1" vertex="1">
          <mxGeometry x="710" y="440" width="350" height="240" as="geometry" />
        </mxCell>
        <mxCell id="ciRMRofvkb1VKixp0p3v-34" style="edgeStyle=none;rounded=0;orthogonalLoop=1;jettySize=auto;html=1;entryX=0.5;entryY=0;entryDx=0;entryDy=0;entryPerimeter=0;endArrow=none;endFill=0;exitX=0.5;exitY=1;exitDx=0;exitDy=0;exitPerimeter=0;fillColor=#0050ef;strokeColor=#001DBC;" parent="xHltKHDQQMA4LhJhDFyi-1" source="ciRMRofvkb1VKixp0p3v-47" target="ciRMRofvkb1VKixp0p3v-45" edge="1">
          <mxGeometry relative="1" as="geometry" />
        </mxCell>
        <mxCell id="ciRMRofvkb1VKixp0p3v-35" style="edgeStyle=none;rounded=0;orthogonalLoop=1;jettySize=auto;html=1;entryX=0.5;entryY=0;entryDx=0;entryDy=0;entryPerimeter=0;endArrow=none;endFill=0;exitX=0.5;exitY=1;exitDx=0;exitDy=0;exitPerimeter=0;fillColor=#0050ef;strokeColor=#001DBC;" parent="xHltKHDQQMA4LhJhDFyi-1" source="ciRMRofvkb1VKixp0p3v-47" target="ciRMRofvkb1VKixp0p3v-44" edge="1">
          <mxGeometry relative="1" as="geometry" />
        </mxCell>
        <mxCell id="ciRMRofvkb1VKixp0p3v-36" style="edgeStyle=none;rounded=0;orthogonalLoop=1;jettySize=auto;html=1;entryX=0.5;entryY=0;entryDx=0;entryDy=0;entryPerimeter=0;endArrow=none;endFill=0;exitX=0.5;exitY=1;exitDx=0;exitDy=0;exitPerimeter=0;fillColor=#0050ef;strokeColor=#001DBC;" parent="xHltKHDQQMA4LhJhDFyi-1" source="ciRMRofvkb1VKixp0p3v-42" target="ciRMRofvkb1VKixp0p3v-43" edge="1">
          <mxGeometry relative="1" as="geometry" />
        </mxCell>
        <mxCell id="ciRMRofvkb1VKixp0p3v-37" style="edgeStyle=none;rounded=0;orthogonalLoop=1;jettySize=auto;html=1;exitX=0.5;exitY=0;exitDx=0;exitDy=0;exitPerimeter=0;entryX=0.5;entryY=1;entryDx=0;entryDy=0;entryPerimeter=0;endArrow=none;endFill=0;fillColor=#0050ef;strokeColor=#001DBC;" parent="xHltKHDQQMA4LhJhDFyi-1" source="ciRMRofvkb1VKixp0p3v-48" target="ciRMRofvkb1VKixp0p3v-47" edge="1">
          <mxGeometry relative="1" as="geometry" />
        </mxCell>
        <mxCell id="ciRMRofvkb1VKixp0p3v-38" style="edgeStyle=none;rounded=0;orthogonalLoop=1;jettySize=auto;html=1;entryX=0.5;entryY=1;entryDx=0;entryDy=0;entryPerimeter=0;endArrow=none;endFill=0;exitX=0.5;exitY=0;exitDx=0;exitDy=0;exitPerimeter=0;fillColor=#0050ef;strokeColor=#001DBC;" parent="xHltKHDQQMA4LhJhDFyi-1" source="ciRMRofvkb1VKixp0p3v-48" target="ciRMRofvkb1VKixp0p3v-42" edge="1">
          <mxGeometry relative="1" as="geometry" />
        </mxCell>
        <mxCell id="ciRMRofvkb1VKixp0p3v-39" style="edgeStyle=none;rounded=0;orthogonalLoop=1;jettySize=auto;html=1;endArrow=none;endFill=0;entryX=0.491;entryY=1;entryDx=0;entryDy=0;entryPerimeter=0;exitX=0.5;exitY=0;exitDx=0;exitDy=0;exitPerimeter=0;fillColor=#0050ef;strokeColor=#001DBC;" parent="xHltKHDQQMA4LhJhDFyi-1" source="ciRMRofvkb1VKixp0p3v-45" target="ciRMRofvkb1VKixp0p3v-42" edge="1">
          <mxGeometry relative="1" as="geometry">
            <mxPoint x="920" y="550" as="targetPoint" />
          </mxGeometry>
        </mxCell>
        <mxCell id="ciRMRofvkb1VKixp0p3v-40" style="edgeStyle=none;rounded=0;orthogonalLoop=1;jettySize=auto;html=1;entryX=0.5;entryY=1;entryDx=0;entryDy=0;entryPerimeter=0;endArrow=none;endFill=0;exitX=0.5;exitY=0;exitDx=0;exitDy=0;exitPerimeter=0;fillColor=#0050ef;strokeColor=#001DBC;" parent="xHltKHDQQMA4LhJhDFyi-1" source="ciRMRofvkb1VKixp0p3v-44" target="ciRMRofvkb1VKixp0p3v-42" edge="1">
          <mxGeometry relative="1" as="geometry" />
        </mxCell>
        <mxCell id="ciRMRofvkb1VKixp0p3v-41" style="edgeStyle=none;rounded=0;orthogonalLoop=1;jettySize=auto;html=1;entryX=0.5;entryY=1;entryDx=0;entryDy=0;entryPerimeter=0;endArrow=none;endFill=0;exitX=0.5;exitY=0;exitDx=0;exitDy=0;exitPerimeter=0;fillColor=#0050ef;strokeColor=#001DBC;" parent="xHltKHDQQMA4LhJhDFyi-1" source="ciRMRofvkb1VKixp0p3v-43" target="ciRMRofvkb1VKixp0p3v-47" edge="1">
          <mxGeometry relative="1" as="geometry" />
        </mxCell>
        <mxCell id="ciRMRofvkb1VKixp0p3v-42" value="DC Agg 2" style="points=[[0.015,0.015,0],[0.985,0.015,0],[0.985,0.985,0],[0.015,0.985,0],[0.25,0,0],[0.5,0,0],[0.75,0,0],[1,0.25,0],[1,0.5,0],[1,0.75,0],[0.75,1,0],[0.5,1,0],[0.25,1,0],[0,0.75,0],[0,0.5,0],[0,0.25,0]];verticalLabelPosition=middle;html=1;verticalAlign=middle;aspect=fixed;align=center;pointerEvents=1;shape=mxgraph.cisco19.rect;prIcon=l3_modular;fillColor=#FAFAFA;strokeColor=#005073;labelPosition=center;labelBackgroundColor=#B0B0B0;" parent="xHltKHDQQMA4LhJhDFyi-1" vertex="1">
          <mxGeometry x="900" y="473.5" width="50" height="73" as="geometry" />
        </mxCell>
        <mxCell id="ciRMRofvkb1VKixp0p3v-43" value="" style="points=[[0.015,0.015,0],[0.985,0.015,0],[0.985,0.985,0],[0.015,0.985,0],[0.25,0,0],[0.5,0,0],[0.75,0,0],[1,0.25,0],[1,0.5,0],[1,0.75,0],[0.75,1,0],[0.5,1,0],[0.25,1,0],[0,0.75,0],[0,0.5,0],[0,0.25,0]];verticalLabelPosition=bottom;html=1;verticalAlign=top;aspect=fixed;align=center;pointerEvents=1;shape=mxgraph.cisco19.rect;prIcon=workgroup_switch;fillColor=#FAFAFA;strokeColor=#6696AB;labelBackgroundColor=#B0B0B0;" parent="xHltKHDQQMA4LhJhDFyi-1" vertex="1">
          <mxGeometry x="970" y="590" width="50" height="50" as="geometry" />
        </mxCell>
        <mxCell id="ciRMRofvkb1VKixp0p3v-44" value="" style="points=[[0.015,0.015,0],[0.985,0.015,0],[0.985,0.985,0],[0.015,0.985,0],[0.25,0,0],[0.5,0,0],[0.75,0,0],[1,0.25,0],[1,0.5,0],[1,0.75,0],[0.75,1,0],[0.5,1,0],[0.25,1,0],[0,0.75,0],[0,0.5,0],[0,0.25,0]];verticalLabelPosition=bottom;html=1;verticalAlign=top;aspect=fixed;align=center;pointerEvents=1;shape=mxgraph.cisco19.rect;prIcon=workgroup_switch;fillColor=#FAFAFA;strokeColor=#6696AB;labelBackgroundColor=#B0B0B0;" parent="xHltKHDQQMA4LhJhDFyi-1" vertex="1">
          <mxGeometry x="887" y="590" width="50" height="50" as="geometry" />
        </mxCell>
        <mxCell id="ciRMRofvkb1VKixp0p3v-45" value="" style="points=[[0.015,0.015,0],[0.985,0.015,0],[0.985,0.985,0],[0.015,0.985,0],[0.25,0,0],[0.5,0,0],[0.75,0,0],[1,0.25,0],[1,0.5,0],[1,0.75,0],[0.75,1,0],[0.5,1,0],[0.25,1,0],[0,0.75,0],[0,0.5,0],[0,0.25,0]];verticalLabelPosition=bottom;html=1;verticalAlign=top;aspect=fixed;align=center;pointerEvents=1;shape=mxgraph.cisco19.rect;prIcon=workgroup_switch;fillColor=#FAFAFA;strokeColor=#6696AB;labelBackgroundColor=#B0B0B0;" parent="xHltKHDQQMA4LhJhDFyi-1" vertex="1">
          <mxGeometry x="803" y="590" width="50" height="50" as="geometry" />
        </mxCell>
        <mxCell id="ciRMRofvkb1VKixp0p3v-46" style="edgeStyle=none;rounded=0;orthogonalLoop=1;jettySize=auto;html=1;entryX=0.007;entryY=0.675;entryDx=0;entryDy=0;entryPerimeter=0;endArrow=none;endFill=0;exitX=0.991;exitY=0.671;exitDx=0;exitDy=0;exitPerimeter=0;fillColor=#0050ef;strokeColor=#001DBC;" parent="xHltKHDQQMA4LhJhDFyi-1" source="ciRMRofvkb1VKixp0p3v-47" target="ciRMRofvkb1VKixp0p3v-42" edge="1">
          <mxGeometry relative="1" as="geometry" />
        </mxCell>
        <mxCell id="ciRMRofvkb1VKixp0p3v-47" value="DC Agg 1" style="points=[[0.015,0.015,0],[0.985,0.015,0],[0.985,0.985,0],[0.015,0.985,0],[0.25,0,0],[0.5,0,0],[0.75,0,0],[1,0.25,0],[1,0.5,0],[1,0.75,0],[0.75,1,0],[0.5,1,0],[0.25,1,0],[0,0.75,0],[0,0.5,0],[0,0.25,0]];verticalLabelPosition=middle;html=1;verticalAlign=middle;aspect=fixed;align=center;pointerEvents=1;shape=mxgraph.cisco19.rect;prIcon=l3_modular;fillColor=#FAFAFA;strokeColor=#005073;labelPosition=center;labelBackgroundColor=#B0B0B0;" parent="xHltKHDQQMA4LhJhDFyi-1" vertex="1">
          <mxGeometry x="775" y="473.5" width="50" height="73" as="geometry" />
        </mxCell>
        <mxCell id="ciRMRofvkb1VKixp0p3v-48" value="" style="points=[[0.015,0.015,0],[0.985,0.015,0],[0.985,0.985,0],[0.015,0.985,0],[0.25,0,0],[0.5,0,0],[0.75,0,0],[1,0.25,0],[1,0.5,0],[1,0.75,0],[0.75,1,0],[0.5,1,0],[0.25,1,0],[0,0.75,0],[0,0.5,0],[0,0.25,0]];verticalLabelPosition=bottom;html=1;verticalAlign=top;aspect=fixed;align=center;pointerEvents=1;shape=mxgraph.cisco19.rect;prIcon=workgroup_switch;fillColor=#FAFAFA;strokeColor=#6696AB;labelBackgroundColor=#B0B0B0;" parent="xHltKHDQQMA4LhJhDFyi-1" vertex="1">
          <mxGeometry x="720" y="590" width="50" height="50" as="geometry" />
        </mxCell>
        <mxCell id="ciRMRofvkb1VKixp0p3v-55" value="" style="edgeStyle=orthogonalEdgeStyle;curved=1;rounded=0;orthogonalLoop=1;jettySize=auto;html=1;endArrow=none;endFill=0;" parent="xHltKHDQQMA4LhJhDFyi-1" source="ciRMRofvkb1VKixp0p3v-49" target="ciRMRofvkb1VKixp0p3v-30" edge="1">
          <mxGeometry relative="1" as="geometry" />
        </mxCell>
        <mxCell id="ciRMRofvkb1VKixp0p3v-49" value="" style="aspect=fixed;pointerEvents=1;shadow=0;dashed=0;html=1;strokeColor=none;labelPosition=center;verticalLabelPosition=bottom;verticalAlign=top;align=center;fillColor=#00188D;shape=mxgraph.mscae.enterprise.firewall;labelBackgroundColor=#B0B0B0;" parent="xHltKHDQQMA4LhJhDFyi-1" vertex="1">
          <mxGeometry x="175" y="210" width="50" height="44" as="geometry" />
        </mxCell>
        <mxCell id="ciRMRofvkb1VKixp0p3v-51" value="" style="aspect=fixed;pointerEvents=1;shadow=0;dashed=0;html=1;strokeColor=none;labelPosition=center;verticalLabelPosition=bottom;verticalAlign=top;align=center;fillColor=#00188D;shape=mxgraph.mscae.enterprise.firewall;labelBackgroundColor=#B0B0B0;" parent="xHltKHDQQMA4LhJhDFyi-1" vertex="1">
          <mxGeometry x="95" y="210" width="50" height="44" as="geometry" />
        </mxCell>
        <mxCell id="ciRMRofvkb1VKixp0p3v-91" value="" style="shape=flexArrow;endArrow=classic;startArrow=classic;html=1;strokeColor=#B0B0B0;entryX=1;entryY=0.25;entryDx=0;entryDy=0;width=17.142857142857142;startSize=6.99047619047619;" parent="xHltKHDQQMA4LhJhDFyi-1" target="ciRMRofvkb1VKixp0p3v-61" edge="1">
          <mxGeometry width="100" height="100" relative="1" as="geometry">
            <mxPoint x="480" y="300" as="sourcePoint" />
            <mxPoint x="520" y="130" as="targetPoint" />
          </mxGeometry>
        </mxCell>
        <mxCell id="ciRMRofvkb1VKixp0p3v-92" value="Full Mesh" style="edgeLabel;html=1;align=center;verticalAlign=middle;resizable=0;points=[];rotation=34;textOpacity=80;" parent="ciRMRofvkb1VKixp0p3v-91" vertex="1" connectable="0">
          <mxGeometry x="0.0891" y="-2" relative="1" as="geometry">
            <mxPoint as="offset" />
          </mxGeometry>
        </mxCell>
        <mxCell id="ciRMRofvkb1VKixp0p3v-95" value="" style="shape=flexArrow;endArrow=classic;startArrow=classic;html=1;strokeColor=#B0B0B0;width=17.142857142857142;startSize=6.99047619047619;" parent="xHltKHDQQMA4LhJhDFyi-1" edge="1">
          <mxGeometry width="100" height="100" relative="1" as="geometry">
            <mxPoint x="370" y="349" as="sourcePoint" />
            <mxPoint x="160" y="460" as="targetPoint" />
          </mxGeometry>
        </mxCell>
        <mxCell id="ciRMRofvkb1VKixp0p3v-96" value="Full Mesh" style="edgeLabel;html=1;align=center;verticalAlign=middle;resizable=0;points=[];rotation=-29;textOpacity=80;" parent="ciRMRofvkb1VKixp0p3v-95" vertex="1" connectable="0">
          <mxGeometry x="0.0891" y="-2" relative="1" as="geometry">
            <mxPoint x="3" as="offset" />
          </mxGeometry>
        </mxCell>
        <mxCell id="ciRMRofvkb1VKixp0p3v-99" value="" style="shape=flexArrow;endArrow=classic;startArrow=classic;html=1;strokeColor=#B0B0B0;width=17.142857142857142;startSize=6.99047619047619;" parent="xHltKHDQQMA4LhJhDFyi-1" edge="1">
          <mxGeometry width="100" height="100" relative="1" as="geometry">
            <mxPoint x="870" y="480" as="sourcePoint" />
            <mxPoint x="580" y="310" as="targetPoint" />
          </mxGeometry>
        </mxCell>
        <mxCell id="ciRMRofvkb1VKixp0p3v-100" value="Full Mesh" style="edgeLabel;html=1;align=center;verticalAlign=middle;resizable=0;points=[];rotation=30;textOpacity=80;" parent="ciRMRofvkb1VKixp0p3v-99" vertex="1" connectable="0">
          <mxGeometry x="0.0891" y="-2" relative="1" as="geometry">
            <mxPoint as="offset" />
          </mxGeometry>
        </mxCell>
      </root>
    </mxGraphModel>
  </diagram>
  <diagram id="qLXWvXH8eG7lzDVdMCn_" name="Overview">
    <mxGraphModel dx="957" dy="515" grid="1" gridSize="10" guides="1" tooltips="1" connect="1" arrows="1" fold="1" page="1" pageScale="1" pageWidth="1100" pageHeight="850" math="0" shadow="0">
      <root>
        <mxCell id="0" />
        <mxCell id="1" parent="0" />
        <mxCell id="ya-SCuWf4foZlsTIAZpp-3" style="edgeStyle=orthogonalEdgeStyle;rounded=0;orthogonalLoop=1;jettySize=auto;html=1;entryX=0;entryY=0.5;entryDx=0;entryDy=0;entryPerimeter=0;fontColor=#000000;endFill=0;endArrow=none;" parent="1" source="ya-SCuWf4foZlsTIAZpp-2" target="K6tKxoil_eJn-olWahjp-12" edge="1">
          <mxGeometry relative="1" as="geometry" />
        </mxCell>
        <mxCell id="K6tKxoil_eJn-olWahjp-4" style="edgeStyle=orthogonalEdgeStyle;rounded=0;orthogonalLoop=1;jettySize=auto;html=1;endArrow=none;endFill=0;" parent="1" source="K6tKxoil_eJn-olWahjp-1" target="K6tKxoil_eJn-olWahjp-2" edge="1">
          <mxGeometry relative="1" as="geometry" />
        </mxCell>
        <mxCell id="K6tKxoil_eJn-olWahjp-5" value="port1" style="edgeLabel;html=1;align=center;verticalAlign=middle;resizable=0;points=[];labelBorderColor=#B5739D;fontSize=8;" parent="K6tKxoil_eJn-olWahjp-4" vertex="1" connectable="0">
          <mxGeometry x="-0.2579" y="-1" relative="1" as="geometry">
            <mxPoint x="13.08" y="1" as="offset" />
          </mxGeometry>
        </mxCell>
        <mxCell id="K6tKxoil_eJn-olWahjp-7" style="edgeStyle=orthogonalEdgeStyle;rounded=0;orthogonalLoop=1;jettySize=auto;html=1;endFill=0;endArrow=none;" parent="1" source="K6tKxoil_eJn-olWahjp-1" target="K6tKxoil_eJn-olWahjp-6" edge="1">
          <mxGeometry relative="1" as="geometry" />
        </mxCell>
        <mxCell id="K6tKxoil_eJn-olWahjp-10" value="port2" style="edgeLabel;html=1;align=center;verticalAlign=middle;resizable=0;points=[];labelBorderColor=#B5739D;fontSize=8;" parent="K6tKxoil_eJn-olWahjp-7" vertex="1" connectable="0">
          <mxGeometry x="-0.4839" y="-11" relative="1" as="geometry">
            <mxPoint x="-15.329999999999998" y="-10.999999999999998" as="offset" />
          </mxGeometry>
        </mxCell>
        <mxCell id="U0XDrkM0G4yE6paiNKI_-24" value="172.31.255" style="edgeLabel;html=1;align=center;verticalAlign=middle;resizable=0;points=[];fontSize=8;labelBorderColor=#B5739D;" parent="K6tKxoil_eJn-olWahjp-7" vertex="1" connectable="0">
          <mxGeometry x="-0.1711" y="-1" relative="1" as="geometry">
            <mxPoint x="4.2" y="-1" as="offset" />
          </mxGeometry>
        </mxCell>
        <mxCell id="K6tKxoil_eJn-olWahjp-1" value="fgt-1" style="shape=mxgraph.cisco.misc.asa_5500;html=1;pointerEvents=1;dashed=0;fillColor=#036897;strokeColor=#ffffff;strokeWidth=2;verticalLabelPosition=top;verticalAlign=bottom;align=center;outlineConnect=0;labelPosition=center;" parent="1" vertex="1">
          <mxGeometry x="200" y="100" width="40" height="50" as="geometry" />
        </mxCell>
        <mxCell id="K6tKxoil_eJn-olWahjp-2" value="NET (cloud 0)" style="pointerEvents=1;shadow=0;dashed=0;html=1;strokeColor=none;fillColor=#505050;labelPosition=center;verticalLabelPosition=bottom;outlineConnect=0;verticalAlign=top;align=center;shape=mxgraph.office.clouds.cloud;" parent="1" vertex="1">
          <mxGeometry x="30" y="110" width="54" height="30" as="geometry" />
        </mxCell>
        <mxCell id="a-AFzU2EUEscYH2T2gQ4-1" style="edgeStyle=orthogonalEdgeStyle;rounded=0;orthogonalLoop=1;jettySize=auto;html=1;entryX=0.5;entryY=0;entryDx=0;entryDy=0;entryPerimeter=0;endArrow=none;endFill=0;" edge="1" parent="1" source="K6tKxoil_eJn-olWahjp-6" target="K6tKxoil_eJn-olWahjp-12">
          <mxGeometry relative="1" as="geometry" />
        </mxCell>
        <mxCell id="K6tKxoil_eJn-olWahjp-6" value="mgmt (private)" style="pointerEvents=1;shadow=0;dashed=0;html=1;strokeColor=none;fillColor=#ABABAB;labelPosition=center;verticalLabelPosition=bottom;outlineConnect=0;verticalAlign=top;align=center;shape=mxgraph.office.clouds.private_cloud;fontColor=#000000;" parent="1" vertex="1">
          <mxGeometry x="362" y="110" width="54" height="30" as="geometry" />
        </mxCell>
        <mxCell id="K6tKxoil_eJn-olWahjp-14" style="edgeStyle=orthogonalEdgeStyle;rounded=0;orthogonalLoop=1;jettySize=auto;html=1;endArrow=none;endFill=0;fontSize=11;" parent="1" source="ya-SCuWf4foZlsTIAZpp-2" target="K6tKxoil_eJn-olWahjp-1" edge="1">
          <mxGeometry relative="1" as="geometry">
            <Array as="points" />
            <mxPoint x="290" y="220" as="sourcePoint" />
          </mxGeometry>
        </mxCell>
        <mxCell id="K6tKxoil_eJn-olWahjp-15" value="port3" style="edgeLabel;html=1;align=center;verticalAlign=middle;resizable=0;points=[];fontSize=8;labelBorderColor=#B5739D;" parent="K6tKxoil_eJn-olWahjp-14" vertex="1" connectable="0">
          <mxGeometry x="0.79" relative="1" as="geometry">
            <mxPoint x="-1" y="2.8000000000000007" as="offset" />
          </mxGeometry>
        </mxCell>
        <mxCell id="U0XDrkM0G4yE6paiNKI_-1" value="172.16.0.1" style="edgeLabel;html=1;align=center;verticalAlign=middle;resizable=0;points=[];fontSize=8;labelBorderColor=#B5739D;" parent="K6tKxoil_eJn-olWahjp-14" vertex="1" connectable="0">
          <mxGeometry x="0.5104" relative="1" as="geometry">
            <mxPoint x="-2" y="3.8000000000000007" as="offset" />
          </mxGeometry>
        </mxCell>
        <mxCell id="ya-SCuWf4foZlsTIAZpp-1" value="192.168.1.109" style="edgeLabel;html=1;align=center;verticalAlign=middle;resizable=0;points=[];fontSize=8;labelBorderColor=#B5739D;" parent="K6tKxoil_eJn-olWahjp-14" vertex="1" connectable="0">
          <mxGeometry x="0.5104" relative="1" as="geometry">
            <mxPoint x="-96" y="-46" as="offset" />
          </mxGeometry>
        </mxCell>
        <mxCell id="K6tKxoil_eJn-olWahjp-25" value="e0/0&lt;br&gt;.2" style="edgeLabel;html=1;align=center;verticalAlign=middle;resizable=0;points=[];fontSize=8;labelBorderColor=#B5739D;absoluteArcSize=0;perimeter=rectanglePerimeter;dropTarget=0;" parent="K6tKxoil_eJn-olWahjp-14" vertex="1" connectable="0">
          <mxGeometry x="-0.74" relative="1" as="geometry">
            <mxPoint x="76" y="24" as="offset" />
          </mxGeometry>
        </mxCell>
        <mxCell id="a-AFzU2EUEscYH2T2gQ4-3" value="e0/3&lt;br&gt;.2" style="edgeLabel;html=1;align=center;verticalAlign=middle;resizable=0;points=[];fontSize=8;labelBorderColor=#B5739D;absoluteArcSize=0;perimeter=rectanglePerimeter;dropTarget=0;" vertex="1" connectable="0" parent="K6tKxoil_eJn-olWahjp-14">
          <mxGeometry x="-0.74" relative="1" as="geometry">
            <mxPoint x="104" y="-8" as="offset" />
          </mxGeometry>
        </mxCell>
        <mxCell id="K6tKxoil_eJn-olWahjp-28" value="" style="edgeStyle=orthogonalEdgeStyle;rounded=0;orthogonalLoop=1;jettySize=auto;html=1;endArrow=none;endFill=0;fontSize=11;exitX=1;exitY=0.5;exitDx=0;exitDy=0;exitPerimeter=0;entryX=0;entryY=0.5;entryDx=0;entryDy=0;entryPerimeter=0;" parent="1" source="K6tKxoil_eJn-olWahjp-12" target="K6tKxoil_eJn-olWahjp-27" edge="1">
          <mxGeometry relative="1" as="geometry" />
        </mxCell>
        <mxCell id="K6tKxoil_eJn-olWahjp-31" value="e0/1.10&lt;br&gt;.1" style="edgeLabel;html=1;align=center;verticalAlign=middle;resizable=0;points=[];fontSize=8;labelBorderColor=#B5739D;" parent="K6tKxoil_eJn-olWahjp-28" vertex="1" connectable="0">
          <mxGeometry x="-0.3415" y="1" relative="1" as="geometry">
            <mxPoint x="-23" as="offset" />
          </mxGeometry>
        </mxCell>
        <mxCell id="K6tKxoil_eJn-olWahjp-32" value="e0/0.10&lt;br&gt;.2" style="edgeLabel;html=1;align=center;verticalAlign=middle;resizable=0;points=[];fontSize=8;labelBorderColor=#B5739D;" parent="K6tKxoil_eJn-olWahjp-28" vertex="1" connectable="0">
          <mxGeometry x="0.622" relative="1" as="geometry">
            <mxPoint x="5" y="-1" as="offset" />
          </mxGeometry>
        </mxCell>
        <mxCell id="U0XDrkM0G4yE6paiNKI_-3" value="172.16.1" style="edgeLabel;html=1;align=center;verticalAlign=middle;resizable=0;points=[];fontSize=8;labelBorderColor=#B5739D;" parent="K6tKxoil_eJn-olWahjp-28" vertex="1" connectable="0">
          <mxGeometry x="-0.0901" y="1" relative="1" as="geometry">
            <mxPoint y="1" as="offset" />
          </mxGeometry>
        </mxCell>
        <mxCell id="K6tKxoil_eJn-olWahjp-12" value="ISP1" style="points=[[0.5,0,0],[1,0.5,0],[0.5,1,0],[0,0.5,0],[0.145,0.145,0],[0.8555,0.145,0],[0.855,0.8555,0],[0.145,0.855,0]];verticalLabelPosition=bottom;html=1;verticalAlign=top;aspect=fixed;align=center;pointerEvents=1;shape=mxgraph.cisco19.rect;prIcon=router;fillColor=#FAFAFA;strokeColor=#005073;labelBackgroundColor=#ffffff;fontSize=11;labelPosition=center;" parent="1" vertex="1">
          <mxGeometry x="310" y="230" width="30" height="30" as="geometry" />
        </mxCell>
        <mxCell id="K6tKxoil_eJn-olWahjp-37" value="" style="edgeStyle=orthogonalEdgeStyle;rounded=0;orthogonalLoop=1;jettySize=auto;html=1;endArrow=none;endFill=0;fontSize=11;" parent="1" edge="1">
          <mxGeometry relative="1" as="geometry">
            <mxPoint x="410" y="370" as="sourcePoint" />
            <mxPoint x="327" y="449.5" as="targetPoint" />
          </mxGeometry>
        </mxCell>
        <mxCell id="K6tKxoil_eJn-olWahjp-48" value="e0/1&lt;br&gt;.3" style="edgeLabel;html=1;align=center;verticalAlign=middle;resizable=0;points=[];fontSize=8;labelBorderColor=#B5739D;" parent="K6tKxoil_eJn-olWahjp-37" vertex="1" connectable="0">
          <mxGeometry x="0.7506" y="-1" relative="1" as="geometry">
            <mxPoint x="0.2" y="-2" as="offset" />
          </mxGeometry>
        </mxCell>
        <mxCell id="U0XDrkM0G4yE6paiNKI_-7" value="e0/1&lt;br&gt;.2" style="edgeLabel;html=1;align=center;verticalAlign=middle;resizable=0;points=[];fontSize=8;labelBorderColor=#B5739D;" parent="K6tKxoil_eJn-olWahjp-37" vertex="1" connectable="0">
          <mxGeometry x="-0.7407" y="1" relative="1" as="geometry">
            <mxPoint as="offset" />
          </mxGeometry>
        </mxCell>
        <mxCell id="U0XDrkM0G4yE6paiNKI_-8" value="100.100.254.2/31" style="edgeLabel;html=1;align=center;verticalAlign=middle;resizable=0;points=[];fontSize=8;labelBorderColor=#B5739D;" parent="K6tKxoil_eJn-olWahjp-37" vertex="1" connectable="0">
          <mxGeometry x="0.4129" y="-1" relative="1" as="geometry">
            <mxPoint x="-17.4" y="15" as="offset" />
          </mxGeometry>
        </mxCell>
        <mxCell id="K6tKxoil_eJn-olWahjp-27" value="corpInet01" style="points=[[0.5,0,0],[1,0.5,0],[0.5,1,0],[0,0.5,0],[0.145,0.145,0],[0.8555,0.145,0],[0.855,0.8555,0],[0.145,0.855,0]];verticalLabelPosition=bottom;html=1;verticalAlign=top;aspect=fixed;align=center;pointerEvents=1;shape=mxgraph.cisco19.rect;prIcon=router;fillColor=#FAFAFA;strokeColor=#005073;labelBackgroundColor=#ffffff;fontSize=11;labelPosition=center;" parent="1" vertex="1">
          <mxGeometry x="470" y="230" width="30" height="30" as="geometry" />
        </mxCell>
        <mxCell id="K6tKxoil_eJn-olWahjp-47" style="edgeStyle=orthogonalEdgeStyle;rounded=0;orthogonalLoop=1;jettySize=auto;html=1;entryX=1;entryY=0.5;entryDx=0;entryDy=0;entryPerimeter=0;endArrow=none;endFill=0;fontSize=11;exitX=0;exitY=0.5;exitDx=0;exitDy=0;exitPerimeter=0;" parent="1" source="K6tKxoil_eJn-olWahjp-56" edge="1">
          <mxGeometry relative="1" as="geometry">
            <mxPoint x="490" y="345" as="targetPoint" />
          </mxGeometry>
        </mxCell>
        <mxCell id="K6tKxoil_eJn-olWahjp-50" value="e0/0&lt;br&gt;.6" style="edgeLabel;html=1;align=center;verticalAlign=middle;resizable=0;points=[];fontSize=8;labelBorderColor=#B5739D;" parent="K6tKxoil_eJn-olWahjp-47" vertex="1" connectable="0">
          <mxGeometry x="0.6037" relative="1" as="geometry">
            <mxPoint x="-10.600000000000023" as="offset" />
          </mxGeometry>
        </mxCell>
        <mxCell id="K6tKxoil_eJn-olWahjp-53" value="e0/0&lt;br&gt;.7" style="edgeLabel;html=1;align=center;verticalAlign=middle;resizable=0;points=[];fontSize=8;labelBorderColor=#B5739D;" parent="K6tKxoil_eJn-olWahjp-47" vertex="1" connectable="0">
          <mxGeometry x="-0.6126" relative="1" as="geometry">
            <mxPoint x="7.8" as="offset" />
          </mxGeometry>
        </mxCell>
        <mxCell id="HzCQAK0YITcBXoVZtH7M-1" value="100.100.254.6/31" style="edgeLabel;html=1;align=center;verticalAlign=middle;resizable=0;points=[];fontSize=8;labelBorderColor=#B5739D;" parent="K6tKxoil_eJn-olWahjp-47" vertex="1" connectable="0">
          <mxGeometry x="-0.276" y="-2" relative="1" as="geometry">
            <mxPoint x="-16.800000000000033" y="20" as="offset" />
          </mxGeometry>
        </mxCell>
        <mxCell id="K6tKxoil_eJn-olWahjp-59" value="" style="edgeStyle=orthogonalEdgeStyle;rounded=0;orthogonalLoop=1;jettySize=auto;html=1;endArrow=none;endFill=0;fontSize=8;exitX=1;exitY=0.25;exitDx=0;exitDy=0;exitPerimeter=0;entryX=0;entryY=0.25;entryDx=0;entryDy=0;entryPerimeter=0;" parent="1" source="K6tKxoil_eJn-olWahjp-46" target="K6tKxoil_eJn-olWahjp-58" edge="1">
          <mxGeometry relative="1" as="geometry" />
        </mxCell>
        <mxCell id="K6tKxoil_eJn-olWahjp-61" value="e0/1" style="edgeLabel;html=1;align=center;verticalAlign=middle;resizable=0;points=[];fontSize=8;labelBorderColor=#B5739D;" parent="K6tKxoil_eJn-olWahjp-59" vertex="1" connectable="0">
          <mxGeometry x="-0.7455" relative="1" as="geometry">
            <mxPoint y="1" as="offset" />
          </mxGeometry>
        </mxCell>
        <mxCell id="K6tKxoil_eJn-olWahjp-63" value="e0/1" style="edgeLabel;html=1;align=center;verticalAlign=middle;resizable=0;points=[];fontSize=8;labelBorderColor=#B5739D;" parent="K6tKxoil_eJn-olWahjp-59" vertex="1" connectable="0">
          <mxGeometry x="0.7394" y="1" relative="1" as="geometry">
            <mxPoint y="1" as="offset" />
          </mxGeometry>
        </mxCell>
        <mxCell id="K6tKxoil_eJn-olWahjp-60" style="edgeStyle=orthogonalEdgeStyle;rounded=0;orthogonalLoop=1;jettySize=auto;html=1;exitX=1;exitY=0.75;exitDx=0;exitDy=0;exitPerimeter=0;entryX=0;entryY=0.75;entryDx=0;entryDy=0;entryPerimeter=0;endArrow=none;endFill=0;fontSize=8;" parent="1" source="K6tKxoil_eJn-olWahjp-46" target="K6tKxoil_eJn-olWahjp-58" edge="1">
          <mxGeometry relative="1" as="geometry" />
        </mxCell>
        <mxCell id="K6tKxoil_eJn-olWahjp-62" value="e0/2" style="edgeLabel;html=1;align=center;verticalAlign=middle;resizable=0;points=[];fontSize=8;labelBorderColor=#B5739D;" parent="K6tKxoil_eJn-olWahjp-60" vertex="1" connectable="0">
          <mxGeometry x="-0.7394" relative="1" as="geometry">
            <mxPoint y="1" as="offset" />
          </mxGeometry>
        </mxCell>
        <mxCell id="K6tKxoil_eJn-olWahjp-64" value="e0/2" style="edgeLabel;html=1;align=center;verticalAlign=middle;resizable=0;points=[];fontSize=8;labelBorderColor=#B5739D;" parent="K6tKxoil_eJn-olWahjp-60" vertex="1" connectable="0">
          <mxGeometry x="0.7394" relative="1" as="geometry">
            <mxPoint y="1" as="offset" />
          </mxGeometry>
        </mxCell>
        <mxCell id="K6tKxoil_eJn-olWahjp-65" style="rounded=0;orthogonalLoop=1;jettySize=auto;html=1;exitX=0.015;exitY=0.985;exitDx=0;exitDy=0;exitPerimeter=0;entryX=0.75;entryY=0;entryDx=0;entryDy=0;entryPerimeter=0;endArrow=none;endFill=0;fontSize=8;" parent="1" source="K6tKxoil_eJn-olWahjp-46" target="K6tKxoil_eJn-olWahjp-56" edge="1">
          <mxGeometry relative="1" as="geometry" />
        </mxCell>
        <mxCell id="K6tKxoil_eJn-olWahjp-67" value="e0/1" style="edgeLabel;html=1;align=center;verticalAlign=middle;resizable=0;points=[];fontSize=8;labelBorderColor=#B5739D;" parent="K6tKxoil_eJn-olWahjp-65" vertex="1" connectable="0">
          <mxGeometry x="0.7371" y="-1" relative="1" as="geometry">
            <mxPoint as="offset" />
          </mxGeometry>
        </mxCell>
        <mxCell id="K6tKxoil_eJn-olWahjp-69" value="e0/0" style="edgeLabel;html=1;align=center;verticalAlign=middle;resizable=0;points=[];fontSize=8;labelBorderColor=#B5739D;" parent="K6tKxoil_eJn-olWahjp-65" vertex="1" connectable="0">
          <mxGeometry x="-0.786" y="-1" relative="1" as="geometry">
            <mxPoint as="offset" />
          </mxGeometry>
        </mxCell>
        <mxCell id="K6tKxoil_eJn-olWahjp-73" style="edgeStyle=none;rounded=0;orthogonalLoop=1;jettySize=auto;html=1;exitX=0.5;exitY=1;exitDx=0;exitDy=0;exitPerimeter=0;entryX=0.25;entryY=0;entryDx=0;entryDy=0;entryPerimeter=0;endArrow=none;endFill=0;fontSize=8;" parent="1" source="K6tKxoil_eJn-olWahjp-46" target="K6tKxoil_eJn-olWahjp-71" edge="1">
          <mxGeometry relative="1" as="geometry" />
        </mxCell>
        <mxCell id="K6tKxoil_eJn-olWahjp-77" value="e0/0" style="edgeLabel;html=1;align=center;verticalAlign=middle;resizable=0;points=[];fontSize=8;labelBorderColor=#B5739D;" parent="K6tKxoil_eJn-olWahjp-73" vertex="1" connectable="0">
          <mxGeometry x="0.7523" relative="1" as="geometry">
            <mxPoint x="-6.19" as="offset" />
          </mxGeometry>
        </mxCell>
        <mxCell id="K6tKxoil_eJn-olWahjp-78" value="e1/1" style="edgeLabel;html=1;align=center;verticalAlign=middle;resizable=0;points=[];fontSize=8;labelBorderColor=#B5739D;" parent="K6tKxoil_eJn-olWahjp-73" vertex="1" connectable="0">
          <mxGeometry x="-0.8011" y="-1" relative="1" as="geometry">
            <mxPoint as="offset" />
          </mxGeometry>
        </mxCell>
        <mxCell id="K6tKxoil_eJn-olWahjp-74" style="edgeStyle=none;rounded=0;orthogonalLoop=1;jettySize=auto;html=1;exitX=0.985;exitY=0.985;exitDx=0;exitDy=0;exitPerimeter=0;entryX=-0.128;entryY=-0.082;entryDx=0;entryDy=0;entryPerimeter=0;endArrow=none;endFill=0;fontSize=8;" parent="1" source="K6tKxoil_eJn-olWahjp-46" target="K6tKxoil_eJn-olWahjp-72" edge="1">
          <mxGeometry relative="1" as="geometry" />
        </mxCell>
        <mxCell id="K6tKxoil_eJn-olWahjp-79" value="e1/0" style="edgeLabel;html=1;align=center;verticalAlign=middle;resizable=0;points=[];fontSize=8;labelBorderColor=#B5739D;" parent="K6tKxoil_eJn-olWahjp-74" vertex="1" connectable="0">
          <mxGeometry x="-0.7618" y="-1" relative="1" as="geometry">
            <mxPoint as="offset" />
          </mxGeometry>
        </mxCell>
        <mxCell id="K6tKxoil_eJn-olWahjp-83" value="e0/1" style="edgeLabel;html=1;align=center;verticalAlign=middle;resizable=0;points=[];fontSize=8;labelBorderColor=#B5739D;" parent="K6tKxoil_eJn-olWahjp-74" vertex="1" connectable="0">
          <mxGeometry x="0.7662" y="1" relative="1" as="geometry">
            <mxPoint x="-6.46" y="2.9" as="offset" />
          </mxGeometry>
        </mxCell>
        <mxCell id="K6tKxoil_eJn-olWahjp-46" value="1-CORE-DCA" style="points=[[0.015,0.015,0],[0.985,0.015,0],[0.985,0.985,0],[0.015,0.985,0],[0.25,0,0],[0.5,0,0],[0.75,0,0],[1,0.25,0],[1,0.5,0],[1,0.75,0],[0.75,1,0],[0.5,1,0],[0.25,1,0],[0,0.75,0],[0,0.5,0],[0,0.25,0]];verticalLabelPosition=top;html=1;verticalAlign=bottom;aspect=fixed;align=center;pointerEvents=1;shape=mxgraph.cisco19.rect;prIcon=l3_switch;fillColor=#FAFAFA;strokeColor=#005073;labelBackgroundColor=#ffffff;fontSize=11;labelPosition=center;" parent="1" vertex="1">
          <mxGeometry x="757.9999999999999" y="205.13" width="30" height="30" as="geometry" />
        </mxCell>
        <mxCell id="K6tKxoil_eJn-olWahjp-66" style="edgeStyle=none;rounded=0;orthogonalLoop=1;jettySize=auto;html=1;exitX=0.015;exitY=0.985;exitDx=0;exitDy=0;exitPerimeter=0;entryX=1;entryY=0.25;entryDx=0;entryDy=0;entryPerimeter=0;endArrow=none;endFill=0;fontSize=8;" parent="1" source="K6tKxoil_eJn-olWahjp-58" target="K6tKxoil_eJn-olWahjp-56" edge="1">
          <mxGeometry relative="1" as="geometry" />
        </mxCell>
        <mxCell id="K6tKxoil_eJn-olWahjp-68" value="e0/2" style="edgeLabel;html=1;align=center;verticalAlign=middle;resizable=0;points=[];fontSize=8;labelBorderColor=#B5739D;" parent="K6tKxoil_eJn-olWahjp-66" vertex="1" connectable="0">
          <mxGeometry x="0.7238" y="1" relative="1" as="geometry">
            <mxPoint as="offset" />
          </mxGeometry>
        </mxCell>
        <mxCell id="K6tKxoil_eJn-olWahjp-70" value="e0/0" style="edgeLabel;html=1;align=center;verticalAlign=middle;resizable=0;points=[];fontSize=8;labelBorderColor=#B5739D;" parent="K6tKxoil_eJn-olWahjp-66" vertex="1" connectable="0">
          <mxGeometry x="-0.7919" y="1" relative="1" as="geometry">
            <mxPoint as="offset" />
          </mxGeometry>
        </mxCell>
        <mxCell id="K6tKxoil_eJn-olWahjp-58" value="2-CORE-DCA" style="points=[[0.015,0.015,0],[0.985,0.015,0],[0.985,0.985,0],[0.015,0.985,0],[0.25,0,0],[0.5,0,0],[0.75,0,0],[1,0.25,0],[1,0.5,0],[1,0.75,0],[0.75,1,0],[0.5,1,0],[0.25,1,0],[0,0.75,0],[0,0.5,0],[0,0.25,0]];verticalLabelPosition=top;html=1;verticalAlign=bottom;aspect=fixed;align=center;pointerEvents=1;shape=mxgraph.cisco19.rect;prIcon=l3_switch;fillColor=#FAFAFA;strokeColor=#005073;labelBackgroundColor=#ffffff;fontSize=11;labelPosition=center;" parent="1" vertex="1">
          <mxGeometry x="897.9999999999999" y="205.13" width="30" height="30" as="geometry" />
        </mxCell>
        <mxCell id="K6tKxoil_eJn-olWahjp-56" value="1-EDGE-DCA" style="points=[[0.015,0.015,0],[0.985,0.015,0],[0.985,0.985,0],[0.015,0.985,0],[0.25,0,0],[0.5,0,0],[0.75,0,0],[1,0.25,0],[1,0.5,0],[1,0.75,0],[0.75,1,0],[0.5,1,0],[0.25,1,0],[0,0.75,0],[0,0.5,0],[0,0.25,0]];verticalLabelPosition=bottom;html=1;verticalAlign=top;aspect=fixed;align=center;pointerEvents=1;shape=mxgraph.cisco19.rect;prIcon=l2_switch;fillColor=#FAFAFA;strokeColor=#005073;labelBackgroundColor=#ffffff;fontSize=11;" parent="1" vertex="1">
          <mxGeometry x="597.9999999999999" y="330" width="30" height="30" as="geometry" />
        </mxCell>
        <mxCell id="K6tKxoil_eJn-olWahjp-75" style="edgeStyle=none;rounded=0;orthogonalLoop=1;jettySize=auto;html=1;exitX=0.985;exitY=0.015;exitDx=0;exitDy=0;exitPerimeter=0;entryX=0.5;entryY=1;entryDx=0;entryDy=0;entryPerimeter=0;endArrow=none;endFill=0;fontSize=8;" parent="1" source="K6tKxoil_eJn-olWahjp-71" target="K6tKxoil_eJn-olWahjp-58" edge="1">
          <mxGeometry relative="1" as="geometry" />
        </mxCell>
        <mxCell id="K6tKxoil_eJn-olWahjp-80" value="e1/1" style="edgeLabel;html=1;align=center;verticalAlign=middle;resizable=0;points=[];fontSize=8;labelBorderColor=#B5739D;" parent="K6tKxoil_eJn-olWahjp-75" vertex="1" connectable="0">
          <mxGeometry x="0.7148" y="-1" relative="1" as="geometry">
            <mxPoint x="1.73" y="-1" as="offset" />
          </mxGeometry>
        </mxCell>
        <mxCell id="K6tKxoil_eJn-olWahjp-84" value="e0/1" style="edgeLabel;html=1;align=center;verticalAlign=middle;resizable=0;points=[];fontSize=8;labelBorderColor=#B5739D;" parent="K6tKxoil_eJn-olWahjp-75" vertex="1" connectable="0">
          <mxGeometry x="-0.7585" relative="1" as="geometry">
            <mxPoint x="1.45" as="offset" />
          </mxGeometry>
        </mxCell>
        <mxCell id="K6tKxoil_eJn-olWahjp-71" value="1-ACCESS-DCA" style="points=[[0.015,0.015,0],[0.985,0.015,0],[0.985,0.985,0],[0.015,0.985,0],[0.25,0,0],[0.5,0,0],[0.75,0,0],[1,0.25,0],[1,0.5,0],[1,0.75,0],[0.75,1,0],[0.5,1,0],[0.25,1,0],[0,0.75,0],[0,0.5,0],[0,0.25,0]];verticalLabelPosition=middle;html=1;verticalAlign=middle;aspect=fixed;align=left;pointerEvents=1;shape=mxgraph.cisco19.rect;prIcon=l2_switch;fillColor=#FAFAFA;strokeColor=#005073;labelBackgroundColor=#ffffff;fontSize=11;labelPosition=right;" parent="1" vertex="1">
          <mxGeometry x="698" y="380" width="30" height="30" as="geometry" />
        </mxCell>
        <mxCell id="K6tKxoil_eJn-olWahjp-76" style="edgeStyle=none;rounded=0;orthogonalLoop=1;jettySize=auto;html=1;exitX=0.75;exitY=0;exitDx=0;exitDy=0;exitPerimeter=0;entryX=0.75;entryY=1;entryDx=0;entryDy=0;entryPerimeter=0;endArrow=none;endFill=0;fontSize=8;" parent="1" source="K6tKxoil_eJn-olWahjp-72" target="K6tKxoil_eJn-olWahjp-58" edge="1">
          <mxGeometry relative="1" as="geometry" />
        </mxCell>
        <mxCell id="K6tKxoil_eJn-olWahjp-81" value="e1/0" style="edgeLabel;html=1;align=center;verticalAlign=middle;resizable=0;points=[];fontSize=8;labelBorderColor=#B5739D;" parent="K6tKxoil_eJn-olWahjp-76" vertex="1" connectable="0">
          <mxGeometry x="0.719" y="-2" relative="1" as="geometry">
            <mxPoint as="offset" />
          </mxGeometry>
        </mxCell>
        <mxCell id="K6tKxoil_eJn-olWahjp-82" value="e0/0" style="edgeLabel;html=1;align=center;verticalAlign=middle;resizable=0;points=[];fontSize=8;labelBorderColor=#B5739D;" parent="K6tKxoil_eJn-olWahjp-76" vertex="1" connectable="0">
          <mxGeometry x="-0.7408" relative="1" as="geometry">
            <mxPoint x="5.5" y="2.58" as="offset" />
          </mxGeometry>
        </mxCell>
        <mxCell id="K6tKxoil_eJn-olWahjp-72" value="2-ACCESS-DCA" style="points=[[0.015,0.015,0],[0.985,0.015,0],[0.985,0.985,0],[0.015,0.985,0],[0.25,0,0],[0.5,0,0],[0.75,0,0],[1,0.25,0],[1,0.5,0],[1,0.75,0],[0.75,1,0],[0.5,1,0],[0.25,1,0],[0,0.75,0],[0,0.5,0],[0,0.25,0]];verticalLabelPosition=middle;html=1;verticalAlign=middle;aspect=fixed;align=left;pointerEvents=1;shape=mxgraph.cisco19.rect;prIcon=l2_switch;fillColor=#FAFAFA;strokeColor=#005073;labelBackgroundColor=#ffffff;fontSize=11;labelPosition=right;" parent="1" vertex="1">
          <mxGeometry x="897.9999999999999" y="386.11" width="30" height="30" as="geometry" />
        </mxCell>
        <mxCell id="K6tKxoil_eJn-olWahjp-97" value="&lt;span style=&quot;text-align: right&quot;&gt;c2 v101&lt;/span&gt;" style="pointerEvents=1;shadow=0;dashed=0;html=1;strokeColor=none;fillColor=#505050;labelPosition=left;verticalLabelPosition=middle;outlineConnect=0;verticalAlign=middle;align=right;shape=mxgraph.office.clouds.private_cloud;" parent="1" vertex="1">
          <mxGeometry x="1068" y="590" width="54" height="30" as="geometry" />
        </mxCell>
        <mxCell id="Y5kDWbNHLIOfsGFDrfKe-1" style="edgeStyle=none;orthogonalLoop=1;jettySize=auto;html=1;entryX=0.015;entryY=0.985;entryDx=0;entryDy=0;entryPerimeter=0;endArrow=none;endFill=0;fontColor=#D9D9D9;" parent="1" source="K6tKxoil_eJn-olWahjp-100" target="K6tKxoil_eJn-olWahjp-71" edge="1">
          <mxGeometry relative="1" as="geometry" />
        </mxCell>
        <mxCell id="K6tKxoil_eJn-olWahjp-100" value="win10-mgmt" style="pointerEvents=1;shadow=0;dashed=0;html=1;strokeColor=none;fillColor=#505050;labelPosition=center;verticalLabelPosition=bottom;verticalAlign=top;outlineConnect=0;align=center;shape=mxgraph.office.devices.workstation_pc;labelBackgroundColor=#ffffff;fontSize=8;" parent="1" vertex="1">
          <mxGeometry x="638" y="440" width="28" height="40" as="geometry" />
        </mxCell>
        <mxCell id="Y5kDWbNHLIOfsGFDrfKe-3" style="edgeStyle=none;orthogonalLoop=1;jettySize=auto;html=1;entryX=0.5;entryY=1;entryDx=0;entryDy=0;entryPerimeter=0;endArrow=none;endFill=0;fontColor=#D9D9D9;" parent="1" source="K6tKxoil_eJn-olWahjp-101" target="K6tKxoil_eJn-olWahjp-71" edge="1">
          <mxGeometry relative="1" as="geometry" />
        </mxCell>
        <mxCell id="K6tKxoil_eJn-olWahjp-101" value="win-1" style="pointerEvents=1;shadow=0;dashed=0;html=1;strokeColor=none;fillColor=#505050;labelPosition=center;verticalLabelPosition=bottom;verticalAlign=top;outlineConnect=0;align=center;shape=mxgraph.office.devices.workstation_pc;labelBackgroundColor=#ffffff;fontSize=8;" parent="1" vertex="1">
          <mxGeometry x="700" y="440" width="28" height="40" as="geometry" />
        </mxCell>
        <mxCell id="K6tKxoil_eJn-olWahjp-102" value="SolarWinds" style="pointerEvents=1;shadow=0;dashed=0;html=1;strokeColor=none;fillColor=#505050;labelPosition=center;verticalLabelPosition=bottom;verticalAlign=top;outlineConnect=0;align=center;shape=mxgraph.office.servers.windows_server;labelBackgroundColor=#ffffff;fontSize=8;" parent="1" vertex="1">
          <mxGeometry x="883.0799999999999" y="550" width="32" height="40" as="geometry" />
        </mxCell>
        <mxCell id="TfWL1HgoXHI5IFDVBjAP-1" value="" style="shape=table;html=1;whiteSpace=wrap;startSize=0;container=1;collapsible=0;childLayout=tableLayout;fontSize=8;" parent="1" vertex="1">
          <mxGeometry x="460" y="78" width="370" height="72" as="geometry" />
        </mxCell>
        <mxCell id="TfWL1HgoXHI5IFDVBjAP-2" value="" style="shape=partialRectangle;html=1;whiteSpace=wrap;collapsible=0;dropTarget=0;pointerEvents=0;fillColor=none;top=0;left=0;bottom=0;right=0;points=[[0,0.5],[1,0.5]];portConstraint=eastwest;fontSize=8;" parent="TfWL1HgoXHI5IFDVBjAP-1" vertex="1">
          <mxGeometry width="370" height="18" as="geometry" />
        </mxCell>
        <mxCell id="TfWL1HgoXHI5IFDVBjAP-3" value="VLAN" style="shape=partialRectangle;html=1;whiteSpace=wrap;connectable=0;overflow=hidden;fillColor=none;top=0;left=0;bottom=0;right=0;" parent="TfWL1HgoXHI5IFDVBjAP-2" vertex="1">
          <mxGeometry width="74" height="18" as="geometry" />
        </mxCell>
        <mxCell id="TfWL1HgoXHI5IFDVBjAP-4" value="Net" style="shape=partialRectangle;html=1;whiteSpace=wrap;connectable=0;overflow=hidden;fillColor=none;top=0;left=0;bottom=0;right=0;" parent="TfWL1HgoXHI5IFDVBjAP-2" vertex="1">
          <mxGeometry x="74" width="123" height="18" as="geometry" />
        </mxCell>
        <mxCell id="TfWL1HgoXHI5IFDVBjAP-5" value="1-core" style="shape=partialRectangle;html=1;whiteSpace=wrap;connectable=0;overflow=hidden;fillColor=none;top=0;left=0;bottom=0;right=0;" parent="TfWL1HgoXHI5IFDVBjAP-2" vertex="1">
          <mxGeometry x="197" width="63" height="18" as="geometry" />
        </mxCell>
        <mxCell id="TfWL1HgoXHI5IFDVBjAP-6" value="2-core" style="shape=partialRectangle;html=1;whiteSpace=wrap;connectable=0;overflow=hidden;fillColor=none;top=0;left=0;bottom=0;right=0;" parent="TfWL1HgoXHI5IFDVBjAP-2" vertex="1">
          <mxGeometry x="260" width="50" height="18" as="geometry" />
        </mxCell>
        <mxCell id="TfWL1HgoXHI5IFDVBjAP-7" value="GLBP" style="shape=partialRectangle;html=1;whiteSpace=wrap;connectable=0;overflow=hidden;fillColor=none;top=0;left=0;bottom=0;right=0;" parent="TfWL1HgoXHI5IFDVBjAP-2" vertex="1">
          <mxGeometry x="310" width="60" height="18" as="geometry" />
        </mxCell>
        <mxCell id="TfWL1HgoXHI5IFDVBjAP-14" value="" style="shape=partialRectangle;html=1;whiteSpace=wrap;collapsible=0;dropTarget=0;pointerEvents=0;fillColor=none;top=0;left=0;bottom=0;right=0;points=[[0,0.5],[1,0.5]];portConstraint=eastwest;" parent="TfWL1HgoXHI5IFDVBjAP-1" vertex="1">
          <mxGeometry y="18" width="370" height="18" as="geometry" />
        </mxCell>
        <mxCell id="TfWL1HgoXHI5IFDVBjAP-15" value="3" style="shape=partialRectangle;html=1;whiteSpace=wrap;connectable=0;overflow=hidden;fillColor=none;top=0;left=0;bottom=0;right=0;" parent="TfWL1HgoXHI5IFDVBjAP-14" vertex="1">
          <mxGeometry width="74" height="18" as="geometry" />
        </mxCell>
        <mxCell id="TfWL1HgoXHI5IFDVBjAP-16" value="100.100.1.0/24" style="shape=partialRectangle;html=1;whiteSpace=wrap;connectable=0;overflow=hidden;fillColor=none;top=0;left=0;bottom=0;right=0;" parent="TfWL1HgoXHI5IFDVBjAP-14" vertex="1">
          <mxGeometry x="74" width="123" height="18" as="geometry" />
        </mxCell>
        <mxCell id="TfWL1HgoXHI5IFDVBjAP-17" value=".2" style="shape=partialRectangle;html=1;whiteSpace=wrap;connectable=0;overflow=hidden;fillColor=none;top=0;left=0;bottom=0;right=0;" parent="TfWL1HgoXHI5IFDVBjAP-14" vertex="1">
          <mxGeometry x="197" width="63" height="18" as="geometry" />
        </mxCell>
        <mxCell id="TfWL1HgoXHI5IFDVBjAP-18" value=".3" style="shape=partialRectangle;html=1;whiteSpace=wrap;connectable=0;overflow=hidden;fillColor=none;top=0;left=0;bottom=0;right=0;" parent="TfWL1HgoXHI5IFDVBjAP-14" vertex="1">
          <mxGeometry x="260" width="50" height="18" as="geometry" />
        </mxCell>
        <mxCell id="TfWL1HgoXHI5IFDVBjAP-19" value=".1" style="shape=partialRectangle;html=1;whiteSpace=wrap;connectable=0;overflow=hidden;fillColor=none;top=0;left=0;bottom=0;right=0;" parent="TfWL1HgoXHI5IFDVBjAP-14" vertex="1">
          <mxGeometry x="310" width="60" height="18" as="geometry" />
        </mxCell>
        <mxCell id="TfWL1HgoXHI5IFDVBjAP-20" value="" style="shape=partialRectangle;html=1;whiteSpace=wrap;collapsible=0;dropTarget=0;pointerEvents=0;fillColor=none;top=0;left=0;bottom=0;right=0;points=[[0,0.5],[1,0.5]];portConstraint=eastwest;" parent="TfWL1HgoXHI5IFDVBjAP-1" vertex="1">
          <mxGeometry y="36" width="370" height="18" as="geometry" />
        </mxCell>
        <mxCell id="TfWL1HgoXHI5IFDVBjAP-21" value="100" style="shape=partialRectangle;html=1;whiteSpace=wrap;connectable=0;overflow=hidden;fillColor=none;top=0;left=0;bottom=0;right=0;" parent="TfWL1HgoXHI5IFDVBjAP-20" vertex="1">
          <mxGeometry width="74" height="18" as="geometry" />
        </mxCell>
        <mxCell id="TfWL1HgoXHI5IFDVBjAP-22" value="100.100.100.0/24" style="shape=partialRectangle;html=1;whiteSpace=wrap;connectable=0;overflow=hidden;fillColor=none;top=0;left=0;bottom=0;right=0;" parent="TfWL1HgoXHI5IFDVBjAP-20" vertex="1">
          <mxGeometry x="74" width="123" height="18" as="geometry" />
        </mxCell>
        <mxCell id="TfWL1HgoXHI5IFDVBjAP-23" value=".2" style="shape=partialRectangle;html=1;whiteSpace=wrap;connectable=0;overflow=hidden;fillColor=none;top=0;left=0;bottom=0;right=0;" parent="TfWL1HgoXHI5IFDVBjAP-20" vertex="1">
          <mxGeometry x="197" width="63" height="18" as="geometry" />
        </mxCell>
        <mxCell id="TfWL1HgoXHI5IFDVBjAP-24" value=".3" style="shape=partialRectangle;html=1;whiteSpace=wrap;connectable=0;overflow=hidden;fillColor=none;top=0;left=0;bottom=0;right=0;" parent="TfWL1HgoXHI5IFDVBjAP-20" vertex="1">
          <mxGeometry x="260" width="50" height="18" as="geometry" />
        </mxCell>
        <mxCell id="TfWL1HgoXHI5IFDVBjAP-25" value=".1" style="shape=partialRectangle;html=1;whiteSpace=wrap;connectable=0;overflow=hidden;fillColor=none;top=0;left=0;bottom=0;right=0;" parent="TfWL1HgoXHI5IFDVBjAP-20" vertex="1">
          <mxGeometry x="310" width="60" height="18" as="geometry" />
        </mxCell>
        <mxCell id="TfWL1HgoXHI5IFDVBjAP-26" value="" style="shape=partialRectangle;html=1;whiteSpace=wrap;collapsible=0;dropTarget=0;pointerEvents=0;fillColor=none;top=0;left=0;bottom=0;right=0;points=[[0,0.5],[1,0.5]];portConstraint=eastwest;" parent="TfWL1HgoXHI5IFDVBjAP-1" vertex="1">
          <mxGeometry y="54" width="370" height="18" as="geometry" />
        </mxCell>
        <mxCell id="TfWL1HgoXHI5IFDVBjAP-27" value="101" style="shape=partialRectangle;html=1;whiteSpace=wrap;connectable=0;overflow=hidden;fillColor=none;top=0;left=0;bottom=0;right=0;" parent="TfWL1HgoXHI5IFDVBjAP-26" vertex="1">
          <mxGeometry width="74" height="18" as="geometry" />
        </mxCell>
        <mxCell id="TfWL1HgoXHI5IFDVBjAP-28" value="100.100.101.0/24" style="shape=partialRectangle;html=1;whiteSpace=wrap;connectable=0;overflow=hidden;fillColor=none;top=0;left=0;bottom=0;right=0;" parent="TfWL1HgoXHI5IFDVBjAP-26" vertex="1">
          <mxGeometry x="74" width="123" height="18" as="geometry" />
        </mxCell>
        <mxCell id="TfWL1HgoXHI5IFDVBjAP-29" value=".2" style="shape=partialRectangle;html=1;whiteSpace=wrap;connectable=0;overflow=hidden;fillColor=none;top=0;left=0;bottom=0;right=0;" parent="TfWL1HgoXHI5IFDVBjAP-26" vertex="1">
          <mxGeometry x="197" width="63" height="18" as="geometry" />
        </mxCell>
        <mxCell id="TfWL1HgoXHI5IFDVBjAP-30" value=".3" style="shape=partialRectangle;html=1;whiteSpace=wrap;connectable=0;overflow=hidden;fillColor=none;top=0;left=0;bottom=0;right=0;" parent="TfWL1HgoXHI5IFDVBjAP-26" vertex="1">
          <mxGeometry x="260" width="50" height="18" as="geometry" />
        </mxCell>
        <mxCell id="TfWL1HgoXHI5IFDVBjAP-31" value="&lt;font style=&quot;font-size: 12px&quot;&gt;.1&lt;/font&gt;" style="shape=partialRectangle;html=1;whiteSpace=wrap;connectable=0;overflow=hidden;fillColor=none;top=0;left=0;bottom=0;right=0;fontSize=8;" parent="TfWL1HgoXHI5IFDVBjAP-26" vertex="1">
          <mxGeometry x="310" width="60" height="18" as="geometry" />
        </mxCell>
        <mxCell id="gnWxTScK0FC_i-aRY5sV-6" style="edgeStyle=none;orthogonalLoop=1;jettySize=auto;html=1;entryX=0.75;entryY=1;entryDx=0;entryDy=0;entryPerimeter=0;endArrow=none;endFill=0;fontColor=#D9D9D9;" parent="1" source="A3UMkLjuYLTIyEM5Z_Rp-1" target="K6tKxoil_eJn-olWahjp-72" edge="1">
          <mxGeometry relative="1" as="geometry" />
        </mxCell>
        <mxCell id="gnWxTScK0FC_i-aRY5sV-7" value="e0/2" style="edgeLabel;html=1;align=center;verticalAlign=middle;resizable=0;points=[];fontColor=#000000;fontSize=8;labelBorderColor=#B5739D;" parent="gnWxTScK0FC_i-aRY5sV-6" vertex="1" connectable="0">
          <mxGeometry x="0.6393" y="-1" relative="1" as="geometry">
            <mxPoint as="offset" />
          </mxGeometry>
        </mxCell>
        <mxCell id="A3UMkLjuYLTIyEM5Z_Rp-1" value="dc1" style="pointerEvents=1;shadow=0;dashed=0;html=1;strokeColor=none;fillColor=#505050;labelPosition=center;verticalLabelPosition=bottom;verticalAlign=top;outlineConnect=0;align=center;shape=mxgraph.office.servers.windows_server;labelBackgroundColor=#ffffff;fontSize=8;" parent="1" vertex="1">
          <mxGeometry x="877.9999999999999" y="456.11" width="32" height="40" as="geometry" />
        </mxCell>
        <mxCell id="Y5kDWbNHLIOfsGFDrfKe-2" value="e0/2" style="text;html=1;align=center;verticalAlign=middle;resizable=0;points=[];autosize=1;fontColor=#000000;fontSize=8;labelBackgroundColor=#ffffff;labelBorderColor=#B5739D;" parent="1" vertex="1">
          <mxGeometry x="668" y="410" width="40" height="20" as="geometry" />
        </mxCell>
        <mxCell id="Y5kDWbNHLIOfsGFDrfKe-4" value="e1/0" style="text;html=1;align=center;verticalAlign=middle;resizable=0;points=[];autosize=1;fontColor=#000000;fontSize=8;labelBackgroundColor=#ffffff;labelBorderColor=#B5739D;" parent="1" vertex="1">
          <mxGeometry x="693" y="410" width="40" height="20" as="geometry" />
        </mxCell>
        <mxCell id="ya-SCuWf4foZlsTIAZpp-2" value="internet (internal)" style="pointerEvents=1;shadow=0;dashed=0;html=1;strokeColor=none;fillColor=#505050;labelPosition=center;verticalLabelPosition=bottom;outlineConnect=0;verticalAlign=top;align=center;shape=mxgraph.office.clouds.cloud;" parent="1" vertex="1">
          <mxGeometry x="193" y="230" width="54" height="30" as="geometry" />
        </mxCell>
      </root>
    </mxGraphModel>
  </diagram>
  <diagram id="Nlx-OVeJ_XdjpMUKksO7" name="Management">
    <mxGraphModel dx="1312" dy="724" grid="1" gridSize="10" guides="1" tooltips="1" connect="1" arrows="1" fold="1" page="1" pageScale="1" pageWidth="1100" pageHeight="850" math="0" shadow="0">
      <root>
        <mxCell id="iA8h5RPbSzQttkOYvQlG-0" />
        <mxCell id="iA8h5RPbSzQttkOYvQlG-1" parent="iA8h5RPbSzQttkOYvQlG-0" />
        <mxCell id="8gFGPu27ITPqo14L9oed-0" style="edgeStyle=orthogonalEdgeStyle;rounded=0;orthogonalLoop=1;jettySize=auto;html=1;endArrow=none;endFill=0;" parent="iA8h5RPbSzQttkOYvQlG-1" source="8gFGPu27ITPqo14L9oed-5" target="8gFGPu27ITPqo14L9oed-6" edge="1">
          <mxGeometry relative="1" as="geometry" />
        </mxCell>
        <mxCell id="8gFGPu27ITPqo14L9oed-1" value="port1" style="edgeLabel;html=1;align=center;verticalAlign=middle;resizable=0;points=[];labelBorderColor=#B5739D;fontSize=8;" parent="8gFGPu27ITPqo14L9oed-0" vertex="1" connectable="0">
          <mxGeometry x="-0.2579" y="-1" relative="1" as="geometry">
            <mxPoint x="13.08" y="1" as="offset" />
          </mxGeometry>
        </mxCell>
        <mxCell id="8gFGPu27ITPqo14L9oed-2" style="edgeStyle=orthogonalEdgeStyle;rounded=0;orthogonalLoop=1;jettySize=auto;html=1;endFill=0;endArrow=none;" parent="iA8h5RPbSzQttkOYvQlG-1" source="8gFGPu27ITPqo14L9oed-5" target="8gFGPu27ITPqo14L9oed-7" edge="1">
          <mxGeometry relative="1" as="geometry" />
        </mxCell>
        <mxCell id="8gFGPu27ITPqo14L9oed-3" value="port2" style="edgeLabel;html=1;align=center;verticalAlign=middle;resizable=0;points=[];labelBorderColor=#B5739D;fontSize=8;" parent="8gFGPu27ITPqo14L9oed-2" vertex="1" connectable="0">
          <mxGeometry x="-0.4839" y="-11" relative="1" as="geometry">
            <mxPoint x="-15.329999999999998" y="-10.999999999999998" as="offset" />
          </mxGeometry>
        </mxCell>
        <mxCell id="8gFGPu27ITPqo14L9oed-4" value="100.127.255.1" style="edgeLabel;html=1;align=center;verticalAlign=middle;resizable=0;points=[];fontSize=8;labelBorderColor=#B5739D;" parent="8gFGPu27ITPqo14L9oed-2" vertex="1" connectable="0">
          <mxGeometry x="-0.1711" y="-1" relative="1" as="geometry">
            <mxPoint x="4.2" y="-1" as="offset" />
          </mxGeometry>
        </mxCell>
        <mxCell id="8gFGPu27ITPqo14L9oed-5" value="fgt-1" style="shape=mxgraph.cisco.misc.asa_5500;html=1;pointerEvents=1;dashed=0;fillColor=#036897;strokeColor=#ffffff;strokeWidth=2;verticalLabelPosition=top;verticalAlign=bottom;align=center;outlineConnect=0;labelPosition=center;" parent="iA8h5RPbSzQttkOYvQlG-1" vertex="1">
          <mxGeometry x="200" y="100" width="40" height="50" as="geometry" />
        </mxCell>
        <mxCell id="8gFGPu27ITPqo14L9oed-6" value="c0 NAT1" style="pointerEvents=1;shadow=0;dashed=0;html=1;strokeColor=none;fillColor=#505050;labelPosition=center;verticalLabelPosition=bottom;outlineConnect=0;verticalAlign=top;align=center;shape=mxgraph.office.clouds.cloud;" parent="iA8h5RPbSzQttkOYvQlG-1" vertex="1">
          <mxGeometry x="70" y="110" width="54" height="30" as="geometry" />
        </mxCell>
        <mxCell id="8gFGPu27ITPqo14L9oed-7" value="c1 mgmt" style="pointerEvents=1;shadow=0;dashed=0;html=1;strokeColor=none;fillColor=#505050;labelPosition=center;verticalLabelPosition=middle;outlineConnect=0;verticalAlign=middle;align=center;shape=mxgraph.office.clouds.private_cloud;fontColor=#D9D9D9;" parent="iA8h5RPbSzQttkOYvQlG-1" vertex="1">
          <mxGeometry x="362" y="110" width="54" height="30" as="geometry" />
        </mxCell>
        <mxCell id="8gFGPu27ITPqo14L9oed-8" style="edgeStyle=orthogonalEdgeStyle;rounded=0;orthogonalLoop=1;jettySize=auto;html=1;endArrow=none;endFill=0;fontSize=11;exitX=0.5;exitY=0;exitDx=0;exitDy=0;exitPerimeter=0;" parent="iA8h5RPbSzQttkOYvQlG-1" source="8gFGPu27ITPqo14L9oed-16" target="8gFGPu27ITPqo14L9oed-5" edge="1">
          <mxGeometry relative="1" as="geometry">
            <Array as="points">
              <mxPoint x="220" y="190" />
              <mxPoint x="220" y="190" />
            </Array>
          </mxGeometry>
        </mxCell>
        <mxCell id="8gFGPu27ITPqo14L9oed-9" value="port3" style="edgeLabel;html=1;align=center;verticalAlign=middle;resizable=0;points=[];fontSize=8;labelBorderColor=#B5739D;" parent="8gFGPu27ITPqo14L9oed-8" vertex="1" connectable="0">
          <mxGeometry x="0.79" relative="1" as="geometry">
            <mxPoint x="-1" y="2.8000000000000007" as="offset" />
          </mxGeometry>
        </mxCell>
        <mxCell id="8gFGPu27ITPqo14L9oed-12" value="" style="edgeStyle=orthogonalEdgeStyle;rounded=0;orthogonalLoop=1;jettySize=auto;html=1;endArrow=none;endFill=0;fontSize=11;" parent="iA8h5RPbSzQttkOYvQlG-1" source="8gFGPu27ITPqo14L9oed-16" target="8gFGPu27ITPqo14L9oed-21" edge="1">
          <mxGeometry relative="1" as="geometry" />
        </mxCell>
        <mxCell id="8gFGPu27ITPqo14L9oed-16" value="ISP1" style="points=[[0.5,0,0],[1,0.5,0],[0.5,1,0],[0,0.5,0],[0.145,0.145,0],[0.8555,0.145,0],[0.855,0.8555,0],[0.145,0.855,0]];verticalLabelPosition=middle;html=1;verticalAlign=middle;aspect=fixed;align=right;pointerEvents=1;shape=mxgraph.cisco19.rect;prIcon=router;fillColor=#FAFAFA;strokeColor=#005073;labelBackgroundColor=#ffffff;fontSize=11;labelPosition=left;" parent="iA8h5RPbSzQttkOYvQlG-1" vertex="1">
          <mxGeometry x="205" y="220" width="30" height="30" as="geometry" />
        </mxCell>
        <mxCell id="8gFGPu27ITPqo14L9oed-17" value="" style="edgeStyle=orthogonalEdgeStyle;rounded=0;orthogonalLoop=1;jettySize=auto;html=1;endArrow=none;endFill=0;fontSize=11;" parent="iA8h5RPbSzQttkOYvQlG-1" source="8gFGPu27ITPqo14L9oed-21" target="8gFGPu27ITPqo14L9oed-22" edge="1">
          <mxGeometry relative="1" as="geometry" />
        </mxCell>
        <mxCell id="8gFGPu27ITPqo14L9oed-21" value="1-INET-DCA" style="points=[[0.5,0,0],[1,0.5,0],[0.5,1,0],[0,0.5,0],[0.145,0.145,0],[0.8555,0.145,0],[0.855,0.8555,0],[0.145,0.855,0]];verticalLabelPosition=bottom;html=1;verticalAlign=top;aspect=fixed;align=center;pointerEvents=1;shape=mxgraph.cisco19.rect;prIcon=router;fillColor=#FAFAFA;strokeColor=#005073;labelBackgroundColor=#ffffff;fontSize=11;labelPosition=center;" parent="iA8h5RPbSzQttkOYvQlG-1" vertex="1">
          <mxGeometry x="204.99999999999997" y="330" width="30" height="30" as="geometry" />
        </mxCell>
        <mxCell id="8gFGPu27ITPqo14L9oed-64" style="edgeStyle=orthogonalEdgeStyle;rounded=0;orthogonalLoop=1;jettySize=auto;html=1;entryX=0;entryY=0.5;entryDx=0;entryDy=0;entryPerimeter=0;endArrow=none;endFill=0;" parent="iA8h5RPbSzQttkOYvQlG-1" source="8gFGPu27ITPqo14L9oed-22" target="8gFGPu27ITPqo14L9oed-46" edge="1">
          <mxGeometry relative="1" as="geometry" />
        </mxCell>
        <mxCell id="8gFGPu27ITPqo14L9oed-22" value="1-PAT-DCA" style="points=[[0.5,0,0],[1,0.5,0],[0.5,1,0],[0,0.5,0],[0.145,0.145,0],[0.8555,0.145,0],[0.855,0.8555,0],[0.145,0.855,0]];verticalLabelPosition=bottom;html=1;verticalAlign=top;aspect=fixed;align=center;pointerEvents=1;shape=mxgraph.cisco19.rect;prIcon=router;fillColor=#FAFAFA;strokeColor=#005073;labelBackgroundColor=#ffffff;fontSize=11;labelPosition=center;" parent="iA8h5RPbSzQttkOYvQlG-1" vertex="1">
          <mxGeometry x="332" y="330" width="30" height="30" as="geometry" />
        </mxCell>
        <mxCell id="8gFGPu27ITPqo14L9oed-26" value="" style="edgeStyle=orthogonalEdgeStyle;rounded=0;orthogonalLoop=1;jettySize=auto;html=1;endArrow=none;endFill=0;fontSize=8;exitX=1;exitY=0.25;exitDx=0;exitDy=0;exitPerimeter=0;entryX=0;entryY=0.25;entryDx=0;entryDy=0;entryPerimeter=0;" parent="iA8h5RPbSzQttkOYvQlG-1" source="8gFGPu27ITPqo14L9oed-41" target="8gFGPu27ITPqo14L9oed-45" edge="1">
          <mxGeometry relative="1" as="geometry" />
        </mxCell>
        <mxCell id="8gFGPu27ITPqo14L9oed-29" style="edgeStyle=orthogonalEdgeStyle;rounded=0;orthogonalLoop=1;jettySize=auto;html=1;exitX=1;exitY=0.75;exitDx=0;exitDy=0;exitPerimeter=0;entryX=0;entryY=0.75;entryDx=0;entryDy=0;entryPerimeter=0;endArrow=none;endFill=0;fontSize=8;" parent="iA8h5RPbSzQttkOYvQlG-1" source="8gFGPu27ITPqo14L9oed-41" target="8gFGPu27ITPqo14L9oed-45" edge="1">
          <mxGeometry relative="1" as="geometry" />
        </mxCell>
        <mxCell id="8gFGPu27ITPqo14L9oed-32" style="rounded=0;orthogonalLoop=1;jettySize=auto;html=1;exitX=0.015;exitY=0.985;exitDx=0;exitDy=0;exitPerimeter=0;entryX=0.75;entryY=0;entryDx=0;entryDy=0;entryPerimeter=0;endArrow=none;endFill=0;fontSize=8;" parent="iA8h5RPbSzQttkOYvQlG-1" source="8gFGPu27ITPqo14L9oed-41" target="8gFGPu27ITPqo14L9oed-46" edge="1">
          <mxGeometry relative="1" as="geometry" />
        </mxCell>
        <mxCell id="8gFGPu27ITPqo14L9oed-35" style="edgeStyle=none;rounded=0;orthogonalLoop=1;jettySize=auto;html=1;exitX=0.5;exitY=1;exitDx=0;exitDy=0;exitPerimeter=0;entryX=0.25;entryY=0;entryDx=0;entryDy=0;entryPerimeter=0;endArrow=none;endFill=0;fontSize=8;" parent="iA8h5RPbSzQttkOYvQlG-1" source="8gFGPu27ITPqo14L9oed-41" target="8gFGPu27ITPqo14L9oed-50" edge="1">
          <mxGeometry relative="1" as="geometry" />
        </mxCell>
        <mxCell id="8gFGPu27ITPqo14L9oed-38" style="edgeStyle=none;rounded=0;orthogonalLoop=1;jettySize=auto;html=1;exitX=0.985;exitY=0.985;exitDx=0;exitDy=0;exitPerimeter=0;entryX=-0.128;entryY=-0.082;entryDx=0;entryDy=0;entryPerimeter=0;endArrow=none;endFill=0;fontSize=8;" parent="iA8h5RPbSzQttkOYvQlG-1" source="8gFGPu27ITPqo14L9oed-41" target="8gFGPu27ITPqo14L9oed-54" edge="1">
          <mxGeometry relative="1" as="geometry" />
        </mxCell>
        <mxCell id="8gFGPu27ITPqo14L9oed-41" value="1-CORE-DCA" style="points=[[0.015,0.015,0],[0.985,0.015,0],[0.985,0.985,0],[0.015,0.985,0],[0.25,0,0],[0.5,0,0],[0.75,0,0],[1,0.25,0],[1,0.5,0],[1,0.75,0],[0.75,1,0],[0.5,1,0],[0.25,1,0],[0,0.75,0],[0,0.5,0],[0,0.25,0]];verticalLabelPosition=top;html=1;verticalAlign=bottom;aspect=fixed;align=center;pointerEvents=1;shape=mxgraph.cisco19.rect;prIcon=l3_switch;fillColor=#FAFAFA;strokeColor=#005073;labelBackgroundColor=#ffffff;fontSize=11;labelPosition=center;" parent="iA8h5RPbSzQttkOYvQlG-1" vertex="1">
          <mxGeometry x="629.9999999999999" y="205.13" width="30" height="30" as="geometry" />
        </mxCell>
        <mxCell id="8gFGPu27ITPqo14L9oed-42" style="edgeStyle=none;rounded=0;orthogonalLoop=1;jettySize=auto;html=1;exitX=0.015;exitY=0.985;exitDx=0;exitDy=0;exitPerimeter=0;entryX=1;entryY=0.25;entryDx=0;entryDy=0;entryPerimeter=0;endArrow=none;endFill=0;fontSize=8;" parent="iA8h5RPbSzQttkOYvQlG-1" source="8gFGPu27ITPqo14L9oed-45" target="8gFGPu27ITPqo14L9oed-46" edge="1">
          <mxGeometry relative="1" as="geometry" />
        </mxCell>
        <mxCell id="8gFGPu27ITPqo14L9oed-45" value="2-CORE-DCA" style="points=[[0.015,0.015,0],[0.985,0.015,0],[0.985,0.985,0],[0.015,0.985,0],[0.25,0,0],[0.5,0,0],[0.75,0,0],[1,0.25,0],[1,0.5,0],[1,0.75,0],[0.75,1,0],[0.5,1,0],[0.25,1,0],[0,0.75,0],[0,0.5,0],[0,0.25,0]];verticalLabelPosition=top;html=1;verticalAlign=bottom;aspect=fixed;align=center;pointerEvents=1;shape=mxgraph.cisco19.rect;prIcon=l3_switch;fillColor=#FAFAFA;strokeColor=#005073;labelBackgroundColor=#ffffff;fontSize=11;labelPosition=center;" parent="iA8h5RPbSzQttkOYvQlG-1" vertex="1">
          <mxGeometry x="769.9999999999999" y="205.13" width="30" height="30" as="geometry" />
        </mxCell>
        <mxCell id="8gFGPu27ITPqo14L9oed-46" value="1-EDGE-DCA" style="points=[[0.015,0.015,0],[0.985,0.015,0],[0.985,0.985,0],[0.015,0.985,0],[0.25,0,0],[0.5,0,0],[0.75,0,0],[1,0.25,0],[1,0.5,0],[1,0.75,0],[0.75,1,0],[0.5,1,0],[0.25,1,0],[0,0.75,0],[0,0.5,0],[0,0.25,0]];verticalLabelPosition=bottom;html=1;verticalAlign=top;aspect=fixed;align=center;pointerEvents=1;shape=mxgraph.cisco19.rect;prIcon=l2_switch;fillColor=#FAFAFA;strokeColor=#005073;labelBackgroundColor=#ffffff;fontSize=11;" parent="iA8h5RPbSzQttkOYvQlG-1" vertex="1">
          <mxGeometry x="469.9999999999999" y="330" width="30" height="30" as="geometry" />
        </mxCell>
        <mxCell id="8gFGPu27ITPqo14L9oed-47" style="edgeStyle=none;rounded=0;orthogonalLoop=1;jettySize=auto;html=1;exitX=0.985;exitY=0.015;exitDx=0;exitDy=0;exitPerimeter=0;entryX=0.5;entryY=1;entryDx=0;entryDy=0;entryPerimeter=0;endArrow=none;endFill=0;fontSize=8;" parent="iA8h5RPbSzQttkOYvQlG-1" source="8gFGPu27ITPqo14L9oed-50" target="8gFGPu27ITPqo14L9oed-45" edge="1">
          <mxGeometry relative="1" as="geometry" />
        </mxCell>
        <mxCell id="8gFGPu27ITPqo14L9oed-50" value="1-ACCESS-DCA" style="points=[[0.015,0.015,0],[0.985,0.015,0],[0.985,0.985,0],[0.015,0.985,0],[0.25,0,0],[0.5,0,0],[0.75,0,0],[1,0.25,0],[1,0.5,0],[1,0.75,0],[0.75,1,0],[0.5,1,0],[0.25,1,0],[0,0.75,0],[0,0.5,0],[0,0.25,0]];verticalLabelPosition=middle;html=1;verticalAlign=middle;aspect=fixed;align=left;pointerEvents=1;shape=mxgraph.cisco19.rect;prIcon=l2_switch;fillColor=#FAFAFA;strokeColor=#005073;labelBackgroundColor=#ffffff;fontSize=11;labelPosition=right;" parent="iA8h5RPbSzQttkOYvQlG-1" vertex="1">
          <mxGeometry x="570" y="380" width="30" height="30" as="geometry" />
        </mxCell>
        <mxCell id="8gFGPu27ITPqo14L9oed-51" style="edgeStyle=none;rounded=0;orthogonalLoop=1;jettySize=auto;html=1;exitX=0.75;exitY=0;exitDx=0;exitDy=0;exitPerimeter=0;entryX=0.75;entryY=1;entryDx=0;entryDy=0;entryPerimeter=0;endArrow=none;endFill=0;fontSize=8;" parent="iA8h5RPbSzQttkOYvQlG-1" source="8gFGPu27ITPqo14L9oed-54" target="8gFGPu27ITPqo14L9oed-45" edge="1">
          <mxGeometry relative="1" as="geometry" />
        </mxCell>
        <mxCell id="8gFGPu27ITPqo14L9oed-54" value="2-ACCESS-DCA" style="points=[[0.015,0.015,0],[0.985,0.015,0],[0.985,0.985,0],[0.015,0.985,0],[0.25,0,0],[0.5,0,0],[0.75,0,0],[1,0.25,0],[1,0.5,0],[1,0.75,0],[0.75,1,0],[0.5,1,0],[0.25,1,0],[0,0.75,0],[0,0.5,0],[0,0.25,0]];verticalLabelPosition=middle;html=1;verticalAlign=middle;aspect=fixed;align=left;pointerEvents=1;shape=mxgraph.cisco19.rect;prIcon=l2_switch;fillColor=#FAFAFA;strokeColor=#005073;labelBackgroundColor=#ffffff;fontSize=11;labelPosition=right;" parent="iA8h5RPbSzQttkOYvQlG-1" vertex="1">
          <mxGeometry x="769.9999999999999" y="386.11" width="30" height="30" as="geometry" />
        </mxCell>
        <mxCell id="8gFGPu27ITPqo14L9oed-55" style="edgeStyle=none;orthogonalLoop=1;jettySize=auto;html=1;entryX=0.015;entryY=0.985;entryDx=0;entryDy=0;entryPerimeter=0;endArrow=none;endFill=0;fontColor=#D9D9D9;" parent="iA8h5RPbSzQttkOYvQlG-1" source="8gFGPu27ITPqo14L9oed-56" target="8gFGPu27ITPqo14L9oed-50" edge="1">
          <mxGeometry relative="1" as="geometry" />
        </mxCell>
        <mxCell id="8gFGPu27ITPqo14L9oed-56" value="win10-mgmt" style="pointerEvents=1;shadow=0;dashed=0;html=1;strokeColor=none;fillColor=#505050;labelPosition=center;verticalLabelPosition=bottom;verticalAlign=top;outlineConnect=0;align=center;shape=mxgraph.office.devices.workstation_pc;labelBackgroundColor=#ffffff;fontSize=8;" parent="iA8h5RPbSzQttkOYvQlG-1" vertex="1">
          <mxGeometry x="510" y="440" width="28" height="40" as="geometry" />
        </mxCell>
        <mxCell id="8gFGPu27ITPqo14L9oed-57" style="edgeStyle=none;orthogonalLoop=1;jettySize=auto;html=1;entryX=0.5;entryY=1;entryDx=0;entryDy=0;entryPerimeter=0;endArrow=none;endFill=0;fontColor=#D9D9D9;" parent="iA8h5RPbSzQttkOYvQlG-1" source="8gFGPu27ITPqo14L9oed-58" target="8gFGPu27ITPqo14L9oed-50" edge="1">
          <mxGeometry relative="1" as="geometry" />
        </mxCell>
        <mxCell id="8gFGPu27ITPqo14L9oed-58" value="win-1" style="pointerEvents=1;shadow=0;dashed=0;html=1;strokeColor=none;fillColor=#505050;labelPosition=center;verticalLabelPosition=bottom;verticalAlign=top;outlineConnect=0;align=center;shape=mxgraph.office.devices.workstation_pc;labelBackgroundColor=#ffffff;fontSize=8;" parent="iA8h5RPbSzQttkOYvQlG-1" vertex="1">
          <mxGeometry x="572" y="440" width="28" height="40" as="geometry" />
        </mxCell>
        <mxCell id="8gFGPu27ITPqo14L9oed-59" style="edgeStyle=none;orthogonalLoop=1;jettySize=auto;html=1;entryX=0.75;entryY=1;entryDx=0;entryDy=0;entryPerimeter=0;endArrow=none;endFill=0;fontColor=#D9D9D9;" parent="iA8h5RPbSzQttkOYvQlG-1" source="8gFGPu27ITPqo14L9oed-61" target="8gFGPu27ITPqo14L9oed-54" edge="1">
          <mxGeometry relative="1" as="geometry" />
        </mxCell>
        <mxCell id="8gFGPu27ITPqo14L9oed-61" value="dc1" style="pointerEvents=1;shadow=0;dashed=0;html=1;strokeColor=none;fillColor=#505050;labelPosition=center;verticalLabelPosition=bottom;verticalAlign=top;outlineConnect=0;align=center;shape=mxgraph.office.servers.windows_server;labelBackgroundColor=#ffffff;fontSize=8;" parent="iA8h5RPbSzQttkOYvQlG-1" vertex="1">
          <mxGeometry x="749.9999999999999" y="456.11" width="32" height="40" as="geometry" />
        </mxCell>
        <mxCell id="LwvALBje_U1O2wSssITc-0" value="" style="shape=table;html=1;whiteSpace=wrap;startSize=0;container=1;collapsible=0;childLayout=tableLayout;" parent="iA8h5RPbSzQttkOYvQlG-1" vertex="1">
          <mxGeometry x="240" y="220" width="140" height="40" as="geometry" />
        </mxCell>
        <mxCell id="LwvALBje_U1O2wSssITc-1" value="" style="shape=partialRectangle;html=1;whiteSpace=wrap;collapsible=0;dropTarget=0;pointerEvents=0;fillColor=none;top=0;left=0;bottom=0;right=0;points=[[0,0.5],[1,0.5]];portConstraint=eastwest;" parent="LwvALBje_U1O2wSssITc-0" vertex="1">
          <mxGeometry width="140" height="20" as="geometry" />
        </mxCell>
        <mxCell id="LwvALBje_U1O2wSssITc-2" value="e0/3" style="shape=partialRectangle;html=1;whiteSpace=wrap;connectable=0;overflow=hidden;fillColor=none;top=0;left=0;bottom=0;right=0;fontSize=9;fontFamily=Lucida Console;" parent="LwvALBje_U1O2wSssITc-1" vertex="1">
          <mxGeometry width="40" height="20" as="geometry" />
        </mxCell>
        <mxCell id="LwvALBje_U1O2wSssITc-3" value="100.127.255.2" style="shape=partialRectangle;html=1;whiteSpace=wrap;connectable=0;overflow=hidden;fillColor=none;top=0;left=0;bottom=0;right=0;fontSize=9;fontFamily=Lucida Console;" parent="LwvALBje_U1O2wSssITc-1" vertex="1">
          <mxGeometry x="40" width="100" height="20" as="geometry" />
        </mxCell>
        <mxCell id="LwvALBje_U1O2wSssITc-4" value="" style="shape=partialRectangle;html=1;whiteSpace=wrap;collapsible=0;dropTarget=0;pointerEvents=0;fillColor=none;top=0;left=0;bottom=0;right=0;points=[[0,0.5],[1,0.5]];portConstraint=eastwest;" parent="LwvALBje_U1O2wSssITc-0" vertex="1">
          <mxGeometry y="20" width="140" height="20" as="geometry" />
        </mxCell>
        <mxCell id="LwvALBje_U1O2wSssITc-5" value="e0/0" style="shape=partialRectangle;html=1;whiteSpace=wrap;connectable=0;overflow=hidden;fillColor=none;top=0;left=0;bottom=0;right=0;fontSize=9;fontFamily=Lucida Console;" parent="LwvALBje_U1O2wSssITc-4" vertex="1">
          <mxGeometry width="40" height="20" as="geometry" />
        </mxCell>
        <mxCell id="LwvALBje_U1O2wSssITc-6" value="100.127.254.2" style="shape=partialRectangle;html=1;whiteSpace=wrap;connectable=0;overflow=hidden;fillColor=none;top=0;left=0;bottom=0;right=0;fontSize=9;fontFamily=Lucida Console;" parent="LwvALBje_U1O2wSssITc-4" vertex="1">
          <mxGeometry x="40" width="100" height="20" as="geometry" />
        </mxCell>
        <mxCell id="LwvALBje_U1O2wSssITc-7" value="" style="shape=table;html=1;whiteSpace=wrap;startSize=0;container=1;collapsible=0;childLayout=tableLayout;" parent="iA8h5RPbSzQttkOYvQlG-1" vertex="1">
          <mxGeometry x="90" y="385" width="140" height="40" as="geometry" />
        </mxCell>
        <mxCell id="LwvALBje_U1O2wSssITc-8" value="" style="shape=partialRectangle;html=1;whiteSpace=wrap;collapsible=0;dropTarget=0;pointerEvents=0;fillColor=none;top=0;left=0;bottom=0;right=0;points=[[0,0.5],[1,0.5]];portConstraint=eastwest;" parent="LwvALBje_U1O2wSssITc-7" vertex="1">
          <mxGeometry width="140" height="20" as="geometry" />
        </mxCell>
        <mxCell id="LwvALBje_U1O2wSssITc-9" value="e0/3" style="shape=partialRectangle;html=1;whiteSpace=wrap;connectable=0;overflow=hidden;fillColor=none;top=0;left=0;bottom=0;right=0;fontSize=9;fontFamily=Lucida Console;" parent="LwvALBje_U1O2wSssITc-8" vertex="1">
          <mxGeometry width="40" height="20" as="geometry" />
        </mxCell>
        <mxCell id="LwvALBje_U1O2wSssITc-10" value="100.127.255.4" style="shape=partialRectangle;html=1;whiteSpace=wrap;connectable=0;overflow=hidden;fillColor=none;top=0;left=0;bottom=0;right=0;fontSize=9;fontFamily=Lucida Console;" parent="LwvALBje_U1O2wSssITc-8" vertex="1">
          <mxGeometry x="40" width="100" height="20" as="geometry" />
        </mxCell>
        <mxCell id="LwvALBje_U1O2wSssITc-11" value="" style="shape=partialRectangle;html=1;whiteSpace=wrap;collapsible=0;dropTarget=0;pointerEvents=0;fillColor=none;top=0;left=0;bottom=0;right=0;points=[[0,0.5],[1,0.5]];portConstraint=eastwest;" parent="LwvALBje_U1O2wSssITc-7" vertex="1">
          <mxGeometry y="20" width="140" height="20" as="geometry" />
        </mxCell>
        <mxCell id="LwvALBje_U1O2wSssITc-12" value="lo0" style="shape=partialRectangle;html=1;whiteSpace=wrap;connectable=0;overflow=hidden;fillColor=none;top=0;left=0;bottom=0;right=0;fontSize=9;fontFamily=Lucida Console;" parent="LwvALBje_U1O2wSssITc-11" vertex="1">
          <mxGeometry width="40" height="20" as="geometry" />
        </mxCell>
        <mxCell id="LwvALBje_U1O2wSssITc-13" value="100.100.255.1" style="shape=partialRectangle;html=1;whiteSpace=wrap;connectable=0;overflow=hidden;fillColor=none;top=0;left=0;bottom=0;right=0;fontSize=9;fontFamily=Lucida Console;" parent="LwvALBje_U1O2wSssITc-11" vertex="1">
          <mxGeometry x="40" width="100" height="20" as="geometry" />
        </mxCell>
        <mxCell id="LwvALBje_U1O2wSssITc-14" value="" style="shape=table;html=1;whiteSpace=wrap;startSize=0;container=1;collapsible=0;childLayout=tableLayout;" parent="iA8h5RPbSzQttkOYvQlG-1" vertex="1">
          <mxGeometry x="250" y="385" width="140" height="40" as="geometry" />
        </mxCell>
        <mxCell id="LwvALBje_U1O2wSssITc-15" value="" style="shape=partialRectangle;html=1;whiteSpace=wrap;collapsible=0;dropTarget=0;pointerEvents=0;fillColor=none;top=0;left=0;bottom=0;right=0;points=[[0,0.5],[1,0.5]];portConstraint=eastwest;" parent="LwvALBje_U1O2wSssITc-14" vertex="1">
          <mxGeometry width="140" height="20" as="geometry" />
        </mxCell>
        <mxCell id="LwvALBje_U1O2wSssITc-16" value="e0/3" style="shape=partialRectangle;html=1;whiteSpace=wrap;connectable=0;overflow=hidden;fillColor=none;top=0;left=0;bottom=0;right=0;fontSize=9;fontFamily=Lucida Console;" parent="LwvALBje_U1O2wSssITc-15" vertex="1">
          <mxGeometry width="40" height="20" as="geometry" />
        </mxCell>
        <mxCell id="LwvALBje_U1O2wSssITc-17" value="100.127.255.6" style="shape=partialRectangle;html=1;whiteSpace=wrap;connectable=0;overflow=hidden;fillColor=none;top=0;left=0;bottom=0;right=0;fontSize=9;fontFamily=Lucida Console;" parent="LwvALBje_U1O2wSssITc-15" vertex="1">
          <mxGeometry x="40" width="100" height="20" as="geometry" />
        </mxCell>
        <mxCell id="LwvALBje_U1O2wSssITc-18" value="" style="shape=partialRectangle;html=1;whiteSpace=wrap;collapsible=0;dropTarget=0;pointerEvents=0;fillColor=none;top=0;left=0;bottom=0;right=0;points=[[0,0.5],[1,0.5]];portConstraint=eastwest;" parent="LwvALBje_U1O2wSssITc-14" vertex="1">
          <mxGeometry y="20" width="140" height="20" as="geometry" />
        </mxCell>
        <mxCell id="LwvALBje_U1O2wSssITc-19" value="lo0" style="shape=partialRectangle;html=1;whiteSpace=wrap;connectable=0;overflow=hidden;fillColor=none;top=0;left=0;bottom=0;right=0;fontSize=9;fontFamily=Lucida Console;" parent="LwvALBje_U1O2wSssITc-18" vertex="1">
          <mxGeometry width="40" height="20" as="geometry" />
        </mxCell>
        <mxCell id="LwvALBje_U1O2wSssITc-20" value="100.100.255.3" style="shape=partialRectangle;html=1;whiteSpace=wrap;connectable=0;overflow=hidden;fillColor=none;top=0;left=0;bottom=0;right=0;fontSize=9;fontFamily=Lucida Console;" parent="LwvALBje_U1O2wSssITc-18" vertex="1">
          <mxGeometry x="40" width="100" height="20" as="geometry" />
        </mxCell>
        <mxCell id="LwvALBje_U1O2wSssITc-21" value="" style="shape=table;html=1;whiteSpace=wrap;startSize=0;container=1;collapsible=0;childLayout=tableLayout;" parent="iA8h5RPbSzQttkOYvQlG-1" vertex="1">
          <mxGeometry x="400" y="385" width="140" height="40" as="geometry" />
        </mxCell>
        <mxCell id="LwvALBje_U1O2wSssITc-22" value="" style="shape=partialRectangle;html=1;whiteSpace=wrap;collapsible=0;dropTarget=0;pointerEvents=0;fillColor=none;top=0;left=0;bottom=0;right=0;points=[[0,0.5],[1,0.5]];portConstraint=eastwest;" parent="LwvALBje_U1O2wSssITc-21" vertex="1">
          <mxGeometry width="140" height="20" as="geometry" />
        </mxCell>
        <mxCell id="LwvALBje_U1O2wSssITc-23" value="e0/3" style="shape=partialRectangle;html=1;whiteSpace=wrap;connectable=0;overflow=hidden;fillColor=none;top=0;left=0;bottom=0;right=0;fontSize=9;fontFamily=Lucida Console;" parent="LwvALBje_U1O2wSssITc-22" vertex="1">
          <mxGeometry width="40" height="20" as="geometry" />
        </mxCell>
        <mxCell id="LwvALBje_U1O2wSssITc-24" value="100.127.255.7" style="shape=partialRectangle;html=1;whiteSpace=wrap;connectable=0;overflow=hidden;fillColor=none;top=0;left=0;bottom=0;right=0;fontSize=9;fontFamily=Lucida Console;" parent="LwvALBje_U1O2wSssITc-22" vertex="1">
          <mxGeometry x="40" width="100" height="20" as="geometry" />
        </mxCell>
        <mxCell id="LwvALBje_U1O2wSssITc-25" value="" style="shape=partialRectangle;html=1;whiteSpace=wrap;collapsible=0;dropTarget=0;pointerEvents=0;fillColor=none;top=0;left=0;bottom=0;right=0;points=[[0,0.5],[1,0.5]];portConstraint=eastwest;" parent="LwvALBje_U1O2wSssITc-21" vertex="1">
          <mxGeometry y="20" width="140" height="20" as="geometry" />
        </mxCell>
        <mxCell id="LwvALBje_U1O2wSssITc-26" value="e0/0" style="shape=partialRectangle;html=1;whiteSpace=wrap;connectable=0;overflow=hidden;fillColor=none;top=0;left=0;bottom=0;right=0;fontSize=9;fontFamily=Lucida Console;" parent="LwvALBje_U1O2wSssITc-25" vertex="1">
          <mxGeometry width="40" height="20" as="geometry" />
        </mxCell>
        <mxCell id="LwvALBje_U1O2wSssITc-27" value="100.100.254.7" style="shape=partialRectangle;html=1;whiteSpace=wrap;connectable=0;overflow=hidden;fillColor=none;top=0;left=0;bottom=0;right=0;fontSize=9;fontFamily=Lucida Console;" parent="LwvALBje_U1O2wSssITc-25" vertex="1">
          <mxGeometry x="40" width="100" height="20" as="geometry" />
        </mxCell>
        <mxCell id="LwvALBje_U1O2wSssITc-28" value="" style="shape=table;html=1;whiteSpace=wrap;startSize=0;container=1;collapsible=0;childLayout=tableLayout;" parent="iA8h5RPbSzQttkOYvQlG-1" vertex="1">
          <mxGeometry x="550" y="120" width="140" height="60" as="geometry" />
        </mxCell>
        <mxCell id="LwvALBje_U1O2wSssITc-35" style="shape=partialRectangle;html=1;whiteSpace=wrap;collapsible=0;dropTarget=0;pointerEvents=0;fillColor=none;top=0;left=0;bottom=0;right=0;points=[[0,0.5],[1,0.5]];portConstraint=eastwest;" parent="LwvALBje_U1O2wSssITc-28" vertex="1">
          <mxGeometry width="140" height="20" as="geometry" />
        </mxCell>
        <mxCell id="LwvALBje_U1O2wSssITc-36" value="vlan3" style="shape=partialRectangle;html=1;whiteSpace=wrap;connectable=0;overflow=hidden;fillColor=none;top=0;left=0;bottom=0;right=0;fontSize=9;fontFamily=Lucida Console;" parent="LwvALBje_U1O2wSssITc-35" vertex="1">
          <mxGeometry width="40" height="20" as="geometry" />
        </mxCell>
        <mxCell id="LwvALBje_U1O2wSssITc-37" value="100.100.0.2" style="shape=partialRectangle;html=1;whiteSpace=wrap;connectable=0;overflow=hidden;fillColor=none;top=0;left=0;bottom=0;right=0;fontSize=9;fontFamily=Lucida Console;" parent="LwvALBje_U1O2wSssITc-35" vertex="1">
          <mxGeometry x="40" width="100" height="20" as="geometry" />
        </mxCell>
        <mxCell id="LwvALBje_U1O2wSssITc-32" value="" style="shape=partialRectangle;html=1;whiteSpace=wrap;collapsible=0;dropTarget=0;pointerEvents=0;fillColor=none;top=0;left=0;bottom=0;right=0;points=[[0,0.5],[1,0.5]];portConstraint=eastwest;" parent="LwvALBje_U1O2wSssITc-28" vertex="1">
          <mxGeometry y="20" width="140" height="20" as="geometry" />
        </mxCell>
        <mxCell id="LwvALBje_U1O2wSssITc-33" value="lo0" style="shape=partialRectangle;html=1;whiteSpace=wrap;connectable=0;overflow=hidden;fillColor=none;top=0;left=0;bottom=0;right=0;fontSize=9;fontFamily=Lucida Console;" parent="LwvALBje_U1O2wSssITc-32" vertex="1">
          <mxGeometry width="40" height="20" as="geometry" />
        </mxCell>
        <mxCell id="LwvALBje_U1O2wSssITc-34" value="100.100.255.4" style="shape=partialRectangle;html=1;whiteSpace=wrap;connectable=0;overflow=hidden;fillColor=none;top=0;left=0;bottom=0;right=0;fontSize=9;fontFamily=Lucida Console;" parent="LwvALBje_U1O2wSssITc-32" vertex="1">
          <mxGeometry x="40" width="100" height="20" as="geometry" />
        </mxCell>
        <mxCell id="LwvALBje_U1O2wSssITc-29" value="" style="shape=partialRectangle;html=1;whiteSpace=wrap;collapsible=0;dropTarget=0;pointerEvents=0;fillColor=none;top=0;left=0;bottom=0;right=0;points=[[0,0.5],[1,0.5]];portConstraint=eastwest;" parent="LwvALBje_U1O2wSssITc-28" vertex="1">
          <mxGeometry y="40" width="140" height="20" as="geometry" />
        </mxCell>
        <mxCell id="LwvALBje_U1O2wSssITc-30" value="e0/3" style="shape=partialRectangle;html=1;whiteSpace=wrap;connectable=0;overflow=hidden;fillColor=none;top=0;left=0;bottom=0;right=0;fontSize=9;fontFamily=Lucida Console;" parent="LwvALBje_U1O2wSssITc-29" vertex="1">
          <mxGeometry width="40" height="20" as="geometry" />
        </mxCell>
        <mxCell id="LwvALBje_U1O2wSssITc-31" value="100.127.255.8" style="shape=partialRectangle;html=1;whiteSpace=wrap;connectable=0;overflow=hidden;fillColor=none;top=0;left=0;bottom=0;right=0;fontSize=9;fontFamily=Lucida Console;" parent="LwvALBje_U1O2wSssITc-29" vertex="1">
          <mxGeometry x="40" width="100" height="20" as="geometry" />
        </mxCell>
        <mxCell id="LwvALBje_U1O2wSssITc-38" value="" style="shape=table;html=1;whiteSpace=wrap;startSize=0;container=1;collapsible=0;childLayout=tableLayout;" parent="iA8h5RPbSzQttkOYvQlG-1" vertex="1">
          <mxGeometry x="710" y="120" width="140" height="60" as="geometry" />
        </mxCell>
        <mxCell id="LwvALBje_U1O2wSssITc-39" style="shape=partialRectangle;html=1;whiteSpace=wrap;collapsible=0;dropTarget=0;pointerEvents=0;fillColor=none;top=0;left=0;bottom=0;right=0;points=[[0,0.5],[1,0.5]];portConstraint=eastwest;" parent="LwvALBje_U1O2wSssITc-38" vertex="1">
          <mxGeometry width="140" height="20" as="geometry" />
        </mxCell>
        <mxCell id="LwvALBje_U1O2wSssITc-40" value="vlan3" style="shape=partialRectangle;html=1;whiteSpace=wrap;connectable=0;overflow=hidden;fillColor=none;top=0;left=0;bottom=0;right=0;fontSize=9;fontFamily=Lucida Console;" parent="LwvALBje_U1O2wSssITc-39" vertex="1">
          <mxGeometry width="40" height="20" as="geometry" />
        </mxCell>
        <mxCell id="LwvALBje_U1O2wSssITc-41" value="100.100.0.3" style="shape=partialRectangle;html=1;whiteSpace=wrap;connectable=0;overflow=hidden;fillColor=none;top=0;left=0;bottom=0;right=0;fontSize=9;fontFamily=Lucida Console;" parent="LwvALBje_U1O2wSssITc-39" vertex="1">
          <mxGeometry x="40" width="100" height="20" as="geometry" />
        </mxCell>
        <mxCell id="LwvALBje_U1O2wSssITc-42" value="" style="shape=partialRectangle;html=1;whiteSpace=wrap;collapsible=0;dropTarget=0;pointerEvents=0;fillColor=none;top=0;left=0;bottom=0;right=0;points=[[0,0.5],[1,0.5]];portConstraint=eastwest;" parent="LwvALBje_U1O2wSssITc-38" vertex="1">
          <mxGeometry y="20" width="140" height="20" as="geometry" />
        </mxCell>
        <mxCell id="LwvALBje_U1O2wSssITc-43" value="lo0" style="shape=partialRectangle;html=1;whiteSpace=wrap;connectable=0;overflow=hidden;fillColor=none;top=0;left=0;bottom=0;right=0;fontSize=9;fontFamily=Lucida Console;" parent="LwvALBje_U1O2wSssITc-42" vertex="1">
          <mxGeometry width="40" height="20" as="geometry" />
        </mxCell>
        <mxCell id="LwvALBje_U1O2wSssITc-44" value="100.100.255.5" style="shape=partialRectangle;html=1;whiteSpace=wrap;connectable=0;overflow=hidden;fillColor=none;top=0;left=0;bottom=0;right=0;fontSize=9;fontFamily=Lucida Console;" parent="LwvALBje_U1O2wSssITc-42" vertex="1">
          <mxGeometry x="40" width="100" height="20" as="geometry" />
        </mxCell>
        <mxCell id="LwvALBje_U1O2wSssITc-45" value="" style="shape=partialRectangle;html=1;whiteSpace=wrap;collapsible=0;dropTarget=0;pointerEvents=0;fillColor=none;top=0;left=0;bottom=0;right=0;points=[[0,0.5],[1,0.5]];portConstraint=eastwest;" parent="LwvALBje_U1O2wSssITc-38" vertex="1">
          <mxGeometry y="40" width="140" height="20" as="geometry" />
        </mxCell>
        <mxCell id="LwvALBje_U1O2wSssITc-46" value="e0/3" style="shape=partialRectangle;html=1;whiteSpace=wrap;connectable=0;overflow=hidden;fillColor=none;top=0;left=0;bottom=0;right=0;fontSize=9;fontFamily=Lucida Console;" parent="LwvALBje_U1O2wSssITc-45" vertex="1">
          <mxGeometry width="40" height="20" as="geometry" />
        </mxCell>
        <mxCell id="LwvALBje_U1O2wSssITc-47" value="100.127.255.9" style="shape=partialRectangle;html=1;whiteSpace=wrap;connectable=0;overflow=hidden;fillColor=none;top=0;left=0;bottom=0;right=0;fontSize=9;fontFamily=Lucida Console;" parent="LwvALBje_U1O2wSssITc-45" vertex="1">
          <mxGeometry x="40" width="100" height="20" as="geometry" />
        </mxCell>
        <mxCell id="LwvALBje_U1O2wSssITc-48" value="" style="shape=table;html=1;whiteSpace=wrap;startSize=0;container=1;collapsible=0;childLayout=tableLayout;" parent="iA8h5RPbSzQttkOYvQlG-1" vertex="1">
          <mxGeometry x="605" y="420" width="140" height="60" as="geometry" />
        </mxCell>
        <mxCell id="LwvALBje_U1O2wSssITc-49" style="shape=partialRectangle;html=1;whiteSpace=wrap;collapsible=0;dropTarget=0;pointerEvents=0;fillColor=none;top=0;left=0;bottom=0;right=0;points=[[0,0.5],[1,0.5]];portConstraint=eastwest;" parent="LwvALBje_U1O2wSssITc-48" vertex="1">
          <mxGeometry width="140" height="20" as="geometry" />
        </mxCell>
        <mxCell id="LwvALBje_U1O2wSssITc-50" value="vlan3" style="shape=partialRectangle;html=1;whiteSpace=wrap;connectable=0;overflow=hidden;fillColor=none;top=0;left=0;bottom=0;right=0;fontSize=9;fontFamily=Lucida Console;" parent="LwvALBje_U1O2wSssITc-49" vertex="1">
          <mxGeometry width="40" height="20" as="geometry" />
        </mxCell>
        <mxCell id="LwvALBje_U1O2wSssITc-51" value="100.100.0.4" style="shape=partialRectangle;html=1;whiteSpace=wrap;connectable=0;overflow=hidden;fillColor=none;top=0;left=0;bottom=0;right=0;fontSize=9;fontFamily=Lucida Console;" parent="LwvALBje_U1O2wSssITc-49" vertex="1">
          <mxGeometry x="40" width="100" height="20" as="geometry" />
        </mxCell>
        <mxCell id="LwvALBje_U1O2wSssITc-52" value="" style="shape=partialRectangle;html=1;whiteSpace=wrap;collapsible=0;dropTarget=0;pointerEvents=0;fillColor=none;top=0;left=0;bottom=0;right=0;points=[[0,0.5],[1,0.5]];portConstraint=eastwest;" parent="LwvALBje_U1O2wSssITc-48" vertex="1">
          <mxGeometry y="20" width="140" height="20" as="geometry" />
        </mxCell>
        <mxCell id="LwvALBje_U1O2wSssITc-53" value="lo0" style="shape=partialRectangle;html=1;whiteSpace=wrap;connectable=0;overflow=hidden;fillColor=none;top=0;left=0;bottom=0;right=0;fontSize=9;fontFamily=Lucida Console;" parent="LwvALBje_U1O2wSssITc-52" vertex="1">
          <mxGeometry width="40" height="20" as="geometry" />
        </mxCell>
        <mxCell id="LwvALBje_U1O2wSssITc-54" value="100.100.255.6" style="shape=partialRectangle;html=1;whiteSpace=wrap;connectable=0;overflow=hidden;fillColor=none;top=0;left=0;bottom=0;right=0;fontSize=9;fontFamily=Lucida Console;" parent="LwvALBje_U1O2wSssITc-52" vertex="1">
          <mxGeometry x="40" width="100" height="20" as="geometry" />
        </mxCell>
        <mxCell id="LwvALBje_U1O2wSssITc-55" value="" style="shape=partialRectangle;html=1;whiteSpace=wrap;collapsible=0;dropTarget=0;pointerEvents=0;fillColor=none;top=0;left=0;bottom=0;right=0;points=[[0,0.5],[1,0.5]];portConstraint=eastwest;" parent="LwvALBje_U1O2wSssITc-48" vertex="1">
          <mxGeometry y="40" width="140" height="20" as="geometry" />
        </mxCell>
        <mxCell id="LwvALBje_U1O2wSssITc-56" value="e0/3" style="shape=partialRectangle;html=1;whiteSpace=wrap;connectable=0;overflow=hidden;fillColor=none;top=0;left=0;bottom=0;right=0;fontSize=9;fontFamily=Lucida Console;" parent="LwvALBje_U1O2wSssITc-55" vertex="1">
          <mxGeometry width="40" height="20" as="geometry" />
        </mxCell>
        <mxCell id="LwvALBje_U1O2wSssITc-57" value="100.127.255.10" style="shape=partialRectangle;html=1;whiteSpace=wrap;connectable=0;overflow=hidden;fillColor=none;top=0;left=0;bottom=0;right=0;fontSize=9;fontFamily=Lucida Console;" parent="LwvALBje_U1O2wSssITc-55" vertex="1">
          <mxGeometry x="40" width="100" height="20" as="geometry" />
        </mxCell>
        <mxCell id="LwvALBje_U1O2wSssITc-58" value="" style="shape=table;html=1;whiteSpace=wrap;startSize=0;container=1;collapsible=0;childLayout=tableLayout;" parent="iA8h5RPbSzQttkOYvQlG-1" vertex="1">
          <mxGeometry x="798" y="421" width="140" height="60" as="geometry" />
        </mxCell>
        <mxCell id="LwvALBje_U1O2wSssITc-59" style="shape=partialRectangle;html=1;whiteSpace=wrap;collapsible=0;dropTarget=0;pointerEvents=0;fillColor=none;top=0;left=0;bottom=0;right=0;points=[[0,0.5],[1,0.5]];portConstraint=eastwest;" parent="LwvALBje_U1O2wSssITc-58" vertex="1">
          <mxGeometry width="140" height="20" as="geometry" />
        </mxCell>
        <mxCell id="LwvALBje_U1O2wSssITc-60" value="vlan3" style="shape=partialRectangle;html=1;whiteSpace=wrap;connectable=0;overflow=hidden;fillColor=none;top=0;left=0;bottom=0;right=0;fontSize=9;fontFamily=Lucida Console;" parent="LwvALBje_U1O2wSssITc-59" vertex="1">
          <mxGeometry width="40" height="20" as="geometry" />
        </mxCell>
        <mxCell id="LwvALBje_U1O2wSssITc-61" value="100.100.0.5" style="shape=partialRectangle;html=1;whiteSpace=wrap;connectable=0;overflow=hidden;fillColor=none;top=0;left=0;bottom=0;right=0;fontSize=9;fontFamily=Lucida Console;" parent="LwvALBje_U1O2wSssITc-59" vertex="1">
          <mxGeometry x="40" width="100" height="20" as="geometry" />
        </mxCell>
        <mxCell id="LwvALBje_U1O2wSssITc-62" value="" style="shape=partialRectangle;html=1;whiteSpace=wrap;collapsible=0;dropTarget=0;pointerEvents=0;fillColor=none;top=0;left=0;bottom=0;right=0;points=[[0,0.5],[1,0.5]];portConstraint=eastwest;" parent="LwvALBje_U1O2wSssITc-58" vertex="1">
          <mxGeometry y="20" width="140" height="20" as="geometry" />
        </mxCell>
        <mxCell id="LwvALBje_U1O2wSssITc-63" value="lo0" style="shape=partialRectangle;html=1;whiteSpace=wrap;connectable=0;overflow=hidden;fillColor=none;top=0;left=0;bottom=0;right=0;fontSize=9;fontFamily=Lucida Console;" parent="LwvALBje_U1O2wSssITc-62" vertex="1">
          <mxGeometry width="40" height="20" as="geometry" />
        </mxCell>
        <mxCell id="LwvALBje_U1O2wSssITc-64" value="100.100.255.7" style="shape=partialRectangle;html=1;whiteSpace=wrap;connectable=0;overflow=hidden;fillColor=none;top=0;left=0;bottom=0;right=0;fontSize=9;fontFamily=Lucida Console;" parent="LwvALBje_U1O2wSssITc-62" vertex="1">
          <mxGeometry x="40" width="100" height="20" as="geometry" />
        </mxCell>
        <mxCell id="LwvALBje_U1O2wSssITc-65" value="" style="shape=partialRectangle;html=1;whiteSpace=wrap;collapsible=0;dropTarget=0;pointerEvents=0;fillColor=none;top=0;left=0;bottom=0;right=0;points=[[0,0.5],[1,0.5]];portConstraint=eastwest;" parent="LwvALBje_U1O2wSssITc-58" vertex="1">
          <mxGeometry y="40" width="140" height="20" as="geometry" />
        </mxCell>
        <mxCell id="LwvALBje_U1O2wSssITc-66" value="e0/3" style="shape=partialRectangle;html=1;whiteSpace=wrap;connectable=0;overflow=hidden;fillColor=none;top=0;left=0;bottom=0;right=0;fontSize=9;fontFamily=Lucida Console;" parent="LwvALBje_U1O2wSssITc-65" vertex="1">
          <mxGeometry width="40" height="20" as="geometry" />
        </mxCell>
        <mxCell id="LwvALBje_U1O2wSssITc-67" value="100.127.255.11" style="shape=partialRectangle;html=1;whiteSpace=wrap;connectable=0;overflow=hidden;fillColor=none;top=0;left=0;bottom=0;right=0;fontSize=9;fontFamily=Lucida Console;" parent="LwvALBje_U1O2wSssITc-65" vertex="1">
          <mxGeometry x="40" width="100" height="20" as="geometry" />
        </mxCell>
      </root>
    </mxGraphModel>
  </diagram>
  <diagram id="rqSHHHxJUC1jZsOCW0PD" name="Page-5">
    <mxGraphModel dx="1552" dy="724" grid="1" gridSize="10" guides="1" tooltips="1" connect="1" arrows="1" fold="1" page="1" pageScale="1" pageWidth="1100" pageHeight="850" math="0" shadow="0">
      <root>
        <mxCell id="LdBDQAQYtrhXa8FewZwd-0" />
        <mxCell id="LdBDQAQYtrhXa8FewZwd-1" parent="LdBDQAQYtrhXa8FewZwd-0" />
      </root>
    </mxGraphModel>
  </diagram>
</mxfile>
